/* XPM */
static char *b4e452d3f75f45aeb3d98dbcc68de40f8VUMWOi05op6eFm6[] = {
/* columns rows colors chars-per-pixel */
"68 68 166 2 ",
"   c #501F37",
".  c #4E2423",
"X  c #4E212D",
"o  c #522624",
"O  c #522923",
"+  c #52242D",
"@  c #542B2A",
"#  c #59292F",
"$  c #56312E",
"%  c #59322B",
"&  c #4F2134",
"*  c #512134",
"=  c #5C2B33",
"-  c #5B2A37",
";  c #5A3232",
":  c #5A3937",
">  c #5D3539",
",  c #5D3B3B",
"<  c #672F27",
"1  c #61352D",
"2  c #78392E",
"3  c #602C37",
"4  c #622D3B",
"5  c #623B35",
"6  c #793A30",
"7  c #664037",
"8  c #674139",
"9  c #6A443B",
"0  c #75463D",
"q  c #531D4A",
"w  c #551A5F",
"e  c #662F40",
"r  c #682F42",
"t  c #673243",
"y  c #693045",
"u  c #623941",
"i  c #6D324A",
"p  c #70334E",
"a  c #753554",
"s  c #783757",
"d  c #79375A",
"f  c #7C385E",
"g  c #561865",
"h  c #57186A",
"j  c #591676",
"k  c #7F3961",
"l  c #5F4141",
"z  c #614244",
"x  c #6F4A41",
"c  c #66494E",
"v  c #724C44",
"b  c #79544B",
"n  c #684F52",
"m  c #6B5156",
"M  c #6D555B",
"N  c #6E595F",
"B  c #7F5952",
"V  c #70565A",
"C  c #725C64",
"Z  c #75636B",
"A  c #7F686D",
"S  c #796772",
"D  c #7A6A75",
"F  c #7D6E7B",
"G  c #7F717E",
"H  c #883F35",
"J  c #944236",
"K  c #813A65",
"L  c #863C6B",
"P  c #893D6F",
"I  c #8C3E73",
"U  c #815C52",
"Y  c #BA5144",
"T  c #856156",
"R  c #8A665B",
"E  c #8C695E",
"W  c #8F4076",
"Q  c #93427D",
"!  c #8E6B60",
"~  c #916F63",
"^  c #947267",
"/  c #95756B",
"(  c #99776B",
")  c #9C7A6E",
"_  c #806C73",
"`  c #80727F",
"'  c #D55C4D",
"]  c #D85D4E",
"[  c #DE5F51",
"{  c #DF6051",
"}  c #E66353",
"|  c #A38275",
" . c #AB8A7D",
".. c #5B1482",
"X. c #5C128D",
"o. c #964382",
"O. c #9A4486",
"+. c #9D468B",
"@. c #A0488E",
"#. c #A54994",
"$. c #AA4B9C",
"%. c #827482",
"&. c #847987",
"*. c #877C8C",
"=. c #897E8F",
"-. c #897F90",
";. c #AE4CA0",
":. c #B14EA5",
">. c #B34FA8",
",. c #B650AC",
"<. c #B851AF",
"1. c #BC53B4",
"2. c #8B8394",
"3. c #8D8699",
"4. c #8F899C",
"5. c #918C9F",
"6. c #AE8E80",
"7. c #A78E8A",
"8. c #B49589",
"9. c #B39E9B",
"0. c #928DA1",
"q. c #9491A6",
"w. c #9794AA",
"e. c #9897AE",
"r. c #9B9BB2",
"t. c #9B9CB3",
"y. c #9D9EB6",
"u. c #9D9FB8",
"i. c #A79EA9",
"p. c #9EA0BA",
"a. c #AAA0AB",
"s. c #A0A3BD",
"d. c #A1A4BE",
"f. c #BAB1BA",
"g. c #C2A394",
"h. c #C6A798",
"j. c #C7A999",
"k. c #CBAC9D",
"l. c #CFB2A2",
"z. c #D3B5A5",
"x. c #D9BCAB",
"c. c #DDC1B0",
"v. c #DEC6BC",
"b. c #E5C9B7",
"n. c #E7CCBA",
"m. c #EACEBC",
"M. c #EBD0BF",
"N. c #A9ADCB",
"B. c #A5A8C2",
"V. c #ABACC3",
"C. c #B0AFC4",
"Z. c #B4B2C5",
"A. c #BCB7C4",
"S. c #BEB9C7",
"D. c #C1BBC7",
"F. c #C3BCC8",
"G. c #CEC4C9",
"H. c #DBCCCC",
"J. c #EED3C2",
"K. c #E3D2CD",
"L. c #ECD7CE",
"P. c #F5DBC9",
"I. c #F6DBC9",
"U. c #F4DDD0",
"Y. c #FBE1CE",
"T. c #FFE5D2",
/* pixels */
"N.N.N.N.N.N.N.N.N.N.N.N.N.N.N.N.N.N.N.N.N.N.N.N.N.N.N.N.N.N.N.N.N.N.N.N.N.N.N.N.N.N.N.N.N.N.N.N.N.N.N.N.N.N.N.N.N.N.N.N.N.N.N.N.N.N.N.N.",
"N.N.N.N.N.N.N.N.N.N.N.N.N.N.N.N.N.N.N.N.N.N.N.N.N.N.N.N.N.N.N.N.N.N.N.N.N.N.N.N.N.N.N.N.N.N.N.N.N.N.N.N.N.N.N.N.N.N.N.N.N.N.N.N.N.N.N.N.",
"N.N.N.N.N.N.N.N.N.N.N.N.N.N.N.N.N.N.N.N.N.N.N.N.N.N.N.N.N.N.N.N.N.N.N.N.N.N.N.N.N.N.N.N.N.N.N.N.N.N.N.N.N.N.N.N.N.N.N.N.N.N.N.N.N.N.N.N.",
"N.N.N.N.N.N.N.N.N.N.N.N.N.N.N.N.N.N.N.N.N.N.N.N.N.N.N.N.N.N.N.N.N.N.N.N.N.N.N.N.N.N.N.N.N.N.N.N.N.N.N.N.N.N.N.N.N.N.N.N.N.N.N.N.N.N.N.N.",
"N.N.N.N.N.N.N.N.N.N.N.N.N.N.N.N.N.N.N.N.N.N.N.N.N.N.N.N.N.N.N.N.N.N.N.N.N.N.N.N.N.N.N.N.N.N.N.N.N.N.N.N.N.N.N.N.N.N.N.N.N.N.N.N.N.N.N.N.",
"N.N.N.N.N.N.N.N.N.N.N.N.N.N.N.N.N.N.N.N.N.N.N.N.N.N.N.N.N.N.N.N.N.N.N.N.N.N.N.N.N.N.N.N.N.N.N.N.N.N.N.N.N.N.N.N.N.N.N.N.N.N.N.N.N.N.N.N.",
"N.N.N.N.N.N.N.N.N.N.N.N.N.N.N.N.N.N.N.N.N.N.N.N.N.N.N.N.N.N.N.N.N.N.N.N.N.N.N.N.N.N.N.N.N.N.N.N.N.N.N.N.N.N.N.N.N.N.N.N.N.N.N.N.N.N.N.N.",
"N.N.N.N.N.N.N.N.N.N.N.N.N.N.N.N.N.N.N.N.N.N.N.N.N.N.N.N.N.N.N.N.N.N.N.N.N.N.N.N.N.N.N.N.N.N.N.N.N.N.N.N.N.N.N.N.N.N.N.N.N.N.N.N.N.N.N.N.",
"N.N.N.N.N.N.N.N.N.N.N.N.N.N.N.N.N.N.N.N.N.N.N.N.N.N.N.N.N.N.N.N.N.N.N.N.N.N.N.N.N.N.N.N.N.N.N.N.N.N.N.N.N.N.N.N.N.N.N.N.N.N.N.N.N.N.N.N.",
"N.N.N.N.N.N.N.N.N.N.N.N.N.N.N.N.N.N.N.N.N.N.N.N.N.N.N.N.N.N.N.N.N.N.N.N.N.N.N.N.N.N.N.N.N.N.N.N.N.N.N.N.N.N.N.N.N.N.N.N.N.N.N.N.N.N.N.N.",
"N.N.N.N.N.N.N.N.N.N.N.N.N.N.N.N.N.N.N.N.N.N.N.N.N.N.N.N.N.N.N.N.N.N.N.N.N.N.N.N.N.N.N.N.N.N.N.N.N.N.N.N.N.N.N.N.N.N.N.N.N.N.N.N.N.N.N.N.",
"N.N.N.N.N.N.N.N.N.N.N.N.N.N.N.N.N.N.N.N.N.N.N.N.N.N.N.N.N.N.N.N.N.N.N.N.N.N.N.N.N.N.N.N.N.N.N.N.N.N.N.N.N.N.N.N.N.N.N.N.N.N.N.N.N.N.N.N.",
"N.N.N.N.N.N.N.N.N.N.N.N.N.N.N.N.N.N.N.N.N.N.N.N.N.N.N.N.N.N.N.N.N.N.N.N.N.N.N.N.N.N.N.N.N.N.N.N.N.N.N.N.N.N.N.N.N.N.N.N.N.N.N.N.N.N.N.N.",
"N.N.N.N.N.N.N.N.N.N.N.N.N.N.N.N.N.N.N.N.N.N.N.N.N.N.N.N.N.N.N.N.N.N.N.N.N.N.N.N.N.N.N.N.N.N.N.N.N.N.N.N.N.N.N.N.N.N.N.N.N.N.N.N.N.N.N.N.",
"N.N.N.N.N.N.N.N.N.N.N.N.N.N.N.N.N.N.N.N.N.N.N.N.N.N.N.N.N.N.N.N.N.N.N.N.N.N.N.N.N.N.N.N.N.N.N.N.N.N.N.N.N.N.N.N.N.N.N.N.N.N.N.N.N.N.N.N.",
"N.N.N.N.N.N.N.N.N.N.N.N.N.N.N.N.N.N.N.N.N.N.N.N.N.N.N.N.N.N.N.N.N.N.N.N.N.N.N.N.N.N.N.N.N.N.N.N.N.N.N.N.N.N.N.N.N.N.N.N.N.N.N.N.N.N.N.N.",
"N.N.N.N.N.N.N.N.N.N.N.N.N.N.N.N.N.N.N.N.N.N.N.N.N.N.N.N.N.N.N.N.N.N.N.N.N.N.N.N.N.N.N.N.N.N.d.q.w.N.N.N.N.N.N.N.N.N.N.N.N.N.N.N.N.N.N.N.",
"N.N.N.N.N.N.N.N.N.N.N.N.N.N.N.N.N.N.N.N.N.4.F y.N.N.N.N.N.N.N.N.N.N.N.N.N.N.N.N.N.N.N.N.N.N.y.Z F d.N.N.N.N.N.N.N.N.N.N.N.N.N.N.N.N.N.N.",
"N.N.N.N.N.N.N.N.N.N.N.N.N.N.N.N.N.N.N.N.N.3.D t.N.N.N.N.N.p.y.N.N.N.u.p.N.N.N.N.N.N.N.N.N.N.r.C S s.N.N.N.N.N.N.N.N.N.N.N.N.N.N.N.N.N.N.",
"N.N.N.N.N.N.N.N.N.N.N.N.N.N.N.N.N.N.N.N.N.N.d.N.N.d.N.N.5.z , F e.%., : 5.N.N.N.N.N.N.N.r.m M F D n Z u.N.N.N.N.N.N.N.N.N.N.N.N.N.N.N.N.",
"N.N.N.N.N.N.N.N.N.N.N.N.N.N.N.N.N.N.N.N.N.N.N.N.2.G =.=., a K 4 $ 4 k a , &.=.` *.N.N.N.y.S S D D Z %.p.N.N.N.N.N.N.N.N.N.N.N.N.N.N.N.N.",
"N.N.N.N.N.N.N.N.N.N.N.N.N.N.N.N.N.N.N.N.N.N.N.q.; e y @ 4 :.1.@.o o.1.>.4 @ y y ; q.N.N.N.N.r.C S s.N.N.N.N.N.N.N.N.N.N.N.N.N.N.N.N.N.N.",
"N.N.N.N.N.N.N.N.N.N.N.N.N.N.N.N.N.N.N.N.N.N.N.C y $.$.K e <.1.;.o #.1.1.4 a $.$.i N d.N.N.N.y.D &.d.N.N.N.N.N.N.N.N.N.N.N.N.N.N.N.N.N.N.",
"N.N.N.N.N.N.N.N.N.N.N.N.N.N.N.N.N.N.N.d.3.S N ; P 1.1.#.3 @.1.;.o #.1.$.= O.1.1.Q @ m S 2.d.N.t.u.N.N.N.N.N.N.N.N.N.N.N.N.N.N.N.N.N.N.N.",
"N.N.N.N.N.N.N.N.N.N.N.N.N.N.N.N.N.N.N.e.o 4 d y a >.1.1.i L 1.;.o #.1.I 4 1.1.<.a 4 d y o 4.N.N.N.N.N.N.N.N.N.N.N.N.N.N.N.N.N.N.N.N.N.N.",
"N.N.N.N.N.N.N.N.N.N.N.N.N.N.N.N.d.s.N.r.u O.1.#.4 P <.1.P i >.;.o #.<.p K 1.1.I 4 #.1.<.e %.N.N.N.N.N.N.N.N.N.N.N.N.N.N.N.N.N.N.N.N.N.N.",
"N.N.N.N.N.N.N.N.N.N.N.N.N.N.N.N.%.C e.y.c W 1.1.Q 4 +.1.#.4 @.;.o #.#.4 #.1.@.3 Q 1.1.1.i M y.N.N.N.N.N.N.N.N.N.N.N.N.N.N.N.N.N.N.N.N.N.",
"N.N.N.N.N.N.N.N.N.N.N.N.N.N.N.N.2.l M y.C = +.1.<.f y >.:.y I ;.o #.Q e <.:.i d :.1.1.Q = . z &.s.N.N.N.N.N.N.N.N.N.N.N.N.N.N.N.N.N.N.N.",
"N.N.N.N.N.N.N.N.N.N.N.N.N.N.N.N.d.3.z Z q.C ; L ,.$.r f :.K a #.o +.d f ,.K y $.1.#.k = P +.i @ 2.N.N.N.N.N.N.N.N.N.N.N.N.N.N.N.N.N.N.N.",
"N.N.N.N.N.N.N.N.N.N.N.N.N.N.N.N.N.N.4., C a.7.v s $.+.# Q O.4 +.o I y Q Q = O.<.+.y i +.1.1.#.t 2.N.N.N.N.N.N.N.N.N.N.N.N.N.N.N.N.N.N.N.",
"N.N.N.N.N.N.N.N.N.N.N.N.N.N.N.N.N.N.N.-.l / J.x.B i @.P 4 Q y I o K t Q 4 f $.L 4 K $.1.1.1.O.u 4.N.N.N.N.N.N.N.N.N.N.N.N.N.N.N.N.N.N.N.",
"N.N.N.N.N.N.N.N.N.N.N.N.N.N.N.N.N.N.N.B.9.v ) J.m.) = P 4 = @ = . 4 i r a #.p 4 o.<.1.1.$.P 4 @ =.N.N.N.N.N.N.N.N.N.N.N.N.N.N.N.N.N.N.N.",
"N.N.N.N.N.N.N.N.N.N.N.N.N.N.N.N.N.N.N.G.T.j.5 ! Y.Y.) o .   q q X . @ = P # y $.<.;.W t o # a i $ 5.N.N.N.N.N.N.N.N.N.N.N.N.N.N.N.N.N.N.",
"N.N.N.N.N.N.N.N.N.N.N.N.N.N.N.N.N.N.V.U.T.T.k.v / z.v + j X.X.X.X.g * = = a Q P i 4 t K O.<.1.>.p z N.N.N.N.N.N.N.N.N.N.N.N.N.N.N.N.N.N.",
"N.N.N.N.N.N.N.N.N.N.N.N.N.N.N.N.N.N.G.T.T.T.T.k.x E ~ - g X.X.X.X.X.j & - i 4 p P +.:.1.1.1.1.<.a N N.N.N.N.N.N.N.N.N.N.N.N.N.N.N.N.N.N.",
"N.N.N.N.N.N.N.N.N.N.N.N.N.N.N.N.N.V.K.T.T.T.T.Y.g.v ! 8 + g X.X.X.X.X.g . y f I Q o.o.o.o.o.o.P > 0.N.N.N.N.N.N.N.N.N.N.N.N.N.N.N.N.N.N.",
"N.N.N.N.N.N.N.N.N.N.N.N.N.N.N.N.N.S.U.T.T.T.T.T.T.l.8 O 6 o w X.X.X.X.X.. @ = = = = = = = = = # z r.N.N.N.N.N.N.N.N.N.N.N.N.N.N.N.N.N.N.",
"N.N.N.N.N.N.N.N.N.N.N.N.N.N.N.N.d.f.P.J.P.T.T.T.T.T.( 6 ] H o h X.X.X.X.* i #.:.1.1.1.1.1.1.1.#.4 2.N.N.N.N.N.N.N.N.N.N.N.N.N.N.N.N.N.N.",
"N.N.N.N.N.N.N.N.N.N.N.N.N.N.N.N.e.A | R z.T.T.T.T.T.6.H { ] J o g X.X.X.* = 4 i L @.:.1.1.1.1.1.a z N.N.N.N.N.N.N.N.N.N.N.N.N.N.N.N.N.N.",
"N.N.N.N.N.N.N.N.N.N.N.N.N.N.N.N.p._ % x m.T.T.T.T.T.j.1 Y } ] J . g X.... = P I p 4 i P #.1.1.$.r C N.N.N.N.N.N.N.N.N.N.N.N.N.N.N.N.N.N.",
"N.N.N.N.N.N.N.N.N.N.N.N.N.N.N.N.w.V b 9 k.T.T.T.T.T.P.E 2 Y [ ' < + h w + a 4 I $.#.P y = p L i m e.N.N.N.N.N.N.N.N.N.N.N.N.N.N.N.N.N.N.",
"N.N.N.N.N.N.N.N.N.N.N.N.N.N.N.N.p.a.J.x.M.T.T.T.T.T.T.T. .v 0 % . b - @ ; K I 4 a $.1.1.$.K 4 , 5.N.N.N.N.N.N.N.N.N.N.N.N.N.N.N.N.N.N.N.",
"N.N.N.N.N.N.N.N.N.N.N.N.N.N.N.N.N.S.U.T.T.T.T.T.T.T.T.T.Y.c.k.| 5 R R ! ^ = +.+.y i O.<.1.1.o.u 4.N.N.N.N.N.N.N.N.N.N.N.N.N.N.N.N.N.N.N.",
"N.N.N.N.N.N.N.N.N.N.N.N.N.N.N.N.N.Z.L.T.T.T.T.T.T.T.T.T.T.T.T.T.g.9 R c.J.^ y $.$.d 4 L ,.1.O.4 2.N.N.N.N.N.N.N.N.N.N.N.N.N.N.N.N.N.N.N.",
"N.N.N.N.N.N.N.N.N.N.N.N.N.N.N.N.N.B.H.T.T.T.T.T.T.T.T.T.P.6.U | Y.g.9 ( P.b.B d :.,.o.e i f = : 0.N.N.N.N.N.N.N.N.N.N.N.N.N.N.N.N.N.N.N.",
"N.N.N.N.N.N.N.N.N.N.N.N.N.N.N.N.N.N.Z.T.T.T.T.T.T.T.T.T.8.9 | 8  .Y.h.9 ) J.z.v L 1.1.$.4 : %.r.d.N.N.N.N.N.N.N.N.N.N.N.N.N.N.N.N.N.N.N.",
"N.N.N.N.N.N.N.N.N.N.N.N.N.N.N.N.N.N.N.H.P.l.P.T.T.T.T.T.| T b.U E T.T.k.8 E n.g.5 O.1.1.i D N.N.N.N.N.N.N.N.N.N.N.N.N.N.N.N.N.N.N.N.N.N.",
"N.N.N.N.N.N.N.N.N.N.N.N.N.N.N.N.N.N.N.Z.v.) c.T.T.T.T.T.j.v R 7 g.T.T.T.6.7 ) n./ 4 P I = &.N.N.N.N.N.N.N.N.N.N.N.N.N.N.N.N.N.N.N.N.N.N.",
"N.N.N.N.N.N.N.N.N.N.N.N.N.N.N.N.N.N.N.B.A.v.P.T.T.T.T.T.P.k.6.k.Y.T.T.T.P.g.9 / i.S N c , w.N.N.N.N.N.N.N.N.N.N.N.N.N.N.N.N.N.N.N.N.N.N.",
"N.N.N.N.N.N.N.N.N.N.N.N.N.N.N.N.N.N.N.N.B.F.U.T.T.T.T.T.T.T.Y.T.T.T.T.T.T.T.8.5 C p.p.y.t.N.N.N.N.N.N.N.N.N.N.N.N.N.N.N.N.N.N.N.N.N.N.N.",
"N.N.N.N.N.N.N.N.N.N.N.N.N.N.N.N.N.N.N.N.N.N.Z.H.U.T.T.T.T.T.T.T.T.T.T.T.U.K.Z.=., C e.N.N.N.N.N.N.N.N.N.N.N.N.N.N.N.N.N.N.N.N.N.N.N.N.N.",
"N.N.N.N.N.N.N.N.N.N.N.N.N.N.N.N.N.N.N.N.N.N.N.V.F.H.U.T.T.T.T.T.T.T.U.K.D.V.N.N.=.: N t.N.N.N.N.N.N.N.N.N.N.N.N.N.N.N.N.N.N.N.N.N.N.N.N.",
"N.N.N.N.N.N.N.N.N.N.N.N.N.N.N.N.N.N.N.N.N.N.N.N.N.V.S.G.H.K.K.K.H.G.D.C.N.N.N.N.d.D m w.N.N.N.N.N.N.N.N.N.N.N.N.N.N.N.N.N.N.N.N.N.N.N.N.",
"N.N.N.N.N.N.N.N.N.N.N.N.N.N.N.N.N.N.N.N.N.N.N.N.N.N.N.B.V.V.V.V.V.B.N.N.N.N.N.N.N.s.r.d.N.N.N.N.N.N.N.N.N.N.N.N.N.N.N.N.N.N.N.N.N.N.N.N.",
"N.N.N.N.N.N.N.N.N.N.N.N.N.N.N.N.N.N.N.N.N.N.N.N.N.N.N.N.N.N.N.N.N.N.N.N.N.N.N.N.N.N.N.N.N.N.N.N.N.N.N.N.N.N.N.N.N.N.N.N.N.N.N.N.N.N.N.N.",
"N.N.N.N.N.N.N.N.N.N.N.N.N.N.N.N.N.N.N.N.N.N.N.N.N.N.N.N.N.N.N.N.N.N.N.N.N.N.N.N.N.N.N.N.N.N.N.N.N.N.N.N.N.N.N.N.N.N.N.N.N.N.N.N.N.N.N.N.",
"N.N.N.N.N.N.N.N.N.N.N.N.N.N.N.N.N.N.N.N.N.N.N.N.N.N.N.N.N.N.N.N.N.N.N.N.N.N.N.N.N.N.N.N.N.N.N.N.N.N.N.N.N.N.N.N.N.N.N.N.N.N.N.N.N.N.N.N.",
"N.N.N.N.N.N.N.N.N.N.N.N.N.N.N.N.N.N.N.N.N.N.N.N.N.N.N.N.N.N.N.N.N.N.N.N.N.N.N.N.N.N.N.N.N.N.N.N.N.N.N.N.N.N.N.N.N.N.N.N.N.N.N.N.N.N.N.N.",
"N.N.N.N.N.N.N.N.N.N.N.N.N.N.N.N.N.N.N.N.N.N.N.N.N.N.N.N.N.N.N.N.N.N.N.N.N.N.N.N.N.N.N.N.N.N.N.N.N.N.N.N.N.N.N.N.N.N.N.N.N.N.N.N.N.N.N.N.",
"N.N.N.N.N.N.N.N.N.N.N.N.N.N.N.N.N.N.N.N.N.N.N.N.N.N.N.N.N.N.N.N.N.N.N.N.N.N.N.N.N.N.N.N.N.N.N.N.N.N.N.N.N.N.N.N.N.N.N.N.N.N.N.N.N.N.N.N.",
"N.N.N.N.N.N.N.N.N.N.N.N.N.N.N.N.N.N.N.N.N.N.N.N.N.N.N.N.N.N.N.N.N.N.N.N.N.N.N.N.N.N.N.N.N.N.N.N.N.N.N.N.N.N.N.N.N.N.N.N.N.N.N.N.N.N.N.N.",
"N.N.N.N.N.N.N.N.N.N.N.N.N.N.N.N.N.N.N.N.N.N.N.N.N.N.N.N.N.N.N.N.N.N.N.N.N.N.N.N.N.N.N.N.N.N.N.N.N.N.N.N.N.N.N.N.N.N.N.N.N.N.N.N.N.N.N.N.",
"N.N.N.N.N.N.N.N.N.N.N.N.N.N.N.N.N.N.N.N.N.N.N.N.N.N.N.N.N.N.N.N.N.N.N.N.N.N.N.N.N.N.N.N.N.N.N.N.N.N.N.N.N.N.N.N.N.N.N.N.N.N.N.N.N.N.N.N.",
"N.N.N.N.N.N.N.N.N.N.N.N.N.N.N.N.N.N.N.N.N.N.N.N.N.N.N.N.N.N.N.N.N.N.N.N.N.N.N.N.N.N.N.N.N.N.N.N.N.N.N.N.N.N.N.N.N.N.N.N.N.N.N.N.N.N.N.N.",
"N.N.N.N.N.N.N.N.N.N.N.N.N.N.N.N.N.N.N.N.N.N.N.N.N.N.N.N.N.N.N.N.N.N.N.N.N.N.N.N.N.N.N.N.N.N.N.N.N.N.N.N.N.N.N.N.N.N.N.N.N.N.N.N.N.N.N.N.",
"N.N.N.N.N.N.N.N.N.N.N.N.N.N.N.N.N.N.N.N.N.N.N.N.N.N.N.N.N.N.N.N.N.N.N.N.N.N.N.N.N.N.N.N.N.N.N.N.N.N.N.N.N.N.N.N.N.N.N.N.N.N.N.N.N.N.N.N.",
"N.N.N.N.N.N.N.N.N.N.N.N.N.N.N.N.N.N.N.N.N.N.N.N.N.N.N.N.N.N.N.N.N.N.N.N.N.N.N.N.N.N.N.N.N.N.N.N.N.N.N.N.N.N.N.N.N.N.N.N.N.N.N.N.N.N.N.N.",
"N.N.N.N.N.N.N.N.N.N.N.N.N.N.N.N.N.N.N.N.N.N.N.N.N.N.N.N.N.N.N.N.N.N.N.N.N.N.N.N.N.N.N.N.N.N.N.N.N.N.N.N.N.N.N.N.N.N.N.N.N.N.N.N.N.N.N.N."
};
