/* XPM */
static char *e96f9effd3e14893f93863da9e939762QmSQACuWlr7cj6o3[] = {
/* columns rows colors chars-per-pixel */
"68 68 26 1 ",
"  c #4F1D4C",
". c #542654",
"X c #5A2F5C",
"o c #5F3864",
"O c #603864",
"+ c #66416B",
"@ c #65416C",
"# c #6C4A73",
"$ c #6B4A74",
"% c #6C4A74",
"& c #71537B",
"* c #71537C",
"= c #765C83",
"- c #775C84",
"; c #7C658B",
": c #7C658C",
"> c #816E93",
", c #87779B",
"< c #8C80A3",
"1 c #9289AB",
"2 c #9792B3",
"3 c #9892B3",
"4 c #9D9BBB",
"5 c #A3A4C3",
"6 c #A4A4C3",
"7 c #A9ADCB",
/* pixels */
"77777777777777777777777777777777777777777777777777777777777777777777",
"77777777777777777777777777777777777777777777777777777777777777777777",
"77777777777777777777777777777777777777777777777777777777777777777777",
"77777777777777777777777777777777777777777777777777777777777777777777",
"77777777777777777777777777777777777777777777777777777777777777777777",
"77777777777777777777777777777777777777777777777777777777777777777777",
"77777777777777777777777777777777777777777777777777777777777777777777",
"77777777777777777777777777777777777777777777777777777777777777777777",
"77777777777777777777777777777777777777777777777777777777777777777777",
"77777777777777777777777777777777777777777777777777777777777777777777",
"77777777777777777777777777777777777777777777777777777777777777777777",
"77777777777777777777777777777777777777777777777777777777777777777777",
"77777777777777777777777777777777777777777777777777777777777777777777",
"77777777777777777777777777777777777777777777777777777777777777777777",
"77777777777777777777777777777777777777777777777777777777777777777777",
"77777777777777777777777777777777777777777777777777777777777777777777",
"77777777777777777777777777777777777777777777777777777777777777777777",
"777777777777777777777777754571*.O$;*OX:77777777777777777777777777777",
"7777777777777777777777771.             X**$:777777777777777777777777",
"777777777777777777771,;$                    O47777777777777777777777",
"7777777777777777777;                          O-17777777777777777777",
"7777777777777777771           X>676,X            :777777777777777777",
"777777777777777>$.           O6777777*            -47777777777777777",
"77777777777777>             X477777775X            X,777777777777777",
"77777777777774.             :777777777>              X57777777777777",
"7777777777771O              17777777774               :7777777777777",
"77777777771@                47777777777                3777777777777",
"7777777777@                 <7777777773                .,77777777777",
"7777777774                  -777777777,                  :7777777777",
"777777777*                  .477777774X                   1777777777",
"777777772                    X4777774O                    @777777777",
"77777772.                      *13<:.                      177777777",
"7777777;                                                   O77777777",
"77777777,X                                                .,77777777",
"7777777777;.                   X>@#@                    .;6777777777",
"777777777774&              ..33o7&14o3@                &677777777777",
"77777777777773X           X4;:7X7&1<&7X4;            +17777777777777",
"777777777777777,X        -X15.5@3&1=>1@7;*X        X1777777777777777",
"77777777777777774&      o71X5&,=>&1@1%,<X61      .>77777777777777777",
"7777777777777777774X   X=$5>$1@<&&1.4X4X44X>.  .;6777777777777777777",
"77777777777777777777,X 17;O4@>@,X&>@*,$:2X37: +477777777777777777777",
"7777777777777777777774,X:5;X1X,@.%&$X;&,X44@+17777777777777777777777",
"777777777777777777777774=X,,X>O..XXO@X*X3-X,777777777777777777777777",
"77777777777777777777777774&X<X@.     @O-X;67777777777777777777777777",
"777777777777777777777777777,X@        X+4777777777777777777777777777",
"77777777777777777777777777777>X      +177777777777777777777777777777",
"7777777777777777777777777777774&   .>7777777777777777777777777777777",
"77777777777777777777777777777777;  377777777777777777777777777777777",
"7777777777777777777777777777777;    17777777777777777777777777777777",
"77777777777777777777777777777774X  *77777777777777777777777777777777",
"77777777777777777777777777777777736777777777777777777777777777777777",
"77777777777777777777777777777777777777777777777777777777777777777777",
"77777777777777777777777777777777777777777777777777777777777777777777",
"77777777777777777777777777777777777777777777777777777777777777777777",
"77777777777777777777777777777777777777777777777777777777777777777777",
"77777777777777777777777777777777777777777777777777777777777777777777",
"77777777777777777777777777777777777777777777777777777777777777777777",
"77777777777777777777777777777777777777777777777777777777777777777777",
"77777777777777777777777777777777777777777777777777777777777777777777",
"77777777777777777777777777777777777777777777777777777777777777777777",
"77777777777777777777777777777777777777777777777777777777777777777777",
"77777777777777777777777777777777777777777777777777777777777777777777",
"77777777777777777777777777777777777777777777777777777777777777777777",
"77777777777777777777777777777777777777777777777777777777777777777777",
"77777777777777777777777777777777777777777777777777777777777777777777",
"77777777777777777777777777777777777777777777777777777777777777777777",
"77777777777777777777777777777777777777777777777777777777777777777777",
"77777777777777777777777777777777777777777777777777777777777777777777"
};
