/* XPM */
static char *a9461cd2b6f64f7c8a34c562a83be17ag4yXGJsT0pGuVQgR[] = {
/* columns rows colors chars-per-pixel */
"68 68 28 1 ",
"  c #4F1D4C",
". c #552654",
"X c #5A2F5C",
"o c #5F3864",
"O c #603863",
"+ c #603864",
"@ c #66416B",
"# c #66416C",
"$ c #6B4A73",
"% c #6C4A73",
"& c #6B4A74",
"* c #6C4A74",
"= c #71537B",
"- c #71537C",
"; c #775C83",
": c #765C84",
"> c #7C658B",
", c #7C658C",
"< c #826E93",
"1 c #87779B",
"2 c #8D80A3",
"3 c #9289AB",
"4 c #9792B3",
"5 c #9892B3",
"6 c #9D9BBB",
"7 c #A3A4C3",
"8 c #A4A4C3",
"9 c #A9ADCB",
/* pixels */
"99999999999999999999999999999999999999999999999999999999999999999999",
"99999999999999999999999999999999999999999999999999999999999999999999",
"99999999999999999999999999999999999999999999999999999999999999999999",
"99999999999999999999999999999999999999999999999999999999999999999999",
"99999999999999999999999999999999999999999999999999999999999999999999",
"99999999999999999999999999999999999999999999999999999999999999999999",
"99999999999999999999999999999999999999999999999999999999999999999999",
"99999999999999999999999999999999999999999999999999999999999999999999",
"99999999999999999999999999999999999999999999999999999999999999999999",
"99999999999999999999999999999999999999999999999999999999999999999999",
"99999999999999999999999999999999999999999999999999999999999999999999",
"99999999999999999999999999999999999999999999999999999999999999999999",
"99999999999999999999999999999999999999999999999999999999999999999999",
"99999999999999999999999999999999999999999999999999999999999999999999",
"99999999999999999999999999999999999999999999999999999999999999999999",
"99999999999999999999999999999999999999999999999999999999999999999999",
"99999999999999999999999999996<-X.  .+&<69999999999999999999999999999",
"999999999999999999999999991#            +199999999999999999999999999",
"9999999999999999999999993X                X1999999999999999999999999",
"99999999999999999999997:       .O###.       :79999999999999999999999",
"9999999999999999999996+     @<699999951X     X6999999999999999999999",
"999999999999999999996X    +399992X7999992X    X699999999999999999999",
"99999999999999999999X    :9999793,69369999>    +79999999999999999999",
"9999999999999999999:    1999997X #,9-%99999<    :9999999999999999999",
"9999999999999999991    <999999966,1<:59999991    3999999999999999999",
"999999999999999999X   ,9999997:+$.o3999999999;   X999999999999999999",
"999999999999999991   X9999999968<XX,9999999999+   199999999999999999",
"99999999999999999#   2994699999:+<>-X3999999993   #99999999999999999",
"99999999999999996   X9696%62,3#>6#>9> +>9999999#   69999999999999999",
"99999999999999991   11#>;+>2+:9992199869971:+59<   <9999999999999999",
"9999999999999999*   5<#+%###29999999992-6926=596   =9999999999999999",
"9999999999999999+  .993+<>X#6994----597$299#2299.  X9999999999999999",
"9999999999999999.  #945#:&$;o99=:66;=9931<##X 59+  .9999999999999999",
"9999999999999999   #96$=--+<899=6996=7*=+1XXo 59#   9999999999999999",
"9999999999999999   #999<#>>=999=6996=99182#+&.69#   9999999999999999",
"9999999999999999.  o999<&>>=999=:66:=99>o&#+$.69#  .9999999999999999",
"9999999999999999X  .999<+&X=9995====5961$=>*& 69.  o9999999999999999",
"9999999999999999=   6995X9><9999999999*=><252=25   %9999999999999999",
"9999999999999999<   <95=697X195593<9265=1<O X.:1   19999999999999999",
"99999999999999996   #999999999><3>+5*1999998669+   69999999999999999",
"99999999999999999#   399999995 -&<,&X&799999993   #99999999999999999",
"999999999999999991   +99999999&O+<,1&#59999999X   199999999999999999",
"999999999999999999X   :9999999#>$#X>@2>999999>   X999999999999999999",
"9999999999999999993    1999999>1>&Xo#&5999991    1999999999999999999",
"9999999999999999999;    199999>.;;#62<:99991    :9999999999999999999",
"99999999999999999997+    ,99997+61o91#9999:    X99999999999999999999",
"999999999999999999996X    X3991.6>.99O793+    X699999999999999999999",
"9999999999999999999996X     X159998996<#     +6999999999999999999999",
"99999999999999999999997;       .###+.       :89999999999999999999999",
"9999999999999999999999991X                X3999999999999999999999999",
"999999999999999999999999991O            @199999999999999999999999999",
"99999999999999999999999999996<$O.  .X=<69999999999999999999999999999",
"99999999999999999999999999999999999999999999999999999999999999999999",
"99999999999999999999999999999999999999999999999999999999999999999999",
"99999999999999999999999999999999999999999999999999999999999999999999",
"99999999999999999999999999999999999999999999999999999999999999999999",
"99999999999999999999999999999999999999999999999999999999999999999999",
"99999999999999999999999999999999999999999999999999999999999999999999",
"99999999999999999999999999999999999999999999999999999999999999999999",
"99999999999999999999999999999999999999999999999999999999999999999999",
"99999999999999999999999999999999999999999999999999999999999999999999",
"99999999999999999999999999999999999999999999999999999999999999999999",
"99999999999999999999999999999999999999999999999999999999999999999999",
"99999999999999999999999999999999999999999999999999999999999999999999",
"99999999999999999999999999999999999999999999999999999999999999999999",
"99999999999999999999999999999999999999999999999999999999999999999999",
"99999999999999999999999999999999999999999999999999999999999999999999",
"99999999999999999999999999999999999999999999999999999999999999999999"
};
