/* XPM */
static char *_6b9051b87634ae7a99767b2b26d4e296kMtrVnY4E13zleW[] = {
/* columns rows colors chars-per-pixel */
"68 68 108 2 ",
"   c #4C241D",
".  c #501F39",
"X  c #4D2224",
"o  c #4E212B",
"O  c #532726",
"+  c #562820",
"@  c #512C27",
"#  c #573028",
"$  c #4F2132",
"%  c #5A2A30",
"&  c #582F31",
"*  c #573432",
"=  c #5E3332",
"-  c #5C3833",
";  c #5C3D3B",
":  c #5C3D3C",
">  c #61342C",
",  c #73332A",
"<  c #72342A",
"1  c #7C382E",
"2  c #612D39",
"3  c #623C33",
"4  c #623C34",
"5  c #6E483F",
"6  c #521D47",
"7  c #531C4E",
"8  c #541B55",
"9  c #551A5C",
"0  c #682F43",
"q  c #683043",
"w  c #6F334D",
"e  c #70324D",
"r  c #773556",
"t  c #7D385F",
"y  c #561963",
"u  c #581671",
"i  c #5A147F",
"p  c #7D3860",
"a  c #614546",
"s  c #79544A",
"d  c #674C51",
"f  c #684C51",
"g  c #6D5151",
"h  c #6D555B",
"j  c #725D65",
"k  c #776570",
"l  c #7C6D7A",
"z  c #863B31",
"x  c #853C31",
"c  c #A3473C",
"v  c #AC4B3F",
"b  c #843B69",
"n  c #843C69",
"m  c #8B3E73",
"M  c #8C3E72",
"N  c #BF5346",
"B  c #846055",
"V  c #92417C",
"C  c #8F6C61",
"Z  c #9A786D",
"A  c #836D72",
"S  c #D35B4C",
"D  c #DC5F4F",
"F  c #E66353",
"G  c #A58477",
"H  c #A58578",
"J  c #5B1386",
"K  c #5C128D",
"L  c #994485",
"P  c #A0478F",
"I  c #A74A98",
"U  c #A84A99",
"Y  c #827684",
"T  c #877E8E",
"R  c #887E8F",
"E  c #AF4DA2",
"W  c #B650AB",
"Q  c #BD53B5",
"!  c #938187",
"~  c #8D8699",
"^  c #B09183",
"/  c #BC9C8E",
"(  c #938EA3",
")  c #9897AD",
"_  c #9E9FB7",
"`  c #AFA2A8",
"'  c #C7A899",
"]  c #D2B5A5",
"[  c #DDC1B0",
"{  c #E3C9BA",
"}  c #E9CDBB",
"|  c #A3A7C2",
" . c #A8ABC3",
".. c #AEAFC4",
"X. c #B4B2C5",
"o. c #BAB7C6",
"O. c #C0BAC7",
"+. c #C6BEC8",
"@. c #CBC2C9",
"#. c #D1C6CA",
"$. c #D7CACB",
"%. c #DDCECC",
"&. c #E8D5CE",
"*. c #F4D9C7",
"=. c #F3DDD0",
"-. c #F4DDD0",
";. c #F9E1D1",
":. c #FFE5D2",
/* pixels */
"| | | | | | | | | | | | | | | | | | | | | | | | | | | | | | | | | | | | | | | | | | | | | | | | | | | | | | | | | | | | | | | | | | | | ",
"| | | | | | | | | | | | | | | | | | | | | | | | | | | | | | | | | | | | | | | | | | | | | | | | | | | | | | | | | | | | | | | | | | | | ",
"| | | | | | | | | | | | | | | | | | | | | | | | | | | | | | | | | | | | | | | | | | | | | | | | | | | | | | | | | | | | | | | | | | | | ",
"| | | | | | | | | | | | | | | | | | | | | | | | | | | | | | | | | | | | | | | | | | | | | | | | | | | | | | | | | | | | | | | | | | | | ",
"| | | | | | | | | | | | | | | | | | | | | | | | | | | | | | | | | | | | | | | | | | | | | | | | | | | | | | | | | | | | | | | | | | | | ",
"| | | | | | | | | | | | | | | | | | | | | | | | | | | | | | | | | | | | | | | | | | | | | | | | | | | | | | | | | | | | | | | | | | | | ",
"| | | | | | | | | | | | | | | | | | | | | | | | | | | | | | | | | | | | | | | | | | | | | | | | | | | | | | | | | | | | | | | | | | | | ",
"| | | | | | | | | | | | | | | | | | | | | | | | | | | | | | | | | | | | | | | | | | | | | | | | | | | | | | | | | | | | | | | | | | | | ",
"| | | | | | | | | | | | | | | | | | | | | | | | | | | | | | | | | | | | | | | | | | | | | | | | | | | | | | | | | | | | | | | | | | | | ",
"| | | | | | | | | | | | | | | | | | | | | | | | | | | | | | | | | | | | | | | | | | | | | | | | | | | | | | | | | | | | | | | | | | | | ",
"| | | | | | | | | | | | | | | | | | | | | | | | | | | | | | | | | | | | | | | | | | | | | | | | | | | | | | | | | | | | | | | | | | | | ",
"| | | | | | | | | | | | | | | | | | | | | | | | | | | | | | | | | | | | | | | | | | | | | | | | | | | | | | | | | | | | | | | | | | | | ",
"| | | | | | | | | | | | | | | | | | | | | | | | | | | | | | | | | | | | | | | | | | | | | | | | | | | | | | | | | | | | | | | | | | | | ",
"| | | | | | | | | | | | | | | | | | | | | | | | | | | | | | | | | | | | | | | | | | | | | | | | Y _ | | | | | | | | | | | | | | | | | | ",
"| | | | | | | | | | | | | | | | | | | | : T | | | | | | | | | | | | | | | | | | | | | | | | | | * ) | | | | | | | | | | | | | | | | | | ",
"| | | | | | | | | | | | | | | | | | | | ( _ | | | | | | _ ) | | | | ( _ | | | | | | | | | | | | d _ | | | | | | | | | | | | | | | | | | ",
"| | | | | | | | | | | | | | | | | | | | | | | | | | | ) *   h ) ~ a O : _ | | | | | | | | Y * h | Y * h | | | | | | | | | | | | | | | | ",
"| | | | | | | | | | | | | | | | | | | | | | | l R ( ) * b E r   O b W b : ) ( Y Y | | | | | ) _ Y _ ) _ | | | | | | | | | | | | | | | | ",
"| | | | | | | | | | | | | | | | | | | | | | Y % e 2   p Q Q Q r V Q Q Q w O 2 r O ~ | | | | | | * ) | | | | | | | | | | | | | | | | | | ",
"| | | | | | | | | | | | | | | | | | | | | | * P Q Q V q Q Q Q r V Q Q Q % U Q Q b a | | | | | | h _ | | | | | | | | | | | | | | | | | | ",
"| | | | | | | | | | | | | | | | | | _ ( Y h 0 Q Q Q W O W Q Q r V Q Q U % Q Q Q W O j R ( | | | | | | | | | | | | | | | | | | | | | | | ",
"| | | | | | | | | | | | | | | | | | f O r b O E Q Q Q q P Q Q r V Q Q M r Q Q Q U % t 0 % j | | | | | | | | | | | | | | | | | | | | | | ",
"| | | | | | | | | | | | | | | | | | h m Q Q M q Q Q Q M r Q Q r V Q Q 2 P Q Q E % V Q Q L a | | | | | | | | | | | | | | | | | | | | | | ",
"| | | | | | | | | | | | | | _ ) | | l t Q Q Q q m Q Q W O Q Q r V Q E % Q Q Q r t Q Q Q E @ | | | | | | | | | | | | | | | | | | | | | | ",
"| | | | | | | | | | | | | | Y * ) | R 2 W Q Q E O P Q Q q P Q r V Q V r Q Q M % Q Q Q Q E   Y | | | | | | | | | | | | | | | | | | | | | ",
"| | | | | | | | | | | | | | | k * ) | k % E Q Q P % W Q b t Q r V Q q L Q E % E Q Q Q M % b r * Y | | | | | | | | | | | | | | | | | | | ",
"| | | | | | | | | | | | | | | | k * ) | l & m Q Q p r Q E O Q r V E O Q Q % M Q Q W w 2 E Q Q U @ | | | | | | | | | | | | | | | | | | | ",
"| | | | | | | | | | | | | | | | | k * ) %.} 3 n Q W 2 m Q % P r V V w Q n r Q Q P % t Q Q Q Q P a | | | | | | | | | | | | | | | | | | | ",
"| | | | | | | | | | | | | | | | | | k - } :.*.C 2 E E % E b b r V w V L % E Q n O P Q Q Q Q Q L d | | | | | | | | | | | | | | | | | | | ",
"| | | | | | | | | | | | | | | | | | #.H 4 } :.:.H % P r % q O % p   U % U E q 0 E Q Q Q Q P n 2 : _ | | | | | | | | | | | | | | | | | | ",
"| | | | | | | | | | | | | | | | | o.:.:.H 4 } :.:./   X 7 y y 8 o O w b L O M Q Q Q P t % % t P b : _ | | | | | | | | | | | | | | | | | ",
"| | | | | | | | | | | | | | | | | =.:.:.:.H 4 } *.3 8 K K K K K K 9 X r % U W P t O 0 b U Q Q Q Q p d | | | | | | | | | | | | | | | | | ",
"| | | | | | | | | | | | | | | | +.:.:.:.:.:.H 4 } C $ J K K K K K K u   m w O 0 M W Q Q Q Q Q Q Q r Y | | | | | | | | | | | | | | | | | ",
"| | | | | | | | | | | | | | | | &.:.:.:.:.:.:.H 4 } B $ J K K K K K K 7 % V W Q Q Q Q Q Q Q Q Q E * | | | | | | | | | | | | | | | | | | ",
"| | | | | | | | | | | | | | |  .:.:.:.:.:.:.:.:.H 4 3 1 $ J K K K K K J   % % % % % % % % % % % O l | | | | | | | | | | | | | | | | | | ",
"| | | | | | | | | | | | | | | o.:.:.:.:.:.:.:.:.:.Z , F z $ J K K K K K o P E E E E E E E E E E L a | | | | | | | | | | | | | | | | | | ",
"| | | | | | | | | | | | | | | ! *.[ ] :.:.:.:.:.:./ x F F z $ J K K K K . % r P Q Q Q Q Q Q Q Q Q q ~ | | | | | | | | | | | | | | | | | ",
"| | | | | | | | | | | | | | | A 5 3 [ :.:.:.:.:.:.] < F F F z $ J K K K X L V 2 % r I Q Q Q Q Q Q p d | | | | | | | | | | | | | | | | | ",
"| | | | | | | | | | | | | | | ` # 5 *.:.:.:.:.:.:.*.3 N F F F z $ J K i O % P Q E t % % m E Q Q n * ) | | | | | | | | | | | | | | | | | ",
"| | | | | | | | | | | | | | | g [ H ^ :.:.:.:.:.:.:.[ > v S D c + $ J 6 w P % n Q Q Q P r % q r * ) | | | | | | | | | | | | | | | | | | ",
"| | | | | | | | | | | | | | | +.:.:.:.:.:.:.:.:.:.:.:.} C # #   / C o 4 = E E e % E Q Q Q Q P e h | | | | | | | | | | | | | | | | | | | ",
"| | | | | | | | | | | | | | | X.:.:.:.:.:.:.:.:.:.:.:.:.:.:.:.H 4 } H } / % W Q b % V Q Q Q Q P ; | | | | | | | | | | | | | | | | | | | ",
"| | | | | | | | | | | | | | | | ;.:.:.:.:.:.:.:.:.:.:.:.:.:.:.:.H 4 } :.:.Z w Q Q E % p W Q Q U @ | | | | | | | | | | | | | | | | | | | ",
"| | | | | | | | | | | | | | | | #.:.:.:.:.:.:.:.:.:.:.:.] Z / :.:.H 4 } :.:.5 m Q Q W p % I n O j | | | | | | | | | | | | | | | | | | | ",
"| | | | | | | | | | | | | | | | ..:.:.:.:.:.:.:.:.:.:.} # ^ B G :.:.H 4 } :.} 3 P Q Q Q V   h ) | | | | | | | | | | | | | | | | | | | | ",
"| | | | | | | | | | | | | | | | | $.:.:.*.:.:.:.:.:.:./ C :.} 4 :.:.:.H 4 } :.] % E Q Q W @ | | | | | | | | | | | | | | | | | | | | | | ",
"| | | | | | | | | | | | | | | | |  .-.G B :.:.:.:.:.:.] 4 ' Z C :.:.:.:.H 4 } :.^ 2 E Q P a | | | | | | | | | | | | | | | | | | | | | | ",
"| | | | | | | | | | | | | | | | | | X.{ *.:.:.:.:.:.:.:./ s H *.:.:.:.:.:.H 4 } $.j @   O d | | | | | | | | | | | | | | | | | | | | | | ",
"| | | | | | | | | | | | | | | | | | | X.;.:.:.:.:.:.:.:.:.:.:.:.:.:.:.:.:.:.H 4 ) | | _ ( _ | | | | | | | | | | | | | | | | | | | | | | ",
"| | | | | | | | | | | | | | | | | | | | ..-.:.:.:.:.:.:.:.:.:.:.:.:.:.:.:.:.#.k * ) | | | | | | | | | | | | | | | | | | | | | | | | | | ",
"| | | | | | | | | | | | | | | | | | | | |  .$.:.:.:.:.:.:.:.:.:.:.:.:.:.&.o.| | k * ) | | | | | | | | | | | | | | | | | | | | | | | | | ",
"| | | | | | | | | | | | | | | | | | | | | | | ..%.-.:.:.:.:.:.:.:.:.&.o.| | | | | k * _ | | | | | | | | | | | | | | | | | | | | | | | | ",
"| | | | | | | | | | | | | | | | | | | | | | | | | | X.O.#.#.#.@.o. .| | | | | | | | Y ) | | | | | | | | | | | | | | | | | | | | | | | | ",
"| | | | | | | | | | | | | | | | | | | | | | | | | | | | | | | | | | | | | | | | | | | | | | | | | | | | | | | | | | | | | | | | | | | | ",
"| | | | | | | | | | | | | | | | | | | | | | | | | | | | | | | | | | | | | | | | | | | | | | | | | | | | | | | | | | | | | | | | | | | | ",
"| | | | | | | | | | | | | | | | | | | | | | | | | | | | | | | | | | | | | | | | | | | | | | | | | | | | | | | | | | | | | | | | | | | | ",
"| | | | | | | | | | | | | | | | | | | | | | | | | | | | | | | | | | | | | | | | | | | | | | | | | | | | | | | | | | | | | | | | | | | | ",
"| | | | | | | | | | | | | | | | | | | | | | | | | | | | | | | | | | | | | | | | | | | | | | | | | | | | | | | | | | | | | | | | | | | | ",
"| | | | | | | | | | | | | | | | | | | | | | | | | | | | | | | | | | | | | | | | | | | | | | | | | | | | | | | | | | | | | | | | | | | | ",
"| | | | | | | | | | | | | | | | | | | | | | | | | | | | | | | | | | | | | | | | | | | | | | | | | | | | | | | | | | | | | | | | | | | | ",
"| | | | | | | | | | | | | | | | | | | | | | | | | | | | | | | | | | | | | | | | | | | | | | | | | | | | | | | | | | | | | | | | | | | | ",
"| | | | | | | | | | | | | | | | | | | | | | | | | | | | | | | | | | | | | | | | | | | | | | | | | | | | | | | | | | | | | | | | | | | | ",
"| | | | | | | | | | | | | | | | | | | | | | | | | | | | | | | | | | | | | | | | | | | | | | | | | | | | | | | | | | | | | | | | | | | | ",
"| | | | | | | | | | | | | | | | | | | | | | | | | | | | | | | | | | | | | | | | | | | | | | | | | | | | | | | | | | | | | | | | | | | | ",
"| | | | | | | | | | | | | | | | | | | | | | | | | | | | | | | | | | | | | | | | | | | | | | | | | | | | | | | | | | | | | | | | | | | | ",
"| | | | | | | | | | | | | | | | | | | | | | | | | | | | | | | | | | | | | | | | | | | | | | | | | | | | | | | | | | | | | | | | | | | | ",
"| | | | | | | | | | | | | | | | | | | | | | | | | | | | | | | | | | | | | | | | | | | | | | | | | | | | | | | | | | | | | | | | | | | | ",
"| | | | | | | | | | | | | | | | | | | | | | | | | | | | | | | | | | | | | | | | | | | | | | | | | | | | | | | | | | | | | | | | | | | | "
};
