/* XPM */
static char *_bfa3c8ef3114fc2a65ada5bdbfb7e40itfiDGZtUxLmXA9W[] = {
/* columns rows colors chars-per-pixel */
"68 68 200 2 ",
"   c #231F20",
".  c #252122",
"X  c #2A2425",
"o  c #272529",
"O  c #2A2629",
"+  c #2C2A2D",
"@  c #302427",
"#  c #302729",
"$  c #332A2B",
"%  c #3D2A2D",
"&  c #39312A",
"*  c #2D2C31",
"=  c #312F34",
"-  c #3C2F32",
";  c #343136",
":  c #3E3334",
">  c #35353B",
",  c #39373C",
"<  c #3A393F",
"1  c #413822",
"2  c #442C31",
"3  c #463134",
"4  c #4D3136",
"5  c #453539",
"6  c #4D3538",
"7  c #523239",
"8  c #5B353D",
"9  c #55383C",
"0  c #4C4433",
"q  c #655832",
"w  c #3B3C44",
"e  c #383C47",
"r  c #413E46",
"t  c #483F46",
"y  c #513E42",
"u  c #5C3C41",
"i  c #663943",
"p  c #773F4B",
"a  c #3D404A",
"s  c #3E4451",
"d  c #43434B",
"f  c #49464A",
"g  c #584849",
"h  c #494B56",
"j  c #4C4A54",
"k  c #434A5B",
"l  c #5F4D51",
"z  c #504F59",
"x  c #4F525E",
"c  c #52515C",
"v  c #694448",
"b  c #7A424E",
"n  c #754A4F",
"m  c #7B4C53",
"M  c #6A5559",
"N  c #73565B",
"B  c #7C7049",
"V  c #464E60",
"C  c #4A5264",
"Z  c #555561",
"A  c #575B69",
"S  c #5D5D6B",
"D  c #575F72",
"F  c #625760",
"G  c #765F63",
"H  c #7D5962",
"J  c #5D6474",
"K  c #5E6678",
"L  c #60606E",
"P  c #7C6D6C",
"I  c #656574",
"U  c #656877",
"Y  c #636A7C",
"T  c #6A6A7A",
"R  c #786D77",
"E  c #85722F",
"W  c #874655",
"Q  c #924A5A",
"!  c #89555B",
"~  c #9E4F61",
"^  c #815D64",
"/  c #855F68",
"(  c #9A5D65",
")  c #A45264",
"_  c #A05668",
"`  c #AC5568",
"'  c #B6596D",
"]  c #88666D",
"[  c #886873",
"{  c #956A74",
"}  c #8C7075",
"|  c #93757B",
" . c #A6636C",
".. c #B06971",
"X. c #BD7079",
"o. c #C45E75",
"O. c #C86077",
"+. c #C86579",
"@. c #D4657E",
"#. c #C5737D",
"$. c #B2972E",
"%. c #BDA12F",
"&. c #EDC934",
"*. c #F3CE35",
"=. c #FFD836",
"-. c #A38C77",
";. c #FFD544",
":. c #F7CF57",
">. c #FFE05D",
",. c #FBCF71",
"<. c #FBE278",
"1. c #666E80",
"2. c #6E6E80",
"3. c #6A7284",
"4. c #727385",
"5. c #757689",
"6. c #76798D",
"7. c #797A8D",
"8. c #777F94",
"9. c #7C7E92",
"0. c #9E7F85",
"q. c #B27284",
"w. c #D27A85",
"e. c #D97B8B",
"r. c #E26B85",
"t. c #EA6E89",
"y. c #EA7A8D",
"u. c #F3718E",
"i. c #FF7694",
"p. c #F47D9B",
"a. c #FF7E98",
"s. c #7E8095",
"d. c #928B85",
"f. c #808196",
"g. c #83859B",
"h. c #86889F",
"j. c #B6838E",
"k. c #B99F87",
"l. c #AB8A97",
"z. c #BA8A94",
"x. c #BD979D",
"c. c #868AA2",
"v. c #8A8CA3",
"b. c #898EA9",
"n. c #8D90A7",
"m. c #8E91AA",
"M. c #9294AE",
"N. c #9396B0",
"B. c #969AB4",
"V. c #989BB6",
"C. c #9A9EB9",
"Z. c #9EA1BD",
"A. c #B0AAB3",
"S. c #D38592",
"D. c #E1828E",
"F. c #EA8793",
"G. c #FF8399",
"H. c #F58E99",
"J. c #FF8C9D",
"K. c #FF929F",
"L. c #FFB99C",
"P. c #C596A2",
"I. c #D899A8",
"U. c #D497B2",
"Y. c #EA92A9",
"T. c #E899AB",
"R. c #CFA4AC",
"E. c #C3A6BE",
"W. c #D9AAB3",
"Q. c #DAABB3",
"!. c #FAB5AA",
"~. c #E5AAB7",
"^. c #F6A9BA",
"/. c #E9B2B4",
"(. c #FFE885",
"). c #FFE489",
"_. c #EBC9A9",
"`. c #FFCDA1",
"'. c #FCD9B7",
"]. c #A2A5C1",
"[. c #A5A9C6",
"{. c #A7ABC9",
"}. c #A9ADCB",
"|. c #B7AAC5",
" X c #BAB3CD",
".X c #D5AEC6",
"XX c #C7B4C9",
"oX c #D5B6CB",
"OX c #FFAEC1",
"+X c #EBBCC4",
"@X c #F3B4C2",
"#X c #FFB2C3",
"$X c #FFBCCA",
"%X c #FDC2CD",
"&X c #F7CECD",
"*X c #FFCECF",
"=X c #FFC7D1",
"-X c #FFCAD3",
";X c #FEE5CB",
":X c #FDF4E7",
/* pixels */
"}.}.}.}.}.}.}.}.}.}.}.}.}.}.}.}.}.}.}.}.}.}.}.}.}.}.}.}.}.}.}.}.}.}.}.}.}.}.}.}.}.}.}.}.}.}.}.}.}.}.}.}.}.}.}.}.}.}.}.}.}.}.}.}.}.}.}.}.",
"}.}.}.}.}.}.}.}.}.}.}.}.}.}.}.}.}.}.}.}.}.}.}.}.}.}.}.}.}.}.}.}.}.}.}.}.}.}.}.}.}.}.}.}.}.}.}.}.}.}.}.}.}.}.}.}.}.}.}.}.}.}.}.}.}.}.}.}.",
"}.}.}.}.}.}.}.}.}.}.}.}.}.}.}.}.}.}.}.}.}.}.}.}.}.}.}.}.}.}.}.}.}.}.}.}.}.}.}.}.}.}.}.}.}.}.}.}.}.}.}.}.}.}.}.}.}.}.}.}.}.}.}.}.}.}.}.}.",
"}.}.}.}.}.}.}.}.}.}.}.}.}.}.}.}.}.}.}.}.}.}.}.}.}.}.}.}.}.}.}.}.}.}.}.}.}.}.}.}.}.}.}.}.}.}.}.}.}.}.}.}.}.}.}.}.}.}.}.}.}.}.}.}.}.}.}.}.",
"}.}.}.}.}.}.}.}.}.}.}.}.}.}.}.}.}.}.}.}.}.}.}.}.}.}.}.}.}.}.}.}.}.}.}.}.}.}.}.}.}.}.}.}.}.}.}.}.}.}.}.}.}.}.}.}.}.}.}.}.}.}.}.}.}.}.}.}.",
"}.}.}.}.}.}.}.}.}.}.}.}.}.}.}.}.}.}.}.}.}.}.}.}.}.}.}.}.}.}.}.}.}.}.}.}.}.}.}.}.}.}.}.}.}.}.}.}.}.}.}.}.}.}.}.}.}.}.}.}.}.}.}.}.}.}.}.}.",
"}.}.}.}.}.}.}.}.}.}.}.}.}.}.}.}.}.}.}.}.}.}.}.}.}.}.}.}.}.}.}.}.}.}.}.}.}.}.}.}.}.}.}.}.}.}.}.}.}.}.}.}.}.}.}.}.}.}.}.}.}.}.}.}.}.}.}.}.",
"}.}.}.}.}.}.}.}.}.}.}.}.}.}.}.}.}.}.}.}.}.}.}.}.}.}.}.}.}.}.}.}.}.}.}.}.}.}.}.}.}.}.}.}.}.}.}.}.}.}.}.}.}.}.}.}.}.}.}.}.}.}.}.}.}.}.}.}.",
"}.}.}.}.}.}.}.}.}.}.}.}.}.}.}.}.}.}.}.}.}.}.}.}.}.}.}.}.}.}.}.}.}.}.}.}.}.}.}.}.}.}.}.}.}.}.}.}.}.}.}.}.}.}.}.}.}.}.}.}.}.}.}.}.}.}.}.}.",
"}.}.}.}.}.}.}.}.}.}.2.O r 4.V.}.}.}.}.}.}.}.}.}.}.}.}.}.}.}.}.}.m.V.}.}.}.}.}.}.}.}.}.}.}.}.}.}.}.}.}.}.}.}.Z.T r X 2.}.}.}.}.}.}.}.}.}.",
"}.}.}.}.}.}.}.}.}.}.X < ;   , [.}.}.}.}.}.}.}.}.}.}.}.}.}.}.}.m.  + N.Z.+ v.}.}.}.}.}.}.}.}.}.}.}.}.}.B.I d   . * * O }.}.}.}.}.}.}.}.}.",
"}.}.}.}.}.}.}.}.}.}.d ; 1.J J 3.8.m.].4.5.m.}.}.}.}.}.}.}.}.}.j : : f ~.- j }.}.}.}.}.}.}.}.}.m.5.c =   . * w k V + r }.}.}.}.}.}.}.}.}.",
"}.}.}.}.}.}.}.}.}.}.4.  A 1.1.1.1.1.1.=     . r S T g.M.C.[.}.. } /.~.OX] X }.}.}.}.}.4.S w .     + d x C V V V V = 7.}.}.}.}.}.}.}.}.}.",
"}.}.}.}.}.}.}.}.}.}.].O d 1.1.1.1.1.1.1.J A d ; *           +   x.-X%XOXj.. m.C.N.m.6.X + , d Z U 1.1.Y V V V V V V.}.}.}.}.}.}.}.}.}.}.",
"}.}.}.}.}.}.}.}.}.}.}.A X Y 1.1.1.1.1.1.1.1.1.1.1.Y x R R F d   z.-X$XOXz.  , O . . = Y 1.1.1.1.1.1.1.A V V V V J }.}.}.}.}.}.}.}.}.}.}.",
"}.}.}.}.}.}.}.}.}.}.}.N.. d 1.1.1.1.1.1.1.1.1.1.1.A   P.-X-X+XO [ R.j.S.^   # ^ q.{ F 1.1.1.1.1.1.1.Y C V V V V c.}.}.}.}.}.}.}.}.}.}.}.",
"}.}.}.}.}.}.}.}.}.}.}.}.f X Y 1.1.1.1.1.1.1.1.1.1.1.+ l -X-X%XM X .     X M @XOXOX^.4.1.1.1.1.1.1.1.D V V V V C }.}.}.}.}.}.}.}.}.}.}.}.",
"}.}.}.}.}.}.}.}.}.}.}.}.v.  d 1.1.1.1.1.1.1.1.1.J >   M -X%XOXN + A.'.-.$ x.-X#XOXOXl.4.1.1.1.1.1.Y C V V V , . {.}.}.}.}.}.}.}.}.}.}.}.",
"}.}.}.}.}.}.}.}.}.}.}.}.}.I   * > > > > > > > > =   M %X-X#XOX. P :X;X'._.*X-X%XOXOX{ X > a 1.1.Y C w * * o   I }.}.}.}.}.}.}.}.}.}.}.}.",
"}.}.}.}.}.}.}.}.}.}.}.}.}.}.S   6 6 6 6 6 6 6 6 6 3   G W.#XOX  d.:X;X'.k.N ~.#XI.N   3 6 v K.K.i.i.) 4 4   S }.}.}.}.}.}.}.}.}.}.}.}.}.",
"}.}.}.}.}.}.}.}.}.}.}.}.}.}.4.. K.K.K.K.K.K.K.K.K.K.( %   O :   f :X'._.:     #   # ( K.K.K.K.K.i.i.i.i.i.. 4.}.}.}.}.}.}.}.}.}.}.}.}.}.",
"}.}.}.}.}.}.}.}.}.}.}.}.}.}.7.  F.K.K.K.K.K.K.K.K.K.K.K.u   M | j.*Xg . & I.H   8 H.K.K.K.K.K.K.i.i.i.i.r.  s.}.}.}.}.}.}.}.}.}.}.}.}.}.",
"}.}.}.}.}.}.}.}.}.}.}.}.}.}.Z.X ! K.K.K.K.K.K.K.K.K.K.D.  ] -X%XOX^.X q *.L.OX^ O e.K.K.K.K.K.J.i.i.i.i.W   V.}.}.}.}.}.}.}.}.}.}.}.}.}.",
"}.}.}.}.}.}.}.}.}.}.}.}.}.}.}.d   n w.D.D.D.D.D.D.D.D.n $ +X-X$XOXI.. $.=.:.OX^.# m K.K.K.D.D.r.r.r.@.b   L }.}.}.}.}.}.}.}.}.}.}.}.}.}.",
"}.}.}.}.}.}.}.}.}.}.}.}.}. X.XH 5                       M -X-X#XOX^   &.=.=.^.^.N $ U.U.P.            X I }.}.}.}.}.}.}.}.}.}.}.}.}.}.}.",
"}.}.}.}.}.}.}.}.}.}.}.}..XOXOX#XR.  ,   #.o.~   5.h.h.. # . I.OXT.. E ;.:.;.^   X   }.}.N.  ( O.o.  L ].}.}.}.}.}.}.}.}.}.}.}.}.}.}.}.}.",
"}.}.}.}.}.}.}.}.}.}.}..XOXOX#X=Xl.  Z   J.i.@.  m.}.}.9.d . !.OX/.B :.;.!.OXO   d 4.}.}.v.  w.i.i.  I }.}.}.}.}.}.}.}.}.}.}.}.}.}.}.}.}.",
"}.}.}.}.}.}.}.}.}.}.g.I.OX#X=X-Xl < S X J.i.r.  h.}.}.}.4.. `.`.).(.>.=.=.,.    4.}.}.}.h.  D.i.i.X S }.}.}.}.}.}.}.}.}.}.}.}.}.}.}.}.}.",
"}.}.}.}.}.}.}.}.}.}.O $ y ~.-X0.  6.Z $ J.i.r.  9.}.}.}.4.. (.(.(.(.>.=.=.=.&.. 4.}.}.}.f.  D.i.i.% Z }.}.}.}.}.}.}.}.}.}.}.}.}.}.}.}.}.",
"}.}.}.}.}.}.}.}.}.}.4.Z . } |   r N.j 3 K.i.r.  5.}.}.}.4.. (.(.(.(.>.=.=.=.=.. U N.N.N.T   D.a.i.2 j N.Z.}.}.}.}.}.}.}.}.}.}.}.}.}.}.}.",
"}.}.}.}.}.}.}.}.}.}.}.}.X             9 K.i.t.  [ U.U.U.[ . (.(.(.(.>.=.=.=.=..             F.a.i.7       S }.}.}.}.}.}.}.}.}.}.}.}.}.}.",
"}.}.}.}.}.}.}.}.}.}.}.}.4.S U   W O.8 u K.i.i.  Q i.i.i.) . (.(.(.(.>.=.=.=.=.. W O.O.O.p   K.G.i.i 7 O.Q   c.}.}.}.}.}.}.}.}.}.}.}.}.}.",
"}.}.}.}.}.}.}.}.}.}.}.}.}.}.4.  i.i.8 v K.i.i.X Q i.i.i.) . (.(.(.(.>.=.=.=.=.. ) i.i.i.Q X K.G.u.7 3 +.u.. 4.}.}.}.}.}.}.}.}.}.}.}.}.}.",
"}.}.}.}.}.}.}.}.}.}.}.}.}.}.5.  r.i.7 n K.i.i.% Q i.i.i.) . (.(.(.(.>.=.=.=.=.. ) i.i.i.Q $ K.y.%       @   9.}.}.}.}.}.}.}.}.}.}.}.}.}.",
"}.}.}.}.}.}.}.}.}.}.}.}.}.}.].; X % . n K.a.i.2 @ % % % @ . (.(.(.(.>.=.=.=.=.. _ p.p.p.m 3 K.+.  I.+XR.G . > V.}.}.}.}.}.}.}.}.}.}.}.}.",
"}.}.}.}.}.}.}.}.}.}.}.}.}.}.}.V.T S X m K.a.i.4 > S S S f . <.(.(.(.>.=.=.=.*.. 4.}.}.}.Z 9 K.y.X { #X=X-XW.# j }.}.}.}.}.}.}.}.}.}.}.}.",
"}.}.}.}.}.}.}.}.}.}.}.}.}.}.}.}.}.}.. ! K.a.i.8 z }.}.}.n.  & 0 q <.;.=.=.%.1   V.}.}.}.j u K.G.i y OX#X%X%X|   h.}.}.}.}.}.}.}.}.}.}.}.",
"}.}.}.}.}.}.}.}.}.}.}.}.}.}.}.}.}.}.  ( K.a.i.8 f }.}.}.}.f.j j S }.}.}.}.m.z h.}.}.}.}.d u K.G.t.e.OXOXOXy   . c.}.}.}.}.}.}.}.}.}.}.}.",
"}.}.}.}.}.}.}.}.}.}.}.}.}.}.}.}.}.}.   .K.G.i.i w }.}.}.}.}.}.}.}.}.}.}.}.}.}.}.}.}.}.}.w u K.J.i.i.~.OXOX: j Z.}.}.}.}.}.}.}.}.}.}.}.}.",
"}.}.}.}.}.}.}.}.}.}.}.}.}.}.}.}.}.[.  ..K.G.i.p ; }.}.}.}.}.}.}.}.}.}.}.}.}.}.}.}.}.}.}.T  .K.J.i.' O |.E.. j }.}.}.}.}.}.}.}.}.}.}.}.}.",
"}.}.}.}.}.}.}.}.}.}.}.}.}.}.}.}.}.Z.  X.K.G.i.b ; }.}.}.}.}.}.}.}.}.}.}.}.}.}.}.}.}.}.}.|.K.K.J.i.'   Z.}.f.].}.}.}.}.}.}.}.}.}.}.}.}.}.",
"}.}.}.}.}.}.}.}.}.}.}.}.}.}.}.}.}.M.  w.K.G.i.W ; }.}.}.}.}.}.}.}.}.}.}.}.}.}.}.}.}.}.}.|.K.K.J.i.o.  V.}.}.}.}.}.}.}.}.}.}.}.}.}.}.}.}.",
"}.}.}.}.}.}.}.}.}.}.}.}.}.}.}.}.}.v.  w.K.G.i.Q + }.}.}.I , j h.}.}.}.}.}.}.}.}.}.}.}.}.|.K.K.J.i.O.  M.}.}.}.}.}.}.}.}.}.}.}.}.}.}.}.}.",
"}.}.}.}.}.}.}.}.}.}.}.}.}.}.}.}.}.h.  D.K.J.i.) X }.}.}.; - :   I }.}.}.}.}.}.}.}.}.}.}.E.K.K.J.i.O.  c.}.}.}.}.}.}.}.}.}.}.}.}.}.}.}.}.",
"}.}.}.}.}.}.}.}.}.}.}.}.}.}.}.}.}.9.  D.K.J.i.`   [.m.c O g OX{   I }.}.}.}.}.}.}.}.}.{.t #.K.J.i.@.  s.}.}.}.}.}.}.}.}.}.}.}.}.}.}.}.}.",
"}.}.}.}.}.}.}.}.}.}.}.}.}.}.}.}.}.4.  D.K.J.i.`   C.A - G W.#XOX/ . B.}.}.}.}.}.}.}.}.Z.  ..K.K.i.r.  6.}.}.}.}.}.}.}.}.}.}.}.}.}.}.}.}.",
"}.}.}.}.}.}.}.}.}.}.}.}.}.}.}.}.}.f.5 H.K.J.i.`   B.[.XX-X-X=X#X^.# I }.}.}.}.}.}.}.}.M.  ..K.K.i.t.  5.}.}.}.}.}.}.}.}.}.}.}.}.}.}.}.}.",
"}.}.}.}.}.}.}.}.}.}.}.}.}.}.}.}.}.}.T.K.K.J.i.'   m.}.}.oX-X-X-X$XH w }.}.}.}.}.}.}.}.v.  X.K.K.i.i.q.[.}.}.}.}.}.}.}.}.}.}.}.}.}.}.}.}.",
"}.}.}.}.}.}.}.}.}.}.}.}.}.}.}.}.}.}.T.K.K.J.i.O.  c.}.}.}.XX&X-X-X$X].}.}.}.}.}.}.}.}.h.  #.K.K.i.i.F.}.}.}.}.}.}.}.}.}.}.}.}.}.}.}.}.}.",
"}.}.}.}.}.}.}.}.}.}.}.}.}.}.}.}.}.}.Y.K.K.J.i.@.  c.}.}.}.}.}. X X X}.}.}.}.}.}.}.}.}.s.  w.K.K.i.i.p.}.}.}.}.}.}.}.}.}.}.}.}.}.}.}.}.}.",
"}.}.}.}.}.}.}.}.}.}.}.}.}.}.}.}.}.}.Y.K.K.K.i.r.  g.}.}.}.}.}.}.}.}.}.}.}.}.}.}.}.}.}.6.  D.K.K.i.i.p.}.}.}.}.}.}.}.}.}.}.}.}.}.}.}.}.}.",
"}.}.}.}.}.}.}.}.}.}.}.}.}.}.}.}.g.c u u u u 8 7   j V.}.}.}.}.}.}.}.}.}.}.}.}.}.}.}.M.j   u u u 8 8 u z s.}.}.}.}.}.}.}.}.}.}.}.}.}.}.}.",
"}.}.}.}.}.}.}.}.}.}.}.}.}.}.}.I   + = = = * + + + X . c.}.}.}.}.}.}.}.}.}.}.}.}.}.f.O o = = = * + + + o   I }.}.}.}.}.}.}.}.}.}.}.}.}.}.",
"}.}.}.}.}.}.}.}.}.}.}.}.}.}.N.  f 1.1.1.1.J V V V k + + [.}.}.}.}.}.}.}.}.}.}.}.}.; = Y 1.1.1.K V V V V > . m.}.}.}.}.}.}.}.}.}.}.}.}.}.",
"}.}.}.}.}.}.}.}.}.}.}.}.}.}.4.. Y 1.1.1.1.1.V V V V a   B.}.}.}.}.}.}.}.}.}.}.}.N.  Z 1.1.1.1.1.C V V V k . 4.}.}.}.}.}.}.}.}.}.}.}.}.}.",
"}.}.}.}.}.}.}.}.}.}.}.}.}.}.T O 1.1.1.1.1.1.C V V V s   M.}.}.}.}.}.}.}.}.}.}.}.M.  A 1.1.1.1.1.C V V V V X T }.}.}.}.}.}.}.}.}.}.}.}.}.",
"}.}.}.}.}.}.}.}.}.}.}.}.}.}.4.X h h h h J Y V V V k >   M.}.}.}.}.}.}.}.}.}.}.}.B.  w Y 1.1.1.1.C e w w w . 5.}.}.}.}.}.}.}.}.}.}.}.}.}.",
"}.}.}.}.}.}.}.}.}.}.}.}.}.}.].r .       T m.b.b.b.6.X I }.}.}.}.}.}.}.}.}.}.}.}.}.S o g.V.V.V.M.v.;     . d V.}.}.}.}.}.}.}.}.}.}.}.}.}.",
"}.}.}.}.}.}.}.}.}.}.}.}.}.}.}.}.}.}.}.}.}.}.}.}.}.}.}.}.}.}.}.}.}.}.}.}.}.}.}.}.}.}.}.}.}.}.}.}.}.}.}.}.}.}.}.}.}.}.}.}.}.}.}.}.}.}.}.}.",
"}.}.}.}.}.}.}.}.}.}.}.}.}.}.}.}.}.}.}.}.}.}.}.}.}.}.}.}.}.}.}.}.}.}.}.}.}.}.}.}.}.}.}.}.}.}.}.}.}.}.}.}.}.}.}.}.}.}.}.}.}.}.}.}.}.}.}.}.",
"}.}.}.}.}.}.}.}.}.}.}.}.}.}.}.}.}.}.}.}.}.}.}.}.}.}.}.}.}.}.}.}.}.}.}.}.}.}.}.}.}.}.}.}.}.}.}.}.}.}.}.}.}.}.}.}.}.}.}.}.}.}.}.}.}.}.}.}.",
"}.}.}.}.}.}.}.}.}.}.}.}.}.}.}.}.}.}.}.}.}.}.}.}.}.}.}.}.}.}.}.}.}.}.}.}.}.}.}.}.}.}.}.}.}.}.}.}.}.}.}.}.}.}.}.}.}.}.}.}.}.}.}.}.}.}.}.}.",
"}.}.}.}.}.}.}.}.}.}.}.}.}.}.}.}.}.}.}.}.}.}.}.}.}.}.}.}.}.}.}.}.}.}.}.}.}.}.}.}.}.}.}.}.}.}.}.}.}.}.}.}.}.}.}.}.}.}.}.}.}.}.}.}.}.}.}.}.",
"}.}.}.}.}.}.}.}.}.}.}.}.}.}.}.}.}.}.}.}.}.}.}.}.}.}.}.}.}.}.}.}.}.}.}.}.}.}.}.}.}.}.}.}.}.}.}.}.}.}.}.}.}.}.}.}.}.}.}.}.}.}.}.}.}.}.}.}.",
"}.}.}.}.}.}.}.}.}.}.}.}.}.}.}.}.}.}.}.}.}.}.}.}.}.}.}.}.}.}.}.}.}.}.}.}.}.}.}.}.}.}.}.}.}.}.}.}.}.}.}.}.}.}.}.}.}.}.}.}.}.}.}.}.}.}.}.}.",
"}.}.}.}.}.}.}.}.}.}.}.}.}.}.}.}.}.}.}.}.}.}.}.}.}.}.}.}.}.}.}.}.}.}.}.}.}.}.}.}.}.}.}.}.}.}.}.}.}.}.}.}.}.}.}.}.}.}.}.}.}.}.}.}.}.}.}.}.",
"}.}.}.}.}.}.}.}.}.}.}.}.}.}.}.}.}.}.}.}.}.}.}.}.}.}.}.}.}.}.}.}.}.}.}.}.}.}.}.}.}.}.}.}.}.}.}.}.}.}.}.}.}.}.}.}.}.}.}.}.}.}.}.}.}.}.}.}.",
"}.}.}.}.}.}.}.}.}.}.}.}.}.}.}.}.}.}.}.}.}.}.}.}.}.}.}.}.}.}.}.}.}.}.}.}.}.}.}.}.}.}.}.}.}.}.}.}.}.}.}.}.}.}.}.}.}.}.}.}.}.}.}.}.}.}.}.}."
};
