/* XPM */
static char *c8ee1d5574b34573c1629943f98acddfAJnwoGOO2nd65pfL[] = {
/* columns rows colors chars-per-pixel */
"68 68 70 1 ",
"  c #000000",
". c #070708",
"X c #0B0C0E",
"o c #0E0F11",
"O c #121215",
"+ c #151619",
"@ c #17181C",
"# c #19191D",
"$ c #1D1E23",
"% c #1F2025",
"& c #202126",
"* c #23242A",
"= c #2B2C33",
"- c #2F3139",
"; c #33343D",
": c #363741",
"> c #373942",
", c #393B44",
"< c #3D3E48",
"1 c #3F414B",
"2 c #42434F",
"3 c #444652",
"4 c #474955",
"5 c #494B57",
"6 c #4C4E5B",
"7 c #4F515E",
"8 c #50525F",
"9 c #535563",
"0 c #565967",
"q c #5B5D6C",
"w c #5D606F",
"e c #5F6170",
"r c #616373",
"t c #646778",
"y c #656879",
"u c #6A6D7E",
"i c #6D6F81",
"p c #6E7082",
"a c #717386",
"s c #737689",
"d c #76798D",
"f c #787A8E",
"g c #7A7D91",
"h c #7C7F95",
"j c #7D8095",
"k c #808398",
"l c #808499",
"z c #84879E",
"x c #878BA0",
"c c #898BA3",
"v c #898DA3",
"b c #898DA4",
"n c #8C8FA7",
"m c #8C90A6",
"M c #8E92AA",
"N c #9093AB",
"B c #9093AC",
"V c #9295AD",
"C c #9497B0",
"Z c #969AB3",
"A c #979BB4",
"S c #989BB4",
"D c #989CB6",
"F c #9B9FB8",
"G c #9C9FB9",
"H c #9DA0BB",
"J c #9EA2BC",
"K c #A0A3BE",
"L c #A0A4BF",
"P c #A9ADCB",
/* pixels */
"PPPPPPPPPPPPPPPPPPPPPPPPPPPPPPPPPPPPPPPPPPPPPPPPPPPPPPPPPPPPPPPPPPPP",
"PPPPPPPPPPPPPPPPPPPPPPPPPPPPPPPPPPPPPPPPPPPPPPPPPPPPPPPPPPPPPPPPPPPP",
"PPPPPPPPPPPPPPPPPPPPPPPPPPPPPPPPPPPPPPPPPPPPPPPPPPPPPPPPPPPPPPPPPPPP",
"PPPPPPPPPPPPPPPPPPPPPPPPPPPPPPPPPPPPPPPPPPPPPPPPPPPPPPPPPPPPPPPPPPPP",
"PPPPPPPPPPPPPPPPPPPPPPPPPPPPPPPPPPPPPPPPPPPPPPPPPPPPPPPPPPPPPPPPPPPP",
"PPPPPPPPPPPPPPPPPPPPPPPPZwo=sPPPPPPPPPPPs=owZPPPPPPPPPPPPPPPPPPPPPPP",
"PPPPPPPPPPPPPPPPPPPPPPPPb&6#rPPPPPPPPPPPr$7&bPPPPPPPPPPPPPPPPPPPPPPP",
"PPPPPPPPPPPPPPPPPPPPPPPPb%429q444444444q9<4%bPPPPPPPPPPPPPPPPPPPPPPP",
"PPPPPPPPPPPPPPPPPPPPPPPPZ931;#         @;439VPPPPPPPPPPPPPPPPPPPPPPP",
"PPPPPPPPPPPPPPPPPPPPPPPPLAi#             $iSPPPPPPPPPPPPPPPPPPPPPPPP",
"PPPPPPPPPPPPPPPPPPPPPPPPPPP=             =PPPPPPPPPPPPPPPPPPPPPPPPPP",
"PPPPPPPPPPPPPPPPPPPPPPPPPPP=             =PPPPPPPPPPPPPPPPPPPPPPPPPP",
"PPPPPPPPPPPPPPPPPPPPPPPPPPP=             =PPPPPPPPPPPPPPPPPPPPPPPPPP",
"PPPPPPPPPPPPPPPPPPPPPPPPPPP=  .=0qqq0=.  =PPPPPPPPPPPPPPPPPPPPPPPPPP",
"PPPPPPPPPPPPPPPPPLSladxDPPP=  X9JPPPJ9X  =PPPFvdalALPPPPPPPPPPPPPPPP",
"PPPPPPPPPPPPPPPPPZd- O3kPPP=  X9JPPPJ9X  =PPPk4+ -sZPPPPPPPPPPPPPPPP",
"PPPPPPPPPPPPPPPPPs=   X6PPP2o X9JPPPJ9X o2PPP6X   =sPPPPPPPPPPPPPPPP",
"PPPPPPPPPPPPPPPPKq. ys;1PPPJDDDJPPPPPJDDDFPPP<;sy .qKPPPPPPPPPPPPPPP",
"PPPPPPPPPPPPPPPPV6 Xxy=<JxxxxxxxxxxxxxxxxxxxJ<-axX.6VPPPPPPPPPPPPPPP",
"PPPPPPPPPPPPPPPPZ0#;5636e<<<<<<<<<<<<<<<<<<<e69t8;$0ZPPPPPPPPPPPPPPP",
"PPPPPPPPPPPPPPPPPf24 *3<@                   @193$43gPPPPPPPPPPPPPPPP",
"PPPPPPPPPPPPPPPPPVp;..                         O3;iVPPPPPPPPPPPPPPPP",
"PPPPPPPPPPPPPPPPPPPPg0*                       *0gPPPPPPPPPPPPPPPPPPP",
"PPPPPPPPPPPPPPPPPPPPJe*                       *rJPPPPPPPPPPPPPPPPPPP",
"PPPPPPPPPPPPPPPPPPPPPr*                       *rPPPPPPPPPPPPPPPPPPPP",
"PPPPPPPPPPPPPPPPPPPPPr*                       *rPPPPPPPPPPPPPPPPPPPP",
"PPPPPPPPPPPPPPPPPPPPPr*                       *rPPPPPPPPPPPPPPPPPPPP",
"PPPPPPPPPPPPPPPPPPPPPr*                       *rPPPPPPPPPPPPPPPPPPPP",
"PPPPPPPPPPPPPPPPPPPPPr*                       *rPPPPPPPPPPPPPPPPPPPP",
"PPPPPPPPPPPPPPPPPPPPPr*     *22222222222*     *rPPPPPPPPPPPPPPPPPPPP",
"PPPPPPPPPPPPFvvHPPPPPr*     =tzzzzzzzzzr=     *rPPPPPGvvJPPPPPPPPPPP",
"PPPPPPPPPPVhr330sMPPPr*     =uPPPPPPPPPu=     *rPPPMs033rjVPPPPPPPPP",
"PPPPPPPPPDi<@  .=yZPPr*     =uPPPPPPPPPu=     *rPPZy=.  O<iDPPPPPPPP",
"PPPPPPPPPs&      *rPPr*     =uPPPPPPPPPu=     *rPPr*      &sPPPPPPPP",
"PPPPPPPPP>X   =X O2PPr*     =uPPPPPPPPPu=     *rPP1O X=   X>PPPPPPPP",
"PPPPPPPPP$  #qns=@4PPa1&&&&&<uPPPPPPPPPu<&&&&&1aPP3@*snq@  $PPPPPPPP",
"PPPPPPPPP@  $fPD>=uPPMgpppppfbPPPPPPPPPbfpppppgMPPi=>SPf$  @PPPPPPPP",
"PPPPPPPPP$  @uPP09MFduyyyyyyyyyyyyyyyyyyyyyyyyyudFN99PPu$  $PPPPPPPP",
"PPPPPPPPP;X X,cVsdvs*.                         .*svaaVc,o X:PPPPPPPP",
"PPPPPPPPPq#   @393=X                             X=394@   #qPPPPPPPP",
"PPPPPPPPPJ9$   ...                                 ...   $9JPPPPPPPP",
"PPPPPPPPPPMy;#.                                       .#;yVPPPPPPPPP",
"PPPPPPPPPPPCgue:O                                   O>eugCPPPPPPPPPP",
"PPPPPPPPPPPPPPPr$                                   $rPPPPPPPPPPPPPP",
"PPPPPPPPPPPPPPPr$                                   $rPPPPPPPPPPPPPP",
"PPPPPPPPPPPPPPPr$                                   $rPPPPPPPPPPPPPP",
"PPPPPPPPPPPPPPPr$                                   $rPPPPPPPPPPPPPP",
"PPPPPPPPPPPPPPPr$                                   $rPPPPPPPPPPPPPP",
"PPPPPPPPPPPPPPPr$                                   $rPPPPPPPPPPPPPP",
"PPPPPPPPPPPPPPPr$                                   $rPPPPPPPPPPPPPP",
"PPPPPPPPPPPPPPPr$                                   $rPPPPPPPPPPPPPP",
"PPPPPPPPPPPPPPPr$                                   $rPPPPPPPPPPPPPP",
"PPPPPPPPPPPPPPPr$                                   $rPPPPPPPPPPPPPP",
"PPPPPPPPPPPPPPPr$         ;699999999999996:         $rPPPPPPPPPPPPPP",
"PPPPPPPPPPPPPPPr$         6jmmmmmmmmmmmmmj6         $rPPPPPPPPPPPPPP",
"PPPPPPPPPPPPPPPr$         6MPPPPPPPPPPPPPM6         $rPPPPPPPPPPPPPP",
"PPPPPPPPPPPPPPPr$         6MPPPPPPPPPPPPPM6         $rPPPPPPPPPPPPPP",
"PPPPPPPPPPPPPPPr$         6MPPPPPPPPPPPPPM6         $rPPPPPPPPPPPPPP",
"PPPPPPPPPPPPPPPr$         6MPPPPPPPPPPPPPM6         $rPPPPPPPPPPPPPP",
"PPPPPPPPPPPPPPPr$         6MPPPPPPPPPPPPPM6         $rPPPPPPPPPPPPPP",
"PPPPPPPPPPPPPPPt%         6MPPPPPPPPPPPPPM6         &tPPPPPPPPPPPPPP",
"PPPPPPPPPPPPPPPa=.        6MPPPPPPPPPPPPPM6        .=aPPPPPPPPPPPPPP",
"PPPPPPPPPPPPPPPNq*        6MPPPPPPPPPPPPPM6        *qBPPPPPPPPPPPPPP",
"PPPPPPPPPPPPPPPPPPPPPPPPPPPPPPPPPPPPPPPPPPPPPPPPPPPPPPPPPPPPPPPPPPPP",
"PPPPPPPPPPPPPPPPPPPPPPPPPPPPPPPPPPPPPPPPPPPPPPPPPPPPPPPPPPPPPPPPPPPP",
"PPPPPPPPPPPPPPPPPPPPPPPPPPPPPPPPPPPPPPPPPPPPPPPPPPPPPPPPPPPPPPPPPPPP",
"PPPPPPPPPPPPPPPPPPPPPPPPPPPPPPPPPPPPPPPPPPPPPPPPPPPPPPPPPPPPPPPPPPPP",
"PPPPPPPPPPPPPPPPPPPPPPPPPPPPPPPPPPPPPPPPPPPPPPPPPPPPPPPPPPPPPPPPPPPP"
};
