/* XPM */
static char *c14d7369da5e41e7fa74ac67242f8f97B47O62TPZ9hqXrVC[] = {
/* columns rows colors chars-per-pixel */
"68 68 113 2 ",
"   c #767687",
".  c #767689",
"X  c #78778C",
"o  c #77788B",
"O  c #79798D",
"+  c #7C7B93",
"@  c #7F7D9A",
"#  c #807D97",
"$  c #827E9C",
"%  c #837FA1",
"&  c #7E8095",
"*  c #918C88",
"=  c #9B9587",
"-  c #818296",
";  c #8B8594",
":  c #8B8991",
">  c #83839B",
",  c #87899F",
"<  c #99969F",
"1  c #B0A586",
"2  c #B5A985",
"3  c #B1A788",
"4  c #B9AD88",
"5  c #BFB38B",
"6  c #BDAE94",
"7  c #B6A79D",
"8  c #B2AD9F",
"9  c #B8A99A",
"0  c #8581A4",
"q  c #8982A4",
"w  c #8A8CA3",
"e  c #8782AA",
"r  c #8B85AC",
"t  c #8E8CAC",
"y  c #908FA0",
"u  c #9087AC",
"i  c #9088AD",
"p  c #8F91A9",
"a  c #9893A1",
"s  c #9999A7",
"d  c #9194AD",
"f  c #9E9EA8",
"g  c #8E86B2",
"h  c #8F89B5",
"j  c #9086B5",
"k  c #9189B5",
"l  c #998DB7",
"z  c #9287B9",
"x  c #958ABC",
"c  c #9A8CBD",
"v  c #9596B2",
"b  c #9D90B7",
"n  c #9699B2",
"m  c #999CB6",
"M  c #9692BA",
"N  c #9C94BC",
"B  c #9B9EBA",
"V  c #A59FA4",
"C  c #A193B0",
"Z  c #9EA1BD",
"A  c #9EA0BE",
"S  c #A7A2A6",
"D  c #B1A3A1",
"F  c #B2ADA0",
"G  c #BAB5A9",
"H  c #A0A3BF",
"J  c #A0A4BF",
"K  c #B9AEB3",
"L  c #B2A9B9",
"P  c #BBB8B8",
"I  c #C7B886",
"U  c #CBBB85",
"Y  c #C5B58B",
"T  c #CBBC8C",
"R  c #C5BDAB",
"E  c #C0B8B7",
"W  c #CBC3A8",
"Q  c #CBC1BD",
"!  c #978DC0",
"~  c #9A8BC0",
"^  c #9C8DC3",
"/  c #9A8DC4",
"(  c #9F8FC9",
")  c #9D9DC0",
"_  c #9F90C9",
"`  c #A092C1",
"'  c #A191C4",
"]  c #A393C4",
"[  c #A494C7",
"{  c #A190CB",
"}  c #A595C8",
"|  c #A797CA",
" . c #A797CB",
".. c #A190CC",
"X. c #A997CC",
"o. c #AC9DC9",
"O. c #A898CC",
"+. c #A99ACC",
"@. c #9FA0C3",
"#. c #A1A1C3",
"$. c #A2A6C1",
"%. c #A3A7C4",
"&. c #A4A7C4",
"*. c #A5A8C6",
"=. c #A6A4CA",
"-. c #A9A6CB",
";. c #A8ABC9",
":. c #A9ADCB",
">. c #BAB7C3",
",. c #CBC3C0",
"<. c #C8C4CB",
"1. c #CBC7CD",
"2. c #CBC8D1",
/* pixels */
":.:.:.:.:.:.:.:.:.:.:.:.:.:.:.:.:.:.:.:.:.:.:.:.:.:.:.:.:.:.:.:.:.:.:.:.:.:.:.:.:.:.:.:.:.:.:.:.:.:.:.:.:.:.:.:.:.:.:.:.:.:.:.:.:.:.:.:.",
":.:.:.:.:.:.:.:.:.:.:.:.:.:.:.:.:.:.:.:.:.:.:.:.:.:.:.:.:.:.:.:.:.:.:.:.:.:.:.:.:.:.:.:.:.:.:.:.:.:.:.:.:.:.:.:.:.:.:.:.:.:.:.:.:.:.:.:.",
":.:.:.:.:.:.:.:.:.:.:.:.:.:.:.:.:.:.:.:.:.:.:.:.:.:.:.:.:.:.:.:.:.:.:.:.:.:.:.:.:.:.:.:.:.:.:.:.:.:.:.:.:.:.:.:.:.:.:.:.:.:.:.:.:.:.:.:.",
":.:.:.:.:.:.:.:.:.:.:.:.:.:.:.:.:.:.:.:.:.:.:.:.:.:.:.:.:.:.:.:.:.:.:.:.:.:.:.:.:.:.:.:.:.:.:.:.:.:.:.:.:.:.:.:.:.:.:.:.:.:.:.:.:.:.:.:.",
":.:.:.:.:.:.:.:.:.:.:.:.:.:.:.:.:.:.:.:.:.:.:.:.:.:.:.:.:.:.:.:.:.:.:.:.:.:.:.:.:.:.:.:.:.:.:.:.:.:.:.:.:.:.:.:.:.:.:.:.:.:.:.:.:.:.:.:.",
":.:.:.:.:.:.:.:.:.:.:.:.:.:.:.:.:.:.:.:.:.:.:.:.:.:.:.:.:.:.:.:.:.:.:.:.:.:.:.:.:.:.:.:.:.:.:.:.:.:.:.:.:.:.:.:.:.:.:.:.:.:.:.:.:.:.:.:.",
":.:.:.:.:.:.:.:.:.:.:.:.:.:.:.:.:.:.:.:.:.:.:.:.:.:.:.:.:.:.:.:.:.:.:.:.:.:.:.:.:.:.:.:.:.:.:.:.:.:.:.:.:.:.:.:.:.:.:.:.:.:.:.:.:.:.:.:.",
":.:.:.:.:.:.:.:.:.:.:.:.:.:.:.:.:.:.:.:.:.:.:.:.:.:.:.:.:.:.:.:.:.:.:.:.:.:.:.:.:.:.:.:.:.:.:.:.:.:.:.:.:.:.:.:.:.:.:.:.:.:.:.:.:.:.:.:.",
":.:.:.:.:.:.:.:.:.:.:.:.:.:.:.:.:.:.:.:.:.:.:.:.:.:.:.:.:.:.:.:.:.:.:.:.:.:.:.:.:.:.:.:.:.:.:.:.:.:.:.:.:.:.:.:.:.:.:.:.:.:.:.:.:.:.:.:.",
":.:.:.:.:.:.:.:.:.:.> & p $.:.:.:.:.:.:.:.:.:.:.:.:.:.:.:.:.:.:.H $.:.:.:.:.:.:.:.:.:.:.:.:.:.:.:.:.:.:.:.:.:.B p + - :.:.:.:.:.:.:.:.:.",
":.:.:.:.:.:.:.:.:.:.. $ X . m :.:.:.:.:.:.:.:.:.:.:.:.:.:.:.:.$.o + %.p + :.:.:.:.:.:.:.:.:.:.:.:.:.:.*.n w + . X + . :.:.:.:.:.:.:.:.:.",
":.:.:.:.:.:.:.:.:.:.. e h e h h M ) A d A :.:.:.:.:.:.:.:.:.:.w + + > k . n :.:.:.:.:.:.:.:.:.*.n w - . . X + @ 0 @ . :.:.:.:.:.:.:.:.:.",
":.:.:.:.:.:.:.:.:.:.> + h h h h h h 0 . . . & , p n A $.*.:.:.+ r | ^ c + w :.:.:.:.$.p w - o . . X $ 0 r 0 0 0 0 + > :.:.:.:.:.:.:.:.:.",
":.:.:.:.:.:.:.:.:.:.m . r h h h h h h h r 0 $ + X . . . . . + . l X.' c > + %.#.) N q X + @ 0 r g h h h e 0 0 0 0 v *.:.:.:.:.:.:.:.:.:.",
":.:.:.:.:.:.:.:.:.:.;.X $ h h k h h k h h h h h h q e g r q 0 . l O.' c $ X @ X . X + g h h h h h h h g 0 0 0 0 e :.:.:.:.:.:.:.:.:.:.:.",
":.:.:.:.:.:.:.:.:.:.:.d . g h h h h h h h h h h k + > X.X.X.' X q u > r + . + q r q $ g h h h h h h h e 0 0 0 0 m :.:.:.:.:.:.:.:.:.:.:.",
":.:.:.:.:.:.:.:.:.:.:.*.o $ k h h h h h h h h h k 0 . ' X.X.| > . X ;   . i [ c c c k h h h h h h h g 0 0 % 0 @ *.:.:.:.:.:.:.:.:.:.:.:.",
":.:.:.:.:.:.:.:.:.:.:.:.d . 0 r r r r r r r r r 0 . + | X.| c + y <.Q E a | X.^ c c c g r r h h h h 0 % % $ + . m :.:.:.:.:.:.:.:.:.:.:.",
":.:.:.:.:.:.:.:.:.:.:.:.:.p . . . . . . . . . . . X ` O.X.^ l . >.2.Q Q Q o.X.[ c c r . . . g ~ x g e . . . . d :.:.:.:.:.:.:.:.:.:.:.:.",
":.:.:.:.:.:.:.:.:.:.:.:.:.$.. j c c c c c c c c x X + k [ ^ l . >.2.,.Q < + l c l q . 0 c ~ { { / x x h g 0 + :.:.:.:.:.:.:.:.:.:.:.:.:.",
":.:.:.:.:.:.:.:.:.:.:.:.:.&.. l { { ......{ { { { ^ 0 . . X X . s 1.Q S . + . X . + g { { ..{ { ~ x x x x 0 & :.:.:.:.:.:.:.:.:.:.:.:.:.",
":.:.:.:.:.:.:.:.:.:.:.:.:.:.> $ { { { ....{ ....{ { { ( + + k k b L X   ; c q . 0 { { { { { { { x x x x x + w :.:.:.:.:.:.:.:.:.:.:.:.:.",
":.:.:.:.:.:.:.:.:.:.:.:.:.:.B . 0 ~ ( ( ( ( ( ( ( ( ( r . ' X.' c l . 3 I b c 0 X ( { ..{ ( ( x z z z g + X $.:.:.:.:.:.:.:.:.:.:.:.:.:.",
":.:.:.:.:.:.:.:.:.:.:.:.:.:.*.o . . . . . . . . . . . . q X.X.` c r   I U D c c X r | | k . . . . . . . & A :.:.:.:.:.:.:.:.:.:.:.:.:.:.",
":.:.:.:.:.:.:.:.:.:.:.:.;.O.| l + + X q r 0 0 . n B d . ` X.| c c + * U U 6 c c $ , :.:.d X k 0 0 + & A :.:.:.:.:.:.:.:.:.:.:.:.:.:.:.:.",
":.:.:.:.:.:.:.:.:.:.:.-.O.O.| c + w . k c h r   $.:.B . X > ' c q   5 Y Y 7 0 . . - :.:.d + { k h $ & :.:.:.:.:.:.:.:.:.:.:.:.:.:.:.:.:.",
":.:.:.:.:.:.:.:.:.:.A O.O.| c l . n . x c h r . A :.:.m > - c N V 8 T Y C c + . d J :.:.p # { k k 0 + :.:.:.:.:.:.:.:.:.:.:.:.:.:.:.:.:.",
":.:.:.:.:.:.:.:.:.:.X + > c c $ + :.. x ! h r . B :.:.:.w : K R W W T U I 9 O . $.:.:.:.w $ { k h 0 X :.:.:.:.:.:.:.:.:.:.:.:.:.:.:.:.:.",
":.:.:.:.:.:.:.:.:.:.m w . q $ . B :.. x ~ h g . B :.:.:.w : W W W W T U U U 1 . $.:.:.:.w $ ..k h 0 . :.:.:.:.:.:.:.:.:.:.:.:.:.:.:.:.:.",
":.:.:.:.:.:.:.:.:.:.:.:.. . + n d w . c ~ k g . B :.:.:.w : W W W W T U U U 2   w p p p + $ { z h e . p v %.:.:.:.:.:.:.:.:.:.:.:.:.:.:.",
":.:.:.:.:.:.:.:.:.:.:.:.m m *.+ X + . ~ ~ k k . e c c ~ > : W W W W T U U U 2 . + + + + o % { z h e . + X > :.:.:.:.:.:.:.:.:.:.:.:.:.:.",
":.:.:.:.:.:.:.:.:.:.:.:.:.:.B . ~ x . ^ ~ k h . e x x x $ : W W W W T U U U 2 . j x x x + 0 { x k r . z r . %.:.:.:.:.:.:.:.:.:.:.:.:.:.",
":.:.:.:.:.:.:.:.:.:.:.:.:.:.B . ( k . ( / k k X 0 x x x $ : W W W W T U U U 2 . j x x x + % { x e + . @ $ . $.:.:.:.:.:.:.:.:.:.:.:.:.:.",
":.:.:.:.:.:.:.:.:.:.:.:.:.:.*.X > $ . { ( k h + + 0 0 0 + : W W W W T U U U 2 . j x x x + 0 { x X # q $ X . n :.:.:.:.:.:.:.:.:.:.:.:.:.",
":.:.:.:.:.:.:.:.:.:.:.:.:.:.:.B > + X { ( k k + X - - - + : W W W W T U U U 2 . A &.*.*.& q { z . r ' X.' q . m :.:.:.:.:.:.:.:.:.:.:.:.",
":.:.:.:.:.:.:.:.:.:.:.:.:.:.:.:.:.d X { ( h k + w :.:.:.d O F 8 W W T U U 4 = . *.:.:.:.- e { c + + c ^ | O.> + :.:.:.:.:.:.:.:.:.:.:.:.",
":.:.:.:.:.:.:.:.:.:.:.:.:.:.:.:.:.d + { ( h h + w :.:.:.*.> o o f P G G G X X d :.:.:.:.+ r { c e + c c c i + . $.:.:.:.:.:.:.:.:.:.:.:.",
":.:.:.:.:.:.:.:.:.:.:.:.:.:.:.:.:.p + { _ k k @ , :.:.:.:.:.:.:.:.:.:.:.:.:.:.:.:.:.:.:.X g { ~ h h x c c X , m :.:.:.:.:.:.:.:.:.:.:.:.",
":.:.:.:.:.:.:.:.:.:.:.:.:.:.:.:.:.p + { { h h @ > :.:.:.:.:.:.:.:.:.:.:.:.:.:.:.:.:.:.:.. k { ~ h h r &.N o p :.:.:.:.:.:.:.:.:.:.:.:.:.",
":.:.:.:.:.:.:.:.:.:.:.:.:.:.:.:.:.w $ { { h h @ > :.:.:.:.:.:.:.:.:.:.:.:.:.:.:.:.:.:.:.d ( { ~ h h . n :.d &.:.:.:.:.:.:.:.:.:.:.:.:.:.",
":.:.:.:.:.:.:.:.:.:.:.:.:.:.:.:.:.w $ { { k k @ > :.:.:.:.:.:.:.:.:.:.:.:.:.:.:.:.:.:.:.=.{ { / h h X d :.:.:.:.:.:.:.:.:.:.:.:.:.:.:.:.",
":.:.:.:.:.:.:.:.:.:.:.:.:.:.:.:.:.> % { { k k $ - :.:.:.n - w $.:.:.:.:.:.:.:.:.:.:.:.:.=.{ { ( h h X p :.:.:.:.:.:.:.:.:.:.:.:.:.:.:.:.",
":.:.:.:.:.:.:.:.:.:.:.:.:.:.:.:.:.> q { { z k > + :.:.:.w X + . p :.:.:.:.:.:.:.:.:.:.:.=.{ { ( h h X p :.:.:.:.:.:.:.:.:.:.:.:.:.:.:.:.",
":.:.:.:.:.:.:.:.:.:.:.:.:.:.:.:.:.- q { { k h 0 + :.:.p + # c q . B :.:.:.:.:.:.:.:.:.:.N { { ( h h + p :.:.:.:.:.:.:.:.:.:.:.:.:.:.:.:.",
":.:.:.:.:.:.:.:.:.:.:.:.:.:.:.:.:.+ r { { z h 0 o :.$.. q ` ' c $ & :.:.:.:.:.:.:.:.:.B . ^ { _ h h + w :.:.:.:.:.:.:.:.:.:.:.:.:.:.:.:.",
":.:.:.:.:.:.:.:.:.:.:.:.:.:.:.:.:.+ r { { z h 0 . :.:.&.O.X.X.| k . A :.:.:.:.:.:.:.:.B . ( { _ k h + w :.:.:.:.:.:.:.:.:.:.:.:.:.:.:.:.",
":.:.:.:.:.:.:.:.:.:.:.:.:.:.:.:.:.#.( { { z h e . *.:.:.;.O.X.X.| > n :.:.:.:.:.:.:.:.B . ( { _ k h e B :.:.:.:.:.:.:.:.:.:.:.:.:.:.:.:.",
":.:.:.:.:.:.:.:.:.:.:.:.:.:.:.:.:.*.{ { { x h r . &.:.:.:.:.-.O.O.-.:.:.:.:.:.:.:.:.:.B . ( ..( k h h *.:.:.:.:.:.:.:.:.:.:.:.:.:.:.:.:.",
":.:.:.:.:.:.:.:.:.:.:.:.:.:.:.:.:.*...{ { x k r . A :.:.:.:.:.:.:.:.:.:.:.:.:.:.:.:.:.m . { { { k h h %.:.:.:.:.:.:.:.:.:.:.:.:.:.:.:.:.",
":.:.:.:.:.:.:.:.:.:.:.:.:.:.:.:.:.=...{ { x h r . A :.:.:.:.:.:.:.:.:.:.:.:.:.:.:.:.:.n X { { { k h h @.:.:.:.:.:.:.:.:.:.:.:.:.:.:.:.:.",
":.:.:.:.:.:.:.:.:.:.:.:.:.:.:.:.*.t e e e 0 > $ . d :.:.:.:.:.:.:.:.:.:.:.:.:.:.:.:.:.p X e e e $ $ $ t $.:.:.:.:.:.:.:.:.:.:.:.:.:.:.:.",
":.:.:.:.:.:.:.:.:.:.:.:.:.:.:.v . X X X X X X o o . w :.:.:.:.:.:.:.:.:.:.:.:.:.:.:.> . X X X o X o X . X B :.:.:.:.:.:.:.:.:.:.:.:.:.:.",
":.:.:.:.:.:.:.:.:.:.:.:.:.:.$.+ $ h h h h e 0 0 0 @ . n :.:.:.:.:.:.:.:.:.:.:.:.:.n . e h h h g 0 0 0 0 + X *.:.:.:.:.:.:.:.:.:.:.:.:.:.",
":.:.:.:.:.:.:.:.:.:.:.:.:.:.B . g h h h h r 0 0 0 0 X w :.:.:.:.:.:.:.:.:.:.:.:.:.> + h h h h h e 0 0 0 % . A :.:.:.:.:.:.:.:.:.:.:.:.:.",
":.:.:.:.:.:.:.:.:.:.:.:.:.:.m . h h h h h r 0 0 0 0 + w :.:.:.:.:.:.:.:.:.:.:.:.:.> $ h h h h h e 0 0 0 % . B :.:.:.:.:.:.:.:.:.:.:.:.:.",
":.:.:.:.:.:.:.:.:.:.:.:.:.:.A . + + + 0 h e 0 0 0 + . w :.:.:.:.:.:.:.:.:.:.:.:.:.w X 0 k h h g 0 @ + + X . $.:.:.:.:.:.:.:.:.:.:.:.:.:.",
":.:.:.:.:.:.:.:.:.:.:.:.:.:.:.n , , , m :.:.:.:.:.d p *.:.:.:.:.:.:.:.:.:.:.:.:.:.*.w d :.:.:.:.:.m w w w m :.:.:.:.:.:.:.:.:.:.:.:.:.:.",
":.:.:.:.:.:.:.:.:.:.:.:.:.:.:.:.:.:.:.:.:.:.:.:.:.:.:.:.:.:.:.:.:.:.:.:.:.:.:.:.:.:.:.:.:.:.:.:.:.:.:.:.:.:.:.:.:.:.:.:.:.:.:.:.:.:.:.:.",
":.:.:.:.:.:.:.:.:.:.:.:.:.:.:.:.:.:.:.:.:.:.:.:.:.:.:.:.:.:.:.:.:.:.:.:.:.:.:.:.:.:.:.:.:.:.:.:.:.:.:.:.:.:.:.:.:.:.:.:.:.:.:.:.:.:.:.:.",
":.:.:.:.:.:.:.:.:.:.:.:.:.:.:.:.:.:.:.:.:.:.:.:.:.:.:.:.:.:.:.:.:.:.:.:.:.:.:.:.:.:.:.:.:.:.:.:.:.:.:.:.:.:.:.:.:.:.:.:.:.:.:.:.:.:.:.:.",
":.:.:.:.:.:.:.:.:.:.:.:.:.:.:.:.:.:.:.:.:.:.:.:.:.:.:.:.:.:.:.:.:.:.:.:.:.:.:.:.:.:.:.:.:.:.:.:.:.:.:.:.:.:.:.:.:.:.:.:.:.:.:.:.:.:.:.:.",
":.:.:.:.:.:.:.:.:.:.:.:.:.:.:.:.:.:.:.:.:.:.:.:.:.:.:.:.:.:.:.:.:.:.:.:.:.:.:.:.:.:.:.:.:.:.:.:.:.:.:.:.:.:.:.:.:.:.:.:.:.:.:.:.:.:.:.:.",
":.:.:.:.:.:.:.:.:.:.:.:.:.:.:.:.:.:.:.:.:.:.:.:.:.:.:.:.:.:.:.:.:.:.:.:.:.:.:.:.:.:.:.:.:.:.:.:.:.:.:.:.:.:.:.:.:.:.:.:.:.:.:.:.:.:.:.:.",
":.:.:.:.:.:.:.:.:.:.:.:.:.:.:.:.:.:.:.:.:.:.:.:.:.:.:.:.:.:.:.:.:.:.:.:.:.:.:.:.:.:.:.:.:.:.:.:.:.:.:.:.:.:.:.:.:.:.:.:.:.:.:.:.:.:.:.:.",
":.:.:.:.:.:.:.:.:.:.:.:.:.:.:.:.:.:.:.:.:.:.:.:.:.:.:.:.:.:.:.:.:.:.:.:.:.:.:.:.:.:.:.:.:.:.:.:.:.:.:.:.:.:.:.:.:.:.:.:.:.:.:.:.:.:.:.:.",
":.:.:.:.:.:.:.:.:.:.:.:.:.:.:.:.:.:.:.:.:.:.:.:.:.:.:.:.:.:.:.:.:.:.:.:.:.:.:.:.:.:.:.:.:.:.:.:.:.:.:.:.:.:.:.:.:.:.:.:.:.:.:.:.:.:.:.:.",
":.:.:.:.:.:.:.:.:.:.:.:.:.:.:.:.:.:.:.:.:.:.:.:.:.:.:.:.:.:.:.:.:.:.:.:.:.:.:.:.:.:.:.:.:.:.:.:.:.:.:.:.:.:.:.:.:.:.:.:.:.:.:.:.:.:.:.:.",
":.:.:.:.:.:.:.:.:.:.:.:.:.:.:.:.:.:.:.:.:.:.:.:.:.:.:.:.:.:.:.:.:.:.:.:.:.:.:.:.:.:.:.:.:.:.:.:.:.:.:.:.:.:.:.:.:.:.:.:.:.:.:.:.:.:.:.:."
};
