/* XPM */
static char *_15223c7d1474760ad4ad51342ce3f41fvCqkK2ZWhHSYC25[] = {
/* columns rows colors chars-per-pixel */
"68 68 118 2 ",
"   c #7A7B8F",
".  c #7D7D92",
"X  c #827F94",
"o  c #7F8195",
"O  c #7F8399",
"+  c #838196",
"@  c #898297",
"#  c #888896",
"$  c #83859B",
"%  c #8D849A",
"&  c #86889F",
"*  c #8D8A9E",
"=  c #928F92",
"-  c #92859C",
";  c #99879F",
":  c #938B9D",
">  c #9C9895",
",  c #99979D",
"<  c #ACA594",
"1  c #B0A894",
"2  c #868CA5",
"3  c #8A8CA3",
"4  c #898EA8",
"5  c #9A87A0",
"6  c #948DA3",
"7  c #9B8CA3",
"8  c #8D90A7",
"9  c #8E92AA",
"0  c #9691A5",
"q  c #9A91A7",
"w  c #9194AE",
"e  c #9C95AC",
"r  c #9999AB",
"t  c #9297B1",
"y  c #9699B3",
"u  c #999CB6",
"i  c #9B9EBA",
"p  c #A48CA5",
"a  c #A68FA8",
"s  c #AB8EA9",
"d  c #A391A7",
"f  c #A394AA",
"g  c #AB93AB",
"h  c #A199AF",
"j  c #B493AE",
"k  c #B198AF",
"l  c #AF97B2",
"z  c #A49CB2",
"x  c #AC9DB4",
"c  c #BC96B2",
"v  c #B59BB3",
"b  c #BC9EB5",
"n  c #9EA1BD",
"m  c #A7A1AE",
"M  c #A0A1B2",
"N  c #AAA0B6",
"B  c #AEA8B3",
"V  c #A0A3BF",
"C  c #ADA3BA",
"Z  c #AFAFBE",
"A  c #B3A4BC",
"S  c #B9A5BE",
"D  c #BDB4BD",
"F  c #C1B796",
"G  c #C7BC97",
"H  c #C7BB9C",
"J  c #C197B5",
"K  c #C399B6",
"L  c #C79BB8",
"P  c #C7BDA4",
"I  c #C7B5AC",
"U  c #C6BFAD",
"Y  c #C7A4BC",
"T  c #C0ACBE",
"R  c #C3BEB0",
"E  c #C7B1BC",
"W  c #C7B9BC",
"Q  c #C7C2B2",
"!  c #9FA3C0",
"~  c #A1A4C1",
"^  c #A2A6C3",
"/  c #A3A7C4",
"(  c #A5A9C5",
")  c #A8AAC7",
"_  c #A6AAC8",
"`  c #A7ABC9",
"'  c #A9ADCB",
"]  c #AFADCB",
"[  c #B6A4C2",
"{  c #B9A7C2",
"}  c #BDA6C1",
"|  c #B5AAC0",
" . c #BFAAC3",
".. c #B9ACC2",
"X. c #BFABC4",
"o. c #BCACC4",
"O. c #BDADC5",
"+. c #B3ADCA",
"@. c #B9ADC9",
"#. c #BEB0C7",
"$. c #B4B1CC",
"%. c #BDB2CB",
"&. c #C3AAC4",
"*. c #C3ABC4",
"=. c #C7ADC7",
"-. c #C7AEC8",
";. c #C3B0C7",
":. c #C3B9C1",
">. c #C7BDC4",
",. c #C0B2C8",
"<. c #C7B1CA",
"1. c #C7B3CC",
"2. c #C5B5CC",
"3. c #C7B7CE",
"4. c #C7BDCA",
"5. c #C7B8CD",
"6. c #C7C1CB",
"7. c #C6C6D5",
/* pixels */
"' ' ' ' ' ' ' ' ' ' ' ' ' ' ' ' ' ' ' ' ' ' ' ' ' ' ' ' ' ' ' ' ' ' ' ' ' ' ' ' ' ' ' ' ' ' ' ' ' ' ' ' ' ' ' ' ' ' ' ' ' ' ' ' ' ' ' ' ",
"' ' ' ' ' ' ' ' ' ' ' ' ' ' ' ' ' ' ' ' ' ' ' ' ' ' ' ' ' ' ' ' ' ' ' ' ' ' ' ' ' ' ' ' ' ' ' ' ' ' ' ' ' ' ' ' ' ' ' ' ' ' ' ' ' ' ' ' ",
"' ' ' ' ' ' ' ' ' ' ' ' ' ' ' ' ' ' ' ' ' ' ' ' ' ' ' ' ' ' ' ' ' ' ' ' ' ' ' ' ' ' ' ' ' ' ' ' ' ' ' ' ' ' ' ' ' ' ' ' ' ' ' ' ' ' ' ' ",
"' ' ' ' ' ' ' ' ' ' ' ' ' ' ' ' ' ' ' ' ' ' ' ' ' ' ' ' ' ' ' ' ' ' ' ' ' ' ' ' ' ' ' ' ' ' ' ' ' ' ' ' ' ' ' ' ' ' ' ' ' ' ' ' ' ' ' ' ",
"' ' ' ' ' ' ' ' ' ' ' ' ' ' ' ' ' ' ' ' ' ' ' ' ' ' ' ' ' ' ' ' ' ' ' ' ' ' ' ' ' ' ' ' ' ' ' ' ' ' ' ' ' ' ' ' ' ' ' ' ' ' ' ' ' ' ' ' ",
"' ' ' ' ' ' ' ' ' ' ' ' ' ' ' ' ' ' ' ' ' ' ' ' ' ' ' ' ' ' ' ' ' ' ' ' ' ' ' ' ' ' ' ' ' ' ' ' ' ' ' ' ' ' ' ' ' ' ' ' ' ' ' ' ' ' ' ' ",
"' ' ' ' ' ' ' ' ' ' ' ' ' ' ' ' ' ' ' ' ' ' ' ' ' ' ' ' ' ' ' ' ' ' ' ' ' ' ' ' ' ' ' ' ' ' ' ' ' ' ' ' ' ' ' ' ' ' ' ' ' ' ' ' ' ' ' ' ",
"' ' ' ' ' ' ' ' ' ' ' ' ' ' ' ' ' ' ' ' ' ' ' ' ' ' ' ' ' ' ' ' ' ' ' ' ' ' ' ' ' ' ' ' ' ' ' ' ' ' ' ' ' ' ' ' ' ' ' ' ' ' ' ' ' ' ' ' ",
"' ' ' ' ' ' ' ' ' ' ' ' ' ' ' ' ' ' ' ' ' ' ' ' ' ' ' ' ' ' ' ' ' ' ' ' ' ' ' ' ' ' ' ' ' ' ' ' ' ' ' ' ' ' ' ' ' ' ' ' ' ' ' ' ' ' ' ' ",
"' ' ' ' ' ' ' ' ' ' t . & y / ' ' ' ' ' ' ' ' ' ' ' ' ' ' ' ' ' n / ' ' ' ' ' ' ' ' ' ' ' ' ' ' ' ' ' ' ' ' ( t & . t ' ' ' ' ' ' ' ' ' ",
"' ' ' ' ' ' ' ' ' ' . $ o   $ ' ' ' ' ' ' ' ' ' ' ' ' ' ' ' ' V   o ^ ( . n ' ' ' ' ' ' ' ' ' ' ' ' ' ^ w &     . o . ' ' ' ' ' ' ' ' ' ",
"' ' ' ' ' ' ' ' ' ' & o t 9 9 t u ^ ( y y V ' ' ' ' ' ' ' ' ' 3 + + *  .+ 3 ' ' ' ' ' ' ' ' ' V y 3 o     . $ 2 2 . & ' ' ' ' ' ' ' ' ' ",
"' ' ' ' ' ' ' ' ' ' y   9 t t t t t t o     . & 9 w i ^ ( ' '   e #.X.=.e . ' ' ' ' ' y 9 $ .     . & 3 3 2 2 2 2 o u ' ' ' ' ' ' ' ' ' ",
"' ' ' ' ' ' ' ' ' ' _ . & t t t t t t t 9 9 & + o           .   A 3.<.=.x   n / ^ ! y . . $ & 3 w t t w 2 2 2 2 2 / ' ' ' ' ' ' ' ' ' ' ",
"' ' ' ' ' ' ' ' ' ' ' 8 . w t t t t t t t t t t t w 3 r r 6 &   C 3.1.=.v   $ .   . o t t t t t t t t 9 2 2 2 2 9 ' ' ' ' ' ' ' ' ' ' ' ",
"' ' ' ' ' ' ' ' ' ' ' ^   2 t t t t t t t t t t t 9   A 3.3.,.. e | x A q   . q x f 6 t t t t t t t t 2 2 2 2 2 n ' ' ' ' ' ' ' ' ' ' ' ",
"' ' ' ' ' ' ' ' ' ' ' ' & . w t t t t t t t t t t t o 3 3.3.3.6 .       . 6 ;.=.=.=.y t t t t t t t 9 2 2 2 2 4 ' ' ' ' ' ' ' ' ' ' ' ' ",
"' ' ' ' ' ' ' ' ' ' ' ' n   & t t t t t t t t t 9 $   6 3.<.=.6 . Z :.m + C 3.-.=.=.C y t t t t t t 2 2 2 2 $ . ' ' ' ' ' ' ' ' ' ' ' ' ",
"' ' ' ' ' ' ' ' ' ' ' ' ' w   . $ $ $ $ $ $ $ $ o   6 3.3.-.=.. r 7.6.>.:.5.3.1.=.=.f . $ & t t 9 4 $ . . .   w ' ' ' ' ' ' ' ' ' ' ' ' ",
"' ' ' ' ' ' ' ' ' ' ' ' ' ' 9   @ @ @ @ @ @ @ @ @ +   0 ..-.=.  M 7.6.>.B 0 O.=.S 6   + @ - Y Y L L p @ @   9 ' ' ' ' ' ' ' ' ' ' ' ' ' ",
"' ' ' ' ' ' ' ' ' ' ' ' ' ' y   Y Y Y Y Y Y Y Y Y Y d X   . +   & 7.>.D +     .   . d Y Y Y Y Y L L L L L   y ' ' ' ' ' ' ' ' ' ' ' ' ' ",
"' ' ' ' ' ' ' ' ' ' ' ' ' ' u   Y Y Y Y Y Y Y Y Y Y Y Y %   0 h x 4.* . + S q   % Y Y Y Y Y Y Y L L L L c   i ' ' ' ' ' ' ' ' ' ' ' ' ' ",
"' ' ' ' ' ' ' ' ' ' ' ' ' ' ( . 7 Y Y Y Y Y Y Y Y Y Y b   e 3.3.=.=.. = F E =.q . b Y Y Y Y Y Y L L L L 7   / ' ' ' ' ' ' ' ' ' ' ' ' ' ",
"' ' ' ' ' ' ' ' ' ' ' ' ' ' ' &   6 v b b b b b b b b : . ,.3.<.=.S   < G P =.*.. 7 Y Y Y b b c c c j ;   9 ' ' ' ' ' ' ' ' ' ' ' ' ' ' ",
"' ' ' ' ' ' ' ' ' ' ' ' ' ] @.7 +                       6 3.3.-.=.q   F G G =.*.6 X { { A             . w ' ' ' ' ' ' ' ' ' ' ' ' ' ' ' ",
"' ' ' ' ' ' ' ' ' ' ' ' +.=.=.-.|   $   k j p   y n n . . . S =.} . > H P H q   .   ' ' ^   d j j   9 ( ' ' ' ' ' ' ' ' ' ' ' ' ' ' ' ' ",
"' ' ' ' ' ' ' ' ' ' ' +.=.=.-.3.N   4   Y L c   ^ ' ' u &   *.=.T , P H E =..   & y ' ' n   v L L   w ' ' ' ' ' ' ' ' ' ' ' ' ' ' ' ' ' ",
"' ' ' ' ' ' ' ' ' ' i { =.-.3.3.* $ 9 . Y L c   i ' ' ' y   W W Q Q P G G I     y ' ' ' n   b L L . 9 ' ' ' ' ' ' ' ' ' ' ' ' ' ' ' ' ' ",
"' ' ' ' ' ' ' ' ' ' . X % O.3.z   y 4 X Y L c   u ' ' ' y   Q Q Q Q P G G G F   y ' ' ' i   b L L X 4 ' ' ' ' ' ' ' ' ' ' ' ' ' ' ' ' ' ",
"' ' ' ' ' ' ' ' ' ' y 3   e z   & ^ 3 + Y L c   y ' ' ' y   Q Q Q Q P G G G G   w ^ ^ ^ w   b L L + 3 ^ ( ' ' ' ' ' ' ' ' ' ' ' ' ' ' ' ",
"' ' ' ' ' ' ' ' ' ' ' ' .             % Y L J   e [ [ [ e   Q Q Q Q P G G G G               Y L L @       9 ' ' ' ' ' ' ' ' ' ' ' ' ' ' ",
"' ' ' ' ' ' ' ' ' ' ' ' y 9 w   7 j % % Y L K   p L L L p   Q Q Q Q P G G G G   5 j j j ;   Y L L - @ j p   n ' ' ' ' ' ' ' ' ' ' ' ' ' ",
"' ' ' ' ' ' ' ' ' ' ' ' ' ' y   L L % : Y L L . p L L L p   Q Q Q Q P G G G G   p L L L p . Y L J @ + j K   y ' ' ' ' ' ' ' ' ' ' ' ' ' ",
"' ' ' ' ' ' ' ' ' ' ' ' ' ' y   c L @ 6 Y L L X 7 L L L p   Q Q Q Q P G G G G   p L L L p X Y K X       .   u ' ' ' ' ' ' ' ' ' ' ' ' ' ",
"' ' ' ' ' ' ' ' ' ' ' ' ' ' ( + . X . 6 Y L L + . X X X .   Q Q Q Q P G G G G   a L L L 7 + Y k   S #.| 0 . $ / ' ' ' ' ' ' ' ' ' ' ' ' ",
"' ' ' ' ' ' ' ' ' ' ' ' ' ' ' ^ w 9 . 7 Y L L @ $ 9 9 9 &   R Q Q Q P G G G F   y ' ' ' 4 % Y b . f -.3.3.O.. 2 ' ' ' ' ' ' ' ' ' ' ' ' ",
"' ' ' ' ' ' ' ' ' ' ' ' ' ' ' ' ' ' . 7 Y L L % 3 ' ' ' V   + # : U H G G 1 +   / ' ' ' 3 % Y L - % =.-.<.3.h   i ' ' ' ' ' ' ' ' ' ' ' ",
"' ' ' ' ' ' ' ' ' ' ' ' ' ' ' ' ' '   d Y L L % & ' ' ' ' i 3 2 9 ' ' ' ' n 3 i ' ' ' ' & % Y Y c b =.=.=.%     n ' ' ' ' ' ' ' ' ' ' ' ",
"' ' ' ' ' ' ' ' ' ' ' ' ' ' ' ' ' '   d Y L L - $ ' ' ' ' ' ' ' ' ' ' ' ' ' ' ' ' ' ' ' & % Y Y L L X.=.=.+ 2 ( ' ' ' ' ' ' ' ' ' ' ' ' ",
"' ' ' ' ' ' ' ' ' ' ' ' ' ' ' ' ' _   g Y L L ; + ' ' ' ' ' ' ' ' ' ' ' ' ' ' ' ' ' ' ' w g Y Y L g . ] +.  3 ' ' ' ' ' ' ' ' ' ' ' ' ' ",
"' ' ' ' ' ' ' ' ' ' ' ' ' ' ' ' ' (   k Y L L ; + ' ' ' ' ' ' ' ' ' ' ' ' ' ' ' ' ' ' ' ] Y Y Y L s   ( ' i ( ' ' ' ' ' ' ' ' ' ' ' ' ' ",
"' ' ' ' ' ' ' ' ' ' ' ' ' ' ' ' ' ^   v Y L L 7 + ' ' ' ' ' ' ' ' ' ' ' ' ' ' ' ' ' ' ' ] Y Y Y L j   / ' ' ' ' ' ' ' ' ' ' ' ' ' ' ' ' ",
"' ' ' ' ' ' ' ' ' ' ' ' ' ' ' ' ' n   v Y Y L p . ' ' ' w $ 3 i ' ' ' ' ' ' ' ' ' ' ' ' +.Y Y Y L j   ^ ' ' ' ' ' ' ' ' ' ' ' ' ' ' ' ' ",
"' ' ' ' ' ' ' ' ' ' ' ' ' ' ' ' ' n   b Y Y L p . ' ' ' + + +   w ' ' ' ' ' ' ' ' ' ' ' +.Y Y Y L j   n ' ' ' ' ' ' ' ' ' ' ' ' ' ' ' ' ",
"' ' ' ' ' ' ' ' ' ' ' ' ' ' ' ' ' u   b Y Y L s   _ n 3 . * =.f   w ' ' ' ' ' ' ' ' ' ' & k Y Y L j   u ' ' ' ' ' ' ' ' ' ' ' ' ' ' ' ' ",
"' ' ' ' ' ' ' ' ' ' ' ' ' ' ' ' ' y   b Y Y L s   ( 9 + q ..-.=.e . ^ ' ' ' ' ' ' ' ' (   g Y Y L c   u ' ' ' ' ' ' ' ' ' ' ' ' ' ' ' ' ",
"' ' ' ' ' ' ' ' ' ' ' ' ' ' ' ' ' i + Y Y Y L s   ^ _ +.3.3.3.-.*.. w ' ' ' ' ' ' ' ' ^   g Y Y L c   y ' ' ' ' ' ' ' ' ' ' ' ' ' ' ' ' ",
"' ' ' ' ' ' ' ' ' ' ' ' ' ' ' ' ' ' } Y Y Y L s   n ' ' %.3.3.3.<.7 $ ' ' ' ' ' ' ' ' n   k Y Y L L l _ ' ' ' ' ' ' ' ' ' ' ' ' ' ' ' ' ",
"' ' ' ' ' ' ' ' ' ' ' ' ' ' ' ' ' ' } Y Y Y L j   n ' ' ' $.3.3.3.<.) ' ' ' ' ' ' ' ' n   v Y Y L L L ' ' ' ' ' ' ' ' ' ' ' ' ' ' ' ' ' ",
"' ' ' ' ' ' ' ' ' ' ' ' ' ' ' ' ' ' Y Y Y Y L c   n ' ' ' ' ' ] +.] ' ' ' ' ' ' ' ' ' u   v Y Y L L L ' ' ' ' ' ' ' ' ' ' ' ' ' ' ' ' ' ",
"' ' ' ' ' ' ' ' ' ' ' ' ' ' ' ' ' ' Y Y Y Y L c   i ' ' ' ' ' ' ' ' ' ' ' ' ' ' ' ' ' y   b Y Y L L L ' ' ' ' ' ' ' ' ' ' ' ' ' ' ' ' ' ",
"' ' ' ' ' ' ' ' ' ' ' ' ' ' ' ' i 3 % % % % % @   3 / ' ' ' ' ' ' ' ' ' ' ' ' ' ' ' ^ 3   % % % % % % 3 i ' ' ' ' ' ' ' ' ' ' ' ' ' ' ' ",
"' ' ' ' ' ' ' ' ' ' ' ' ' ' ' w   . o o o o . . . . . n ' ' ' ' ' ' ' ' ' ' ' ' ' i . . o o o o . . . .   w ' ' ' ' ' ' ' ' ' ' ' ' ' ' ",
"' ' ' ' ' ' ' ' ' ' ' ' ' ' ^   & t t t t 9 2 2 2 2 . . _ ' ' ' ' ' ' ' ' ' ' ' ' + o w t t t 9 2 2 2 2 O   V ' ' ' ' ' ' ' ' ' ' ' ' ' ",
"' ' ' ' ' ' ' ' ' ' ' ' ' ' y . w t t t t t 2 2 2 2 $   ^ ' ' ' ' ' ' ' ' ' ' ' ^   4 t t t t t 2 2 2 2 2 . y ' ' ' ' ' ' ' ' ' ' ' ' ' ",
"' ' ' ' ' ' ' ' ' ' ' ' ' ' w . t t t t t t 2 2 2 2 2   ^ ' ' ' ' ' ' ' ' ' ' ' ^   9 t t t t t 2 2 2 2 2 . w ' ' ' ' ' ' ' ' ' ' ' ' ' ",
"' ' ' ' ' ' ' ' ' ' ' ' ' ' y . 2 3 3 3 9 t 2 2 2 2 O   ^ ' ' ' ' ' ' ' ' ' ' ' ^   & w t t t t 2 $ $ $ $ . y ' ' ' ' ' ' ' ' ' ' ' ' ' ",
"' ' ' ' ' ' ' ' ' ' ' ' ' ' ( &         t ^ n n n y . w ' ' ' ' ' ' ' ' ' ' ' ' ' 9 . i ^ ^ ^ ^ n +       & / ' ' ' ' ' ' ' ' ' ' ' ' ' ",
"' ' ' ' ' ' ' ' ' ' ' ' ' ' ' ' ' ' ' ' ' ' ' ' ' ' ' ' ' ' ' ' ' ' ' ' ' ' ' ' ' ' ' ' ' ' ' ' ' ' ' ' ' ' ' ' ' ' ' ' ' ' ' ' ' ' ' ' ",
"' ' ' ' ' ' ' ' ' ' ' ' ' ' ' ' ' ' ' ' ' ' ' ' ' ' ' ' ' ' ' ' ' ' ' ' ' ' ' ' ' ' ' ' ' ' ' ' ' ' ' ' ' ' ' ' ' ' ' ' ' ' ' ' ' ' ' ' ",
"' ' ' ' ' ' ' ' ' ' ' ' ' ' ' ' ' ' ' ' ' ' ' ' ' ' ' ' ' ' ' ' ' ' ' ' ' ' ' ' ' ' ' ' ' ' ' ' ' ' ' ' ' ' ' ' ' ' ' ' ' ' ' ' ' ' ' ' ",
"' ' ' ' ' ' ' ' ' ' ' ' ' ' ' ' ' ' ' ' ' ' ' ' ' ' ' ' ' ' ' ' ' ' ' ' ' ' ' ' ' ' ' ' ' ' ' ' ' ' ' ' ' ' ' ' ' ' ' ' ' ' ' ' ' ' ' ' ",
"' ' ' ' ' ' ' ' ' ' ' ' ' ' ' ' ' ' ' ' ' ' ' ' ' ' ' ' ' ' ' ' ' ' ' ' ' ' ' ' ' ' ' ' ' ' ' ' ' ' ' ' ' ' ' ' ' ' ' ' ' ' ' ' ' ' ' ' ",
"' ' ' ' ' ' ' ' ' ' ' ' ' ' ' ' ' ' ' ' ' ' ' ' ' ' ' ' ' ' ' ' ' ' ' ' ' ' ' ' ' ' ' ' ' ' ' ' ' ' ' ' ' ' ' ' ' ' ' ' ' ' ' ' ' ' ' ' ",
"' ' ' ' ' ' ' ' ' ' ' ' ' ' ' ' ' ' ' ' ' ' ' ' ' ' ' ' ' ' ' ' ' ' ' ' ' ' ' ' ' ' ' ' ' ' ' ' ' ' ' ' ' ' ' ' ' ' ' ' ' ' ' ' ' ' ' ' ",
"' ' ' ' ' ' ' ' ' ' ' ' ' ' ' ' ' ' ' ' ' ' ' ' ' ' ' ' ' ' ' ' ' ' ' ' ' ' ' ' ' ' ' ' ' ' ' ' ' ' ' ' ' ' ' ' ' ' ' ' ' ' ' ' ' ' ' ' ",
"' ' ' ' ' ' ' ' ' ' ' ' ' ' ' ' ' ' ' ' ' ' ' ' ' ' ' ' ' ' ' ' ' ' ' ' ' ' ' ' ' ' ' ' ' ' ' ' ' ' ' ' ' ' ' ' ' ' ' ' ' ' ' ' ' ' ' ' ",
"' ' ' ' ' ' ' ' ' ' ' ' ' ' ' ' ' ' ' ' ' ' ' ' ' ' ' ' ' ' ' ' ' ' ' ' ' ' ' ' ' ' ' ' ' ' ' ' ' ' ' ' ' ' ' ' ' ' ' ' ' ' ' ' ' ' ' ' "
};
