/* XPM */
static char *_c1f82c9aed94fe18b39100d2a02c0a52sa37S3a57XoJFFS[] = {
/* columns rows colors chars-per-pixel */
"68 68 194 2 ",
"   c #272425",
".  c #282425",
"X  c #2B252B",
"o  c #2E292D",
"O  c #322C2D",
"+  c #383227",
"@  c #2D2631",
"#  c #2F2931",
"$  c #312A33",
"%  c #352C3B",
"&  c #392E3E",
"*  c #353335",
"=  c #383437",
"-  c #373438",
";  c #39353B",
":  c #3B393C",
">  c #5D5539",
",  c #6D5C22",
"<  c #362E41",
"1  c #3A2E43",
"2  c #3B2F49",
"3  c #3C3144",
"4  c #3E3C42",
"5  c #3E334A",
"6  c #3F3354",
"7  c #413F46",
"8  c #41344C",
"9  c #433653",
"0  c #493753",
"q  c #493956",
"w  c #453659",
"e  c #463A5A",
"r  c #4B3A5C",
"t  c #513E5C",
"y  c #463961",
"u  c #4D3E63",
"i  c #4B3C6B",
"p  c #533E64",
"a  c #533D6A",
"s  c #4E3F70",
"d  c #464044",
"f  c #45444A",
"g  c #48474E",
"h  c #5F4F46",
"j  c #484750",
"k  c #4B4A52",
"l  c #52405D",
"z  c #53525C",
"x  c #6B635E",
"c  c #564465",
"v  c #51416B",
"b  c #5C456B",
"n  c #575662",
"m  c #585763",
"M  c #5A5965",
"N  c #5E5E6B",
"B  c #554372",
"V  c #5C4375",
"C  c #564479",
"Z  c #5A457A",
"A  c #5C497C",
"S  c #634675",
"D  c #654B7B",
"F  c #67597A",
"G  c #61616F",
"H  c #656674",
"J  c #696778",
"K  c #6A6B7A",
"L  c #857021",
"P  c #80735D",
"I  c #817369",
"U  c #BB9B1D",
"Y  c #BD9E23",
"T  c #C7A61D",
"R  c #C8A51C",
"E  c #D2AE24",
"W  c #E5BE30",
"Q  c #F4C81E",
"!  c #FFD11B",
"~  c #F3C726",
"^  c #FDD124",
"/  c #FED72F",
"(  c #FED630",
")  c #BDAA5E",
"_  c #8E8873",
"`  c #AC9069",
"'  c #BFAE60",
"]  c #CA9D57",
"[  c #CFAC51",
"{  c #D2BF78",
"}  c #D4C174",
"|  c #EFD47B",
" . c #FFE574",
".. c #5E4A83",
"X. c #614C84",
"o. c #694B84",
"O. c #644D8C",
"+. c #684B89",
"@. c #695083",
"#. c #65508E",
"$. c #74558A",
"%. c #74518D",
"&. c #6A4B97",
"*. c #6D4D95",
"=. c #704E9E",
"-. c #675192",
";. c #695293",
":. c #6E549A",
">. c #745194",
",. c #795695",
"<. c #72549C",
"1. c #79559E",
"2. c #6F6C83",
"3. c #6F7080",
"4. c #717383",
"5. c #757789",
"6. c #77788B",
"7. c #797B8D",
"8. c #767393",
"9. c #7C7E91",
"0. c #7554A4",
"q. c #7B57A4",
"w. c #7652A8",
"e. c #7B55AA",
"r. c #7C5BAD",
"t. c #7F5CB0",
"y. c #7B66A7",
"u. c #815C9C",
"i. c #8B649A",
"p. c #8B7592",
"a. c #8057A0",
"s. c #865BA6",
"d. c #8057AC",
"f. c #895DAA",
"g. c #845DB4",
"h. c #885DB7",
"j. c #865DB9",
"k. c #895DBA",
"l. c #8966A4",
"z. c #8479A6",
"x. c #8F62B2",
"c. c #8C61BE",
"v. c #9265B5",
"b. c #946CB3",
"n. c #9569BA",
"m. c #996CBC",
"M. c #8E61C1",
"N. c #9164C6",
"B. c #9E6FC3",
"V. c #9565CC",
"C. c #9C74C6",
"Z. c #A574CA",
"A. c #A877CF",
"S. c #A77ACE",
"D. c #A777D0",
"F. c #A877D0",
"G. c #A97AD0",
"H. c #7E8094",
"J. c #808296",
"K. c #84859B",
"L. c #87899E",
"P. c #88899F",
"I. c #898BA2",
"U. c #8E8CAC",
"Y. c #8D90A7",
"T. c #8E91A8",
"R. c #9295AD",
"E. c #8D87B0",
"W. c #918DB6",
"Q. c #999CB6",
"!. c #9895B8",
"~. c #9B9DBA",
"^. c #9EA1BC",
"/. c #A1A2BF",
"(. c #C9AB97",
"). c #D5C89D",
"_. c #E1C79A",
"`. c #D3C7B6",
"'. c #FEDFA7",
"]. c #FEDEA9",
"[. c #FEE1B0",
"{. c #9F8BC9",
"}. c #9F9DC3",
"|. c #A788CC",
" X c #B284C8",
".X c #A194C9",
"XX c #A79BCB",
"oX c #A1A5C1",
"OX c #A6AAC7",
"+X c #A9A4CC",
"@X c #A7ABC8",
"#X c #A9ADCB",
"$X c #FBECD3",
"%X c #FFEED4",
/* pixels */
"#X#X#X#X#X#X#X#X#X#X#X#X#X#X#X#X#X#X#X#X#X#X#X#X#X#X#X#X#X#X#X#X#X#X#X#X#X#X#X#X#X#X#X#X#X#X#X#X#X#X#X#X#X#X#X#X#X#X#X#X#X#X#X#X#X#X#X#X",
"#X#X#X#X#X#X#X#X#X#X#X#X#X#X#X#X#X#X#X#X#X#X#X#X#X#X#X#X#X#X#X#X#X#X#X#X#X#X#X#X#X#X#X#X#X#X#X#X#X#X#X#X#X#X#X#X#X#X#X#X#X#X#X#X#X#X#X#X",
"#X#X#X#X#X#X#X#X#X#X#X#X#X#X#X#X#X#X#X#X#X#X#X#X#X#X#X#X#X#X#X#X#X#X#X#X#X#X#X#X#X#X#X#X#X#X#X#X#X#X#X#X#X#X#X#X#X#X#X#X#X#X#X#X#X#X#X#X",
"#X#X#X#X#X#X#X#X#X#X#X#X#X#X#X#X#X#X#X#X#X#X#X#X#X#X#X#X#X#X#X#X#X#X#X#X#X#X#X#X#X#X#X#X#X#X#X#X#X#X#X#X#X#X#X#X#X#X#X#X#X#X#X#X#X#X#X#X",
"#X#X#X#X#X#X#X#X#X#X#X#X#X#X#X#X#X#X#X#X#X#X#X#X#X#X#X#X#X#X#X#X#X#X#X#X#X#X#X#X#X#X#X#X#X#X#X#X#X#X#X#X#X#X#X#X#X#X#X#X#X#X#X#X#X#X#X#X",
"#X#X#X#X#X#X#X#X#X#X#X#X#X#X#X#X#X#X#X#X#X#X#X#X#X#X#X#X#X#X#X#X#X#X#X#X#X#X#X#X#X#X#X#X#X#X#X#X#X#X#X#X#X#X#X#X#X#X#X#X#X#X#X#X#X#X#X#X",
"#X#X#X#X#X#X#X#X#X#X#X#X#X#X#X#X#X#X#X#X#X#X#X#X#X#X#X#X#X#X#X#X#X#X#X#X#X#X#X#X#X#X#X#X#X#X#X#X#X#X#X#X#X#X#X#X#X#X#X#X#X#X#X#X#X#X#X#X",
"#X#X#X#X#X#X#X#X#X#X#X#X#X#X#X#X#X#X#X#X#X#X#X#X#X#X#X#X#X#X#X#X#X#X#X#X#X#X#X#X#X#X#X#X#X#X#X#X#X#X#X#X#X#X#X#X#X#X#X#X#X#X#X#X#X#X#X#X",
"#X#X#X#X#X#X#X#X#X#X#X#X#X#X#X#X#X#X#X#X#X#X#X#X#X#X#X#X#X#X#X#X#X#X#X#X#X#X#X#X#X#X#X#X#X#X#X#X#X#X#X#X#X#X#X#X#X#X#X#X#X#X#X#X#X#X#X#X",
"#X#X#X#X#X#X#X#X#X#Xg 4 H Q.#X#X#X#X#X#X#X#X#X#X#X#X#X#X#X#X#X#XR.Q.#X#X@X#X#X#X#X#X#X#X#X#X#X#X#X#X#X#X#X#X#XI.H - f #X#X#X#X#X#X#X#X#X",
"#X#X#X#X#X#X#X#X#X#X. 9 o . z.@X#X#X#X#X#X#X#X#X#X#X#X#X#X#X#XQ.o - ~.J - #X#X#X#X#X#X#X#X#X#X#X#X#X#XoX9.N -   X < . #X#X#X#X#X#X#X#X#X",
"#X#X#X#X#X#X#X#X#X#X. Z -.A -.-.y.E.U.K Y.#X#X#X#X#X#X#X#X#X#Xm % & l %.. 5.#X#X#X#X#X#X#X#X#X^.6.G d . . X < w i 6 . #X#X#X#X#X#X#X#X#X",
"#X#X#X#X#X#X#X#X#X#Xg 3 ;.-.-.-.-.;.u X . . 7 z H 9.T.Q.oX#X#X- D Z.v.s.3 M #X#X#X#XQ.H m f o   . $ 9 v ..i i i i % j #X#X#X#X#X#X#X#X#X",
"#X#X#X#X#X#X#X#X#X#X9.. X.-.-.-.-.;.;.-.A v 9 & # . . . . . - . l.D.m.s.r 4 !.W.E.z.c X % 8 u A O.;.;.-.C i i i i 8.oX#X#X#X#X#X#X#X#X#X",
"#X#X#X#X#X#X#X#X#X#XOX* 9 -.-.-.-.;.-.-.-.-.-.-.-.B B @.@.B u . u.S.n.s.q # 5 $ . $ 1 O.-.;.-.-.-.-.-.O.i i i i Z @X#X#X#X#X#X#X#X#X#X#X",
"#X#X#X#X#X#X#X#X#X#X#XK . O.-.-.-.-.-.-.-.-.-.-.;.3 q A.D.S.n.$ b D t S % . 3 p S c 9 #.;.-.-.-.-.-.-.A i i i i z.#X#X#X#X#X#X#X#X#X#X#X",
"#X#X#X#X#X#X#X#X#X#X#XoXo r ;.-.-.-.-.-.-.-.-.-.-.v . m.F.A.Z.t   O h . . @.m.s.s.s.:.-.;.-.-.-.;.-.#.i i i i w ^.#X#X#X#X#X#X#X#X#X#X#X",
"#X#X#X#X#X#X#X#X#X#X#X#XK X v X.X.X.X.X.X.X.X.X.u X & B.F.B.s.% x $X]._.P Z.A.x.s.s.q.X.X.X.-.;.;.-.s y y e 2 . H.#X#X#X#X#X#X#X#X#X#X#X",
"#X#X#X#X#X#X#X#X#X#X#X#X#XJ . . . . .   . . . . . X b.G.F.x.%.. `.%X[.'.]. XF.B.f.s.o.. . . +.g.0.O.C   . . . 4.#X#X#X#X#X#X#X#X#X#X#X#X",
"#X#X#X#X#X#X#X#X#X#X#X#X#X~.. +.d.d.d.d.d.d.d.d.q.% % $.B.x.,.. `.%X[.].P & ,.f.,.p   c d.d.V.V.j.w.w.&.O.a - #X#X#X#X#X#X#X#X#X#X#X#X#X",
"#X#X#X#X#X#X#X#X#X#X#X#X#X~.. >.V.V.V.V.V.V.V.V.V.h.p . . $ O . I %X].`   % . $ . % +.V.V.V.V.V.g.w.w.w.w.a 4 #X#X#X#X#X#X#X#X#X#X#X#X#X",
"#X#X#X#X#X#X#X#X#X#X#X#X#X#Xg r V.V.V.V.V.V.V.V.V.V.V.k.$ % $.%.i.(.O . h s.p   a V.V.V.V.V.V.V.e.w.w.w.w.% m #X#X#X#X#X#X#X#X#X#X#X#X#X",
"#X#X#X#X#X#X#X#X#X#X#X#X#X#XP.. p g.M.M.M.M.M.M.M.M.c.o.  b.A.m.s.>.. Y ~ i.s.p o c.V.V.V.c.c.e.=.=.=.O.2 * Q.#X#X#X#X#X#X#X#X#X#X#X#X#X",
"#X#X#X#X#X#X#X#X#X#X#X#X#X#X/.. . . . .   . . . . . . . b A.F.v.s.S   Q ! ` s.a.X @.C.C.,.. .   . . . . 4 T.#X#X#X#X#X#X#X#X#X#X#X#X#X#X",
"#X#X#X#X#X#X#X#X#X#X#X#X+X|.S.u.8 - $ a A B u   7.L.5.. b.S.Z.f.s.& , ! ! [ s.u.0 z #X#X4.$ >.B B 3 4 T.#X#X#X#X#X#X#X#X#X#X#X#X#X#X#X#X",
"#X#X#X#X#X#X#X#X#X#X#XXXG.G.Z.f.3 n . >.r.;...  Q.#XK.. O t n.s.b   W ~ W ] p . X f #X#XK 3 V.;.-.e 4 #X#X#X#X#X#X#X#X#X#X#X#X#X#X#X#X#X",
"#X#X#X#X#X#X#X#X#X#XR.S.A.Z.f.,.. 7.. 1.r.-.X.. R.#X#XJ.k d s.l.` ) ( ~ p.s.%   4.R.#X#XH 8 V.;.-.u : #X#X#X#X#X#X#X#X#X#X#X#X#X#X#X#X#X",
"#X#X#X#X#X#X#X#X#X#X$ 3 l s.s.r - #X  q.r.;.X.. I.#X#X#XN > (.|  . ./ ! ^ [ + . Q.#X#X#XN 9 V.;.-.v * #X#X#X#X#X#X#X#X#X#X#X#X#X#X#X#X#X",
"#X#X#X#X#X#X#X#X#X#XK.G . S r   L.OX. q.g.;.O.. I.#X#X#XN >  . . . ./ ! ! ! U   Q.#X#X#Xn q V.:.-.B   #X#X#X#X#X#X#X#X#X#X#X#X#X#X#X#X#X",
"#X#X#X#X#X#X#X#X#X#X#X#X  . - 6.4.G . e.g.;.O.. I.#X#X#XN >  . . . ./ ! ! ! T   N J H J : e V.:.;.B . H 5.~.#X#X#X#X#X#X#X#X#X#X#X#X#X#X",
"#X#X#X#X#X#X#X#X#X#X#X#XJ.K.^.- @ 1   d.h.-.-.. A r.y.r.r >  . . . ./ ! ! ! R . % 1 1 1 X r V.<.;.C . % # j #X#X#X#X#X#X#X#X#X#X#X#X#X#X",
"#X#X#X#X#X#X#X#X#X#X#X#X#X#XI.  g.1.. h.h.;.-.X B w.w.w.w >  . . . ./ ! ! ! R . =.w.w.w.3 p V.0.;.A . =.X.. ~.#X#X#X#X#X#X#X#X#X#X#X#X#X",
"#X#X#X#X#X#X#X#X#X#X#X#X#X#XI.. k.>.. c.j.-.-.# a w.w.w.w >  . . . ./ ! ! ! R   &.w.w.w.3 p V.q.Z % . 5 w . Q.#X#X#X#X#X#X#X#X#X#X#X#X#X",
"#X#X#X#X#X#X#X#X#X#X#X#X#X#XoXO p r . N.k.;.;.$ 3 a a a < >  . . . ./ ! ! ! R   &.w.w.w.; a V.0.. 8 S q $ . 7.#X#X#X#X#X#X#X#X#X#X#X#X#X",
"#X#X#X#X#X#X#X#X#X#X#X#X#X#X#XK.j : X V.c.-.-.% $ f f f - >  . . . ./ ! ! ! R   U.}.}.}.7 B V.<.. D n.A.m.b . K.#X#X#X#X#X#X#X#X#X#X#X#X",
"#X#X#X#X#X#X#X#X#X#X#X#X#X#X#X#X#XK $ V.c.-.;.3 m #X#X#X3.+ ' [  . ./ ! ! E L . oX#X#X#X7 V V.r.% 3 s.x.Z.A.t : #X#X#X#X#X#X#X#X#X#X#X#X",
"#X#X#X#X#X#X#X#X#X#X#X#X#X#X#X#X#XK % V.M.;.-.3 n #X#X#XoXk . . _ ).} } { o # K #X#X#X#X: D V.r.Z 1 s.s.f.D ; . Q.#X#X#X#X#X#X#X#X#X#X#X",
"#X#X#X#X#X#X#X#X#X#X#X#X#X#X#X#X#XK % V.N.;.-.5 z #X#X#X#X#X#X#X#X#X#X#X#X#X#X#X#X#X#X#X$ +.V.t.-.;.1.s.s.X z J.#X#X#X#X#X#X#X#X#X#X#X#X",
"#X#X#X#X#X#X#X#X#X#X#X#X#X#X#X#X#XH 2 V.N.;.-.8 k #X#X#X#X#X#X#X#X#X#X#X#X#X#X#X#X#X#X#X. *.V.g.-.-.A ~.l.o K #X#X#X#X#X#X#X#X#X#X#X#X#X",
"#X#X#X#X#X#X#X#X#X#X#X#X#X#X#X#X#XG 8 V.V.;.;.8 j #X#X#X#X#X#X#X#X#X#X#X#X#X#X#X#X#X#X#X2.j.V.h.-.-.X 7.#X3.~.#X#X#X#X#X#X#X#X#X#X#X#X#X",
"#X#X#X#X#X#X#X#X#X#X#X#X#X#X#X#X#Xm 9 V.V.;.;.9 g #X#X#X#X#X#X#X#X#X#X#X#X#X#X#X#X#X#X#X.XV.V.j.-.-.$ 3.#X#X#X#X#X#X#X#X#X#X#X#X#X#X#X#X",
"#X#X#X#X#X#X#X#X#X#X#X#X#X#X#X#X#Xk r V.V.:.-.e f #X#X#X7.f N Q.#X#X#X#X#X#X#X#X#X#X#X#X.XV.V.c.;.-.$ K #X#X#X#X#X#X#X#X#X#X#X#X#X#X#X#X",
"#X#X#X#X#X#X#X#X#X#X#X#X#X#X#X#X#Xg a V.V.:.;.r : #X#X#XM # & . K #X#X#X#X#X#X#X#X#X#X#X{.V.V.M.;.-.$ K #X#X#X#X#X#X#X#X#X#X#X#X#X#X#X#X",
"#X#X#X#X#X#X#X#X#X#X#X#X#X#X#X#X#X7 V V.V.:.;.u - #X#XK - 8 s.p   K.#X#X#X#X#X#X#X#X#X#Xz.V.V.M.-.;.% H #X#X#X#X#X#X#X#X#X#X#X#X#X#X#X#X",
"#X#X#X#X#X#X#X#X#X#X#X#X#X#X#X#X#X: S V.V.<.;.v o #XR.. c b.m.f.0 4 #X#X#X#X#X#X#X#X#XI.  h.V.M.;.-.3 N #X#X#X#X#X#X#X#X#X#X#X#X#X#X#X#X",
"#X#X#X#X#X#X#X#X#X#X#X#X#X#X#X#X#X- +.V.V.<.-.B . #X#X~.S.D.F.Z.%.. I.#X#X#X#X#X#X#X#XI.  h.V.N.;.-.5 n #X#X#X#X#X#X#X#X#X#X#X#X#X#X#X#X",
"#X#X#X#X#X#X#X#X#X#X#X#X#X#X#X#X#XW.M.V.V.0.-.Z . oX#X#X+XS.D.A.Z.t 9.#X#X#X#X#X#X#X#XI.. k.V.N.;.;.B K.#X#X#X#X#X#X#X#X#X#X#X#X#X#X#X#X",
"#X#X#X#X#X#X#X#X#X#X#X#X#X#X#X#X#XXXV.V.V.0.;.A . ~.#X#X#X#XXX|.|.XX#X#X#X#X#X#X#X#X#XI.. N.V.N.;.-.-.}.#X#X#X#X#X#X#X#X#X#X#X#X#X#X#X#X",
"#X#X#X#X#X#X#X#X#X#X#X#X#X#X#X#X#X.XV.V.V.0.;.... R.#X#X#X#X#X#X#X#X#X#X#X#X#X#X#X#X#XK.X V.V.V.;.-.-.!.#X#X#X#X#X#X#X#X#X#X#X#X#X#X#X#X",
"#X#X#X#X#X#X#X#X#X#X#X#X#X#X#X#X#X.XV.V.V.q.;.X.. I.#X#X#X#X#X#X#X#X#X#X#X#X#X#X#X#X#X9.$ V.V.V.:.-.-.W.#X#X#X#X#X#X#X#X#X#X#X#X#X#X#X#X",
"#X#X#X#X#X#X#X#X#X#X#X#X#X#X#X#X/.F V V V p e w . K #X#X#X#X#X#X#X#X#X#X#X#X#X#X#X#X#XH o V V V r e r F Q.#X#X#X#X#X#X#X#X#X#X#X#X#X#X#X",
"#X#X#X#X#X#X#X#X#X#X#X#X#X#X#X6.. $ $ $ # X X X X . N #X#X#X#X#X#X#X#X#X#X#X#X#X#X#Xg . $ $ $ X X X @ . o I.#X#X#X#X#X#X#X#X#X#X#X#X#X#X",
"#X#X#X#X#X#X#X#X#X#X#X#X#X#XQ.= e -.-.;.-.C i i i 6 . 9.#X#X#X#X#X#X#X#X#X#X#X#X#X7.X Z -.-.;.O.i i i i < O oX#X#X#X#X#X#X#X#X#X#X#X#X#X",
"#X#X#X#X#X#X#X#X#X#X#X#X#X#XL.. #.-.-.-.-...i i i i $ M #X#X#X#X#X#X#X#X#X#X#X#X#Xj 5 -.-.-.-.-.C i i i y . U.#X#X#X#X#X#X#X#X#X#X#X#X#X",
"#X#X#X#X#X#X#X#X#X#X#X#X#X#XJ.. -.-.;.-.-...i i i i % m #X#X#X#X#X#X#X#X#X#X#X#X#Xg 8 -.-.-.-.-.C i i i y . I.#X#X#X#X#X#X#X#X#X#X#X#X#X",
"#X#X#X#X#X#X#X#X#X#X#X#X#X#XT.. 3 3 3 B -.C i i i 5 . H #X#X#X#X#X#X#X#X#X#X#X#X#XN o u ;.-.-.#.s 6 % % $ . Q.#X#X#X#X#X#X#X#X#X#X#X#X#X",
"#X#X#X#X#X#X#X#X#X#X#X#X#X#X#X7.z z z J.@X@X@X@X@X5.K oX#X#X#X#X#X#X#X#X#X#X#X#X#X^.G 4.@X@X@X@X@XH.n m m H.#X#X#X#X#X#X#X#X#X#X#X#X#X#X",
"#X#X#X#X#X#X#X#X#X#X#X#X#X#X#X#X#X#X#X#X#X#X#X#X#X#X#X#X#X#X#X#X#X#X#X#X#X#X#X#X#X#X#X#X#X#X#X#X#X#X#X#X#X#X#X#X#X#X#X#X#X#X#X#X#X#X#X#X",
"#X#X#X#X#X#X#X#X#X#X#X#X#X#X#X#X#X#X#X#X#X#X#X#X#X#X#X#X#X#X#X#X#X#X#X#X#X#X#X#X#X#X#X#X#X#X#X#X#X#X#X#X#X#X#X#X#X#X#X#X#X#X#X#X#X#X#X#X",
"#X#X#X#X#X#X#X#X#X#X#X#X#X#X#X#X#X#X#X#X#X#X#X#X#X#X#X#X#X#X#X#X#X#X#X#X#X#X#X#X#X#X#X#X#X#X#X#X#X#X#X#X#X#X#X#X#X#X#X#X#X#X#X#X#X#X#X#X",
"#X#X#X#X#X#X#X#X#X#X#X#X#X#X#X#X#X#X#X#X#X#X#X#X#X#X#X#X#X#X#X#X#X#X#X#X#X#X#X#X#X#X#X#X#X#X#X#X#X#X#X#X#X#X#X#X#X#X#X#X#X#X#X#X#X#X#X#X",
"#X#X#X#X#X#X#X#X#X#X#X#X#X#X#X#X#X#X#X#X#X#X#X#X#X#X#X#X#X#X#X#X#X#X#X#X#X#X#X#X#X#X#X#X#X#X#X#X#X#X#X#X#X#X#X#X#X#X#X#X#X#X#X#X#X#X#X#X",
"#X#X#X#X#X#X#X#X#X#X#X#X#X#X#X#X#X#X#X#X#X#X#X#X#X#X#X#X#X#X#X#X#X#X#X#X#X#X#X#X#X#X#X#X#X#X#X#X#X#X#X#X#X#X#X#X#X#X#X#X#X#X#X#X#X#X#X#X",
"#X#X#X#X#X#X#X#X#X#X#X#X#X#X#X#X#X#X#X#X#X#X#X#X#X#X#X#X#X#X#X#X#X#X#X#X#X#X#X#X#X#X#X#X#X#X#X#X#X#X#X#X#X#X#X#X#X#X#X#X#X#X#X#X#X#X#X#X",
"#X#X#X#X#X#X#X#X#X#X#X#X#X#X#X#X#X#X#X#X#X#X#X#X#X#X#X#X#X#X#X#X#X#X#X#X#X#X#X#X#X#X#X#X#X#X#X#X#X#X#X#X#X#X#X#X#X#X#X#X#X#X#X#X#X#X#X#X",
"#X#X#X#X#X#X#X#X#X#X#X#X#X#X#X#X#X#X#X#X#X#X#X#X#X#X#X#X#X#X#X#X#X#X#X#X#X#X#X#X#X#X#X#X#X#X#X#X#X#X#X#X#X#X#X#X#X#X#X#X#X#X#X#X#X#X#X#X",
"#X#X#X#X#X#X#X#X#X#X#X#X#X#X#X#X#X#X#X#X#X#X#X#X#X#X#X#X#X#X#X#X#X#X#X#X#X#X#X#X#X#X#X#X#X#X#X#X#X#X#X#X#X#X#X#X#X#X#X#X#X#X#X#X#X#X#X#X",
"#X#X#X#X#X#X#X#X#X#X#X#X#X#X#X#X#X#X#X#X#X#X#X#X#X#X#X#X#X#X#X#X#X#X#X#X#X#X#X#X#X#X#X#X#X#X#X#X#X#X#X#X#X#X#X#X#X#X#X#X#X#X#X#X#X#X#X#X"
};
