/* XPM */
static char *fb6c531c5acc49d9e86f283685051c03P7vgz4ZFjDLEQ66f[] = {
/* columns rows colors chars-per-pixel */
"68 68 26 1 ",
"  c black",
". c #21181B",
"X c #1B1F21",
"o c #14182E",
"O c #291D2B",
"+ c #3B2027",
"@ c #3D2936",
"# c #52333F",
"$ c #7D3833",
"% c #2B2B45",
"& c #283540",
"* c #2C354D",
"= c #3A3F5E",
"- c #4F1D4C",
"; c #781D4F",
": c #2F5753",
"> c #3B7D4F",
", c #AB5130",
"< c #AD2F45",
"1 c #CC2F7B",
"2 c #8F4D57",
"3 c #BD6A62",
"4 c #FFAE70",
"5 c #FFC2A1",
"6 c #A9ADCB",
"7 c #DFE0E8",
/* pixels */
"66666666666666666666666666666666666666666666666666666666666666666666",
"66666666666666666666666666666666666666666666666666666666666666666666",
"66666666666666666666666666666666666666666666666666666666666666666666",
"66666666666666666666666666666666666666666666666666666666666666666666",
"66666666666666666666666666666666      666666666666666666666666666666",
"666666666666666666666666666666  $+++++  6666666666666666666666666666",
"66666666666666666666666666666 $++        666666666666666666666666666",
"66666666666666666666666666666 $+ $++++++$ 66666666666666666666666666",
"66666666666666666666666666666 1 $+++.. .+ 66666666666666666666666666",
"666666666666666666666666666661- $++.  5 . 66666666666666666666666666",
"66666666666666666666666666661<- $+. 555 . 66666666666666666666666666",
"6666666666666666666666666666<-< ++ 55555  66666666666666666666666666",
"66666666666666666666666666* 6<< + 57 57  666666666666666666666666666",
"66666666666666666666666666666&: + 555555 666666666666666666666666666",
"666666666666666666666666666666&   555555 666666666666666666666666666",
"6666666666666666666666666666666   355555 666666666666666666666666666",
"666666666666666666666666666666 666 3555 6666666666666666666666666666",
"6666666666666666666666666666666666 33  66666666666666666666666666666",
"6666666666666666666666666666666666 33 666666666666666666666666666666",
"6666666666666666666666666666666   3555   666666666666666666666666666",
"666666666666666666666666666666 #  5555  # 66666666666666666666666666",
"66666666666666666666666666666 ## 7 55 7 ## 6666666666666666666666666",
"6666666666666666666666666666 #### 7  7 # @# 666666666666666666666666",
"6666666666666666666666666666 ##@## 77 ## O## 66666666666666666666666",
"666666666666666666666666666 ##@ @## 7 ##@ @## 6666666666666666666666",
"666666666666666666666666666 ##@ @### ###@ O@   666666666666666666666",
"66666666666666666666666666 ###O O### ###@O  @@# 66666666666666666666",
"66666666666666666666666666 ##@ OO### ##@@O O@### 6666666666666666666",
"6666666666666666666666666 ###@ OO@### #@O O@#### 6666666666666666666",
"6666666666666666666666666 ###O OOO@@# @O  O##### 6666666666666666666",
"666666666666666666666666 ###@ OOOOOO@@  55 @### 66666666666666666666",
"66666666666666666666666 ####@ OOOO     555  @## 66666666666666666666",
"66666666666666666666666 ####@ OO  <<< 555 .. @# 66666666666666666666",
"6666666666666666666666 ####@O        5555 .o. @ 66666666666666666666",
"6666666666666666666666 ####@O 6 @@OOO 55 %.o. O 66666666666666666666",
"6666666666666666666666 ###@OO  ##@@OO   @ o..  666666666666666666666",
"666666666666666666666 ###@OO 6 ###@OO -- @o..  666666666666666666666",
"666666666666666666666 ##@OO 66 ###@O --; o@o.  666666666666666666666",
"666666666666666666666 #@O  666 ###@O --;;%O6 66666666666666666666666",
"666666666666666666666    6666 ####@ ---;; 6@ 66666666666666666666666",
"6666666666666666666666 5 6666 ####@ --;;<<oO 66666666666666666666666",
"6666666666666666666666 55 666 ####O --;;<o;6O 6666666666666666666666",
"6666666666666666666666 555 66 ####O -;;;<% 6O 6666666666666666666666",
"6666666666666666666666 555 6 ####@O       o   6666666666666666666666",
"666666666666666666666 3 5 4  @###@ XXX&&&&oX O 666666666666666666666",
"666666666666666666666 33  4  @##@O XX&&&&o6oX  666666666666666666666",
"66666666666666666666         @##@ XX&&&&&=o6X  666666666666666666666",
"66666666666666666666 4444443 @##@ X&&&&&&=o6>> 666666666666666666666",
"66666666666666666666         @@@O X&&&&&&&:>>> 666666666666666666666",
"66666666666666666666 4444332 O@O X&&&&&&&&:>>> 666666666666666666666",
"66666666666666666666 4443322 OOO X&&&&&&&::>>> 666666666666666666666",
"66666666666666666666 4333222 OOO X&&&&&&&::>>> 666666666666666666666",
"66666666666666666666         OO X&&&&&&&::>>>> 666666666666666666666",
"666666666666666666666666 :X OO X&&&&&&&&::>>>> 666666666666666666666",
"66666666666666666666666 :::X  X&&&&&&&&:::>>>> 666666666666666666666",
"66666666666666666666666  :::XX&&&&&&&&::::>>>> 666666666666666666666",
"6666666666666666666666 53 :::&&&&&&&&:::::>>> 6666666666666666666666",
"6666666666666666666666 53  ::::&&&&::::::>>> 66666666666666666666666",
"666666666666666666666 53 66 :::::::::::::>>  66666666666666666666666",
"666666666666666666666 5 6666  ::::::::::>  3 66666666666666666666666",
"666666666666666666666 5 666666  :::::    6 3 66666666666666666666666",
"66666666666666666666 5, 66666666     66666 ,, 6666666666666666666666",
"66666666666666666666 55, 66666666666666666 33,  66666666666666666666",
"66666666666666666666 33, 66666666666666666 333,5 6666666666666666666",
"66666666666666666666$$$$$66666666666666666$$$$$$$6666666666666666666",
"66666666666666666666666666666666666666666666666666666666666666666666",
"66666666666666666666666666666666666666666666666666666666666666666666",
"66666666666666666666666666666666666666666666666666666666666666666666"
};
