/* XPM */
static char *e3896270adcf4b1abc186f1f9fbfc108DwNBKAa77DrfgBHk[] = {
/* columns rows colors chars-per-pixel */
"68 68 31 1 ",
"  c #101616",
". c #191F21",
"X c #14182E",
"o c #22282B",
"O c #283540",
"+ c #2F3C48",
"@ c #4F1D4C",
"# c #542653",
"$ c #5A2E5B",
"% c #722449",
"& c #374350",
"* c #595E6C",
"= c #5B5F78",
"- c #626777",
"; c #656E81",
": c #796287",
"> c #7E6A8F",
", c #6C7181",
"< c #6D7589",
"1 c #757C91",
"2 c #8A6585",
"3 c #837396",
"4 c #7F839D",
"5 c #8E84A4",
"6 c #9686A3",
"7 c #9786A4",
"8 c #9195AF",
"9 c #9895B3",
"0 c #9D97B3",
"q c #9E9EBB",
"w c #A3A7C2",
/* pixels */
"wwwwwwwwwwwwwwwwwwwwwwwwwwwwwwwwwwwwwwwwwwwwwwwwwwwwwwwwwwwwwwwwwwww",
"wwwwwwwwwwwwwwwwwwwwwwwwwwwwwwwwwwwwwwwwwwwwwwwwwwwwwwwwwwwwwwwwwwww",
"wwwwwwwwwwwwwwwwwwwwwwwwwwwwwwwwwwwwwwwwwwwwwwwwwwwwwwwwwwwwwwwwwwww",
"wwwwwwwwwwwwwwwwwwwwwwwwwwwwwwwwwwwwwwwwwwwwwwwwwwwwwwwwwwwwwwwwwwww",
"wwwwwwwwwwwwwwwwwwwwwwwwwwwwwwwwwwwwwwwwwwwwwwwwwwwwwwwwwwwwwwwwwwww",
"wwwwwwwwwwwwwwwwwwwwwwwwwwwwwwwwwwwwwwwwwwwwwwwwwwwwwwwwwwwwwwwwwwww",
"wwwwwwwwwwwwwwwwwwwwwwwwwwwwwwwwwwwwwwwwwwwwwwwwwwwwwwwwwwwwwwwwwwww",
"wwwwwww1+OOOOOOOOOOOOOOOOOOOOOO&wwww$@@@@@@@@@@@@@@@@@@@@@@$3wwwwwww",
"wwwwwww&OOOOOOOOOOOOOOOOOOOOOOO&wwww$@@@@@@@@@@@@@@@@@@@@@@@#wwwwwww",
"wwwwwwwOOOOOOOOOOOOOOOOOOOOOOOO&wwww$@@@@@@@@@@@@@@@@@@@@@@@@wwwwwww",
"wwwwwwwOOOOOOOOOOOOOOOOOOOOOOOO&wwww$@@@@@@@@@@@@@@@@@@@@@@@@wwwwwww",
"wwwwwwwOOOOOOOOOOOOOOOOOOOOOOOO&wwww$@@@@@@@@@@@@@@@@@@@@@@@@wwwwwww",
"wwwwwwwOOOOOOOOOOOOOOOOOOOOOOOO&wwww$@@@@@@@@@@@@@@@@@@@@@@@@wwwwwww",
"wwwwwwwOOOOOOOOOOOOOOOOOOOOOOOO&wwww$@@@@@@@@@@@@@@@@@@@@@@@@wwwwwww",
"wwwwwwwOOOOOOOOOOOOOOOOOOOOOOOO&wwww$@@@@@@@@@@@@@@@@@@@@@@@@wwwwwww",
"wwwwwwwOOOOOOOOOOOOOOOOOOOOOOOO&wwww$@@@@@@@@@@@@@@@@@@@@@@@@wwwwwww",
"wwwwwwwOOOOOOOOOOOOOOOOOOOOOOOO&wwww$@@@@@@@@@@@@@@@@@@@@@@@@wwwwwww",
"wwwwwwwOOOOOOOOOOOOOOOOOOOOOOOO&wwww$@@@@@@@@@@@@@@@@@@@@@@@@wwwwwww",
"wwwwwwwOOOOOOOOOOOOOOOOOOOOOOOO&wwww$@@@@@@@@@@@@@@@@@@@@@@@@wwwwwww",
"wwwwwwwOOOOOOOOOOOOOOOOOOOOOOOO&wwww$@@@@@@@@@@@@@@@@@@@@@@@@wwwwwww",
"wwwwwwwOOOOOOOOOOOOOOOOOOOOOOOO&wwww$@@@@@@@@@@@@@@@@@@@@@@@@wwwwwww",
"wwwwwww;;;;;;;;;;;;;;;;;;;;;;;;<wwww>::::::::::::::::::::::::wwwwwww",
"wwwwwwwwwwwwwwwwwwwwwwwwwwwwwwwwwwwwwwwwwwwwwwwwwwwwwwwwwwwwwwwwwwww",
"wwwwwwwwwwwwwwwwwwwwwwwwwwwwwwwwwwwwwwwwwwwwwwwwwwwwwwwwwwwwwwwwwwww",
"wwwwwwwwwwwwwwwwwwwwwwwwwwwwwwwwwwwwwwwwwwwwwwwwwwwwwwwwwwwwwwwwwwww",
"wwwwwww6666666666660wwwq555555555555555555559www8444444444444wwwwwww",
"wwwwwww%%%%%%%%%%%%2www3@@@@@@@@@@@@@@@@@@@@3www=XXXXXXXXXXXXwwwwwww",
"wwwwwww%%%%%%%%%%%%2www3@@@@@@@@@@@@@@@@@@@@3www=XXXXXXXXXXXXwwwwwww",
"wwwwwww%%%%%%%%%%%%2www3@@@@@@@@@@@@@@@@@@@@3www=XXXXXXXXXXXXwwwwwww",
"wwwwwww%%%%%%%%%%%%2www3@@@@@@@@@@@@@@@@@@@@3www=XXXXXXXXXXXXwwwwwww",
"wwwwwww%%%%%%%%%%%%2www3@@@@@@@@@@@@@@@@@@@@3www=XXXXXXXXXXXXwwwwwww",
"wwwwwww%%%%%%%%%%%%2www3@@@@@@@@@@@@@@@@@@@@3www=XXXXXXXXXXXXwwwwwww",
"wwwwwww%%%%%%%%%%%%2www3@@@@@@@@@@@@@@@@@@@@3www=XXXXXXXXXXXXwwwwwww",
"wwwwwww%%%%%%%%%%%%2www3@@@@@@@@@@@@@@@@@@@@3www=XXXXXXXXXXXXwwwwwww",
"wwwwwww%%%%%%%%%%%%2www3@@@@@@@@@@@@@@@@@@@@3www=XXXXXXXXXXXXwwwwwww",
"wwwwwww%%%%%%%%%%%%2www3@@@@@@@@@@@@@@@@@@@@3www=XXXXXXXXXXXXwwwwwww",
"wwwwwww%%%%%%%%%%%%2www3@@@@@@@@@@@@@@@@@@@@3www=XXXXXXXXXXXXwwwwwww",
"wwwwwww%%%%%%%%%%%%2www3@@@@@@@@@@@@@@@@@@@@3www=XXXXXXXXXXXXwwwwwww",
"wwwwwww%%%%%%%%%%%%2www3@@@@@@@@@@@@@@@@@@@@3www=XXXXXXXXXXXXwwwwwww",
"wwwwwww%%%%%%%%%%%%2www3@@@@@@@@@@@@@@@@@@@@3www=XXXXXXXXXXXXwwwwwww",
"wwwwwww%%%%%%%%%%%%2www3@@@@@@@@@@@@@@@@@@@@3www=XXXXXXXXXXXXwwwwwww",
"wwwwwww%%%%%%%%%%%%2www3@@@@@@@@@@@@@@@@@@@@3www=XXXXXXXXXXXXwwwwwww",
"wwwwwww7777777777770www955555555555555555555qwww8444444444444wwwwwww",
"wwwwwwwwwwwwwwwwwwwwwwwwwwwwwwwwwwwwwwwwwwwwwwwwwwwwwwwwwwwwwwwwwwww",
"wwwwwwwwwwwwwwwwwwwwwwwwwwwwwwwwwwwwwwwwwwwwwwwwwwwwwwwwwwwwwwwwwwww",
"wwwwwwwwwwwwwwwwwwwwwwwwwwwwwwwwwwwwwwwwwwwwwwwwwwwwwwwwwwwwwwwwwwww",
"wwwwwww************************-wwww<;;;;;;;;;;;;;;;;;;;;;;;;wwwwwww",
"wwwwwww                        owwww&OOOOOOOOOOOOOOOOOOOOOOOOwwwwwww",
"wwwwwww                        owwww&OOOOOOOOOOOOOOOOOOOOOOOOwwwwwww",
"wwwwwww                        owwww&OOOOOOOOOOOOOOOOOOOOOOOOwwwwwww",
"wwwwwww                        owwww&OOOOOOOOOOOOOOOOOOOOOOOOwwwwwww",
"wwwwwww                        owwww&OOOOOOOOOOOOOOOOOOOOOOOOwwwwwww",
"wwwwwww                        owwww&OOOOOOOOOOOOOOOOOOOOOOOOwwwwwww",
"wwwwwww                        owwww&OOOOOOOOOOOOOOOOOOOOOOOOwwwwwww",
"wwwwwww                        owwww&OOOOOOOOOOOOOOOOOOOOOOOOwwwwwww",
"wwwwwww                        owwww&OOOOOOOOOOOOOOOOOOOOOOOOwwwwwww",
"wwwwwww                        owwww&OOOOOOOOOOOOOOOOOOOOOOOOwwwwwww",
"wwwwwww                        owwww&OOOOOOOOOOOOOOOOOOOOOOOOwwwwwww",
"wwwwwww                        owwww&OOOOOOOOOOOOOOOOOOOOOOOOwwwwwww",
"wwwwwww.                       owwww&OOOOOOOOOOOOOOOOOOOOOOO&wwwwwww",
"wwwwwww,o                      owwww&OOOOOOOOOOOOOOOOOOOOOO+1wwwwwww",
"wwwwwwwwwwwwwwwwwwwwwwwwwwwwwwwwwwwwwwwwwwwwwwwwwwwwwwwwwwwwwwwwwwww",
"wwwwwwwwwwwwwwwwwwwwwwwwwwwwwwwwwwwwwwwwwwwwwwwwwwwwwwwwwwwwwwwwwwww",
"wwwwwwwwwwwwwwwwwwwwwwwwwwwwwwwwwwwwwwwwwwwwwwwwwwwwwwwwwwwwwwwwwwww",
"wwwwwwwwwwwwwwwwwwwwwwwwwwwwwwwwwwwwwwwwwwwwwwwwwwwwwwwwwwwwwwwwwwww",
"wwwwwwwwwwwwwwwwwwwwwwwwwwwwwwwwwwwwwwwwwwwwwwwwwwwwwwwwwwwwwwwwwwww",
"wwwwwwwwwwwwwwwwwwwwwwwwwwwwwwwwwwwwwwwwwwwwwwwwwwwwwwwwwwwwwwwwwwww",
"wwwwwwwwwwwwwwwwwwwwwwwwwwwwwwwwwwwwwwwwwwwwwwwwwwwwwwwwwwwwwwwwwwww"
};
