/* XPM */
static char *_32f0f9527fe4584a126ba53c3370226ezEq9jEvF8vG1Zqd[] = {
/* columns rows colors chars-per-pixel */
"68 68 133 2 ",
"   c #1E0F1F",
".  c #13151C",
"X  c #18151F",
"o  c #16191E",
"O  c #181B1F",
"+  c #220F1F",
"@  c #21101E",
"#  c #1E0F20",
"$  c #151721",
"%  c #1A1721",
"&  c #161821",
"*  c #1B1E23",
"=  c #1A1C2A",
"-  c #1D1E30",
";  c #2A0F21",
":  c #251524",
">  c #2C1325",
",  c #261826",
"<  c #2B162A",
"1  c #221E2A",
"2  c #2F1F2F",
"3  c #301227",
"4  c #32132B",
"5  c #3C132E",
"6  c #341B2E",
"7  c #381A2F",
"8  c #3A1433",
"9  c #3D1834",
"0  c #1D2023",
"q  c #1C212C",
"w  c #1E2633",
"e  c #24252C",
"r  c #262B2E",
"t  c #212734",
"y  c #202835",
"u  c #2A2E33",
"i  c #25253A",
"p  c #262E3C",
"a  c #282F3D",
"s  c #362233",
"d  c #372739",
"f  c #2D3235",
"g  c #2A313E",
"h  c #31323D",
"j  c #441634",
"k  c #481736",
"l  c #421837",
"z  c #45173C",
"x  c #48173A",
"c  c #45183C",
"v  c #4A193C",
"b  c #541B3F",
"n  c #2D3547",
"m  c #2F3847",
"M  c #2D3548",
"N  c #2F3848",
"B  c #323644",
"V  c #3E3445",
"C  c #363944",
"Z  c #3A3947",
"A  c #333B4B",
"S  c #3D3C4B",
"D  c #461B41",
"F  c #4B1E46",
"G  c #541C41",
"H  c #512047",
"J  c #5D2145",
"K  c #5B2348",
"L  c #423447",
"P  c #473449",
"I  c #413C4C",
"U  c #4A3751",
"Y  c #493850",
"T  c #612447",
"R  c #622548",
"E  c #37404F",
"W  c #39414E",
"Q  c #3E4453",
"!  c #3F4958",
"~  c #434252",
"^  c #434B5B",
"/  c #494A58",
"(  c #4E4F61",
")  c #485060",
"_  c #525263",
"`  c #525364",
"'  c #535364",
"]  c #535564",
"[  c #565769",
"{  c #5D5469",
"}  c #5F576C",
"|  c #595B6E",
" . c #5F586D",
".. c #5B5D70",
"X. c #5E6074",
"o. c #65657A",
"O. c #68687D",
"+. c #6F6981",
"@. c #716D84",
"#. c #756F89",
"$. c #6E7185",
"%. c #707287",
"&. c #73748B",
"*. c #797A91",
"=. c #7C7992",
"-. c #7B7C93",
";. c #7F7B95",
":. c #7E7F97",
">. c #827B96",
",. c #817E97",
"<. c #83849C",
"1. c #8688A1",
"2. c #898BA3",
"3. c #8D8FA9",
"4. c #8D90AA",
"5. c #9392AE",
"6. c #9495B1",
"7. c #9698B3",
"8. c #9799B5",
"9. c #9998B5",
"0. c #9D9EBB",
"q. c #9D9FBC",
"w. c #9FA1BE",
"e. c #A1A2BF",
"r. c #A1A3C1",
"t. c #A2A4C2",
"y. c #A6A8C6",
"u. c #A7AAC9",
"i. c #AAACCB",
"p. c #ABACCB",
"a. c #AAACCC",
"s. c #ABACCC",
"d. c #AAADCC",
/* pixels */
"d.d.d.d.i.d.d.d.d.d.d.i.d.d.d.d.d.d.d.d.i.d.d.d.d.i.d.d.d.d.d.d.d.d.d.d.d.d.d.d.d.d.d.d.i.d.d.d.d.d.d.d.d.d.d.d.d.d.d.i.i.d.i.i.d.d.d.d.",
"i.i.d.i.i.i.i.i.i.d.i.i.i.d.d.i.d.i.d.i.i.i.i.i.d.d.i.d.i.d.i.i.i.d.i.d.i.d.i.i.i.d.d.d.d.d.i.d.d.d.i.d.d.d.d.i.i.i.i.d.d.i.i.i.i.i.i.i.",
"d.i.d.i.i.i.d.i.d.d.d.d.d.i.i.d.d.i.i.d.i.i.i.i.i.d.d.d.d.i.i.i.i.i.d.d.d.d.d.d.i.d.d.i.i.d.d.i.i.i.i.d.d.d.i.i.i.i.d.d.d.d.i.d.i.i.i.d.",
"i.i.i.d.d.d.i.i.d.i.d.d.d.d.d.i.d.i.i.d.d.d.i.i.i.i.i.d.d.d.d.i.i.i.i.i.i.d.i.d.i.d.i.i.i.d.d.d.i.i.i.i.d.i.d.d.i.d.i.i.i.i.i.i.d.i.i.i.",
"i.i.d.i.i.d.d.i.d.d.d.d.i.d.d.d.i.i.i.d.i.i.i.i.i.i.i.d.i.i.d.d.d.d.i.d.d.d.d.i.i.i.i.i.d.i.d.d.d.d.i.i.d.d.i.i.i.i.i.i.i.i.i.i.i.i.d.i.",
"i.i.i.i.i.d.d.0.:.:.:.*.*.*.*.*.*.*.*.*.*.*.*.*.*.*.*.*.*.:.:.:.r.d.d.y.,.,.,.=.=.*.*.=.=.=.=.=.=.=.*.=.*.*.=.=.=.=.;.;.9.d.i.i.i.i.d.i.",
"i.i.i.i.i.d.d.:.e e 1 . . . . . . . . . . . . . . . . . . * 1 1 8.d.d.0.2 2 2                                   # : < < #.i.i.i.i.i.i.i.",
"d.i.d.d.i.i.i.:.e e 1 . . . . . . . . . . . . . . . . . . * 1 1 8.d.d.0.6 2 2   #   #               #           # : < < #.i.d.i.i.i.d.i.",
"i.i.d.d.i.o.C h n n B Q Q Q Q W a a a a a a a a a a a a a = % % 7.i.V V v v v v v v v v l 9 9 9 9 9 9 9 9 9 9 9 9 4 ; ; d V +.i.d.i.i.i.",
"i.i.i.d.i.` . = m N E ) ) ) ) ^ n n M n M M M M n n n n M = X X 6.i.: : G G G G G G G G v z z z z z z z z z z z z 8 ; ; + + } d.d.i.i.i.",
"d.i.d.i.i._ X = N N S ) ) ) ) ^ n M n n n n n M M n n n M = X X 6.i.: : G G G G G G G G v z z z z z z z z z z z z 8 ; ; + + } i.i.i.i.d.",
"d.i.d.i.i.` . t ^ ^ ! A A A A A n n n n M n n M n n n n M = X X 6.i.: : G G G v v v v v c z z z z z z z z z z z z 8 ; ; +   } i.d.d.i.i.",
"d.i.d.d.i.` . t ) ) ^ M n n n n n n n M M M n M n n n M M q X % 6.i.: : G G G z c c z z z z z z z z z z z z z z z 8 ; ; + + } i.d.i.i.i.",
"d.i.d.d.i.` . t ) ) ! n n n n n n n M M M n n n M n n n M = X X 6.d.: : G G G z z c z z z z z z z z z z z z z z z 8 ; ; + @ } d.d.i.i.i.",
"i.i.i.i.i.` X e S S A n n M n n M n n n M n n n n n n n n = X X 6.i.: : v v v z z z z z z z z z z z z z z z z z z 8 ; ; + @ } i.i.i.d.i.",
"d.i.d.i.i.` X = n M n M n M n n n M n n M n M n n n M n M = X X 6.d.: : z z c z z z z z z z z z z z z z z z z z z 8 ; ; @ @ } i.i.d.i.i.",
"d.i.d.i.i.` . = n n M n n n n M n n M M n n n M n n M n M = X X 6.i.: : z z z z z z z z z z z z z z z z z z z z z 8 ; ; + @ } i.i.i.i.i.",
"d.i.i.i.i.` X = n n n n n n n n n n M n n n n M n n n n n = X X 6.i.: : z z z z z z z z z z z z z z z z z z z z z 8 ; ; + @ } i.d.d.i.d.",
"d.i.d.i.i.` . = n n n n n n M M n n n M M n n M M n n n n = . X 6.d.: : z z z z z z z z z z z z z z z z z z z z z 8 ; ; +   } i.d.i.i.d.",
"d.i.d.i.i.` X = n n n n n M n n n n n n M n n M n n n n M = X X 6.d.: : z z z c z z z z z z z z z z z z z z z c z 8 ; ; @ @  .i.d.i.i.i.",
"d.d.d.i.i.` X * a a p t t t t t t t t t t t t t t t t t t = X X 6.i.: : 8 8 8 8 8 8 8 8 8 8 8 8 8 8 8 8 8 8 4 4 8 3 ; ; +    .d.d.d.i.d.",
"d.i.d.d.i.` X % e e 1 X X X X X X X X X X X X X X X X X X . X X 6.i.: : < < < ; ; ; ; ; ; ; ; ; ; ; ; ; ; ; ; ; ; ; ; ; +    .i.d.d.i.d.",
"d.i.d.d.i.O.Z S ~ ~ I Z Z Z Z Z Z Z Z Z Z Z Z Z Z Z Z Z Z Z Z Z w.d.I I U U Y P P P P P P P P P P P P P P P P P P P P P L V @.d.d.i.d.d.",
"i.i.i.i.i.i.i.i.i.d.i.i.i.i.i.i.d.i.i.i.i.i.i.i.i.i.i.i.i.i.i.i.i.d.i.d.d.i.i.i.d.d.d.i.i.i.i.d.i.i.d.i.d.i.i.i.i.i.i.i.i.i.i.d.i.i.i.i.",
"i.i.i.i.i.i.i.r.5.5.5.5.5.5.5.5.5.5.5.5.i.i.6.6.5.5.5.5.5.5.5.5.5.5.5.5.5.5.5.5.5.5.5.5.5.5.i.y.6.5.5.5.5.5.5.5.5.5.6.6.q.i.i.i.i.i.i.i.",
"i.i.i.i.i.i.i.>.4 4 > ; ; ; ; ; ; > > > r.i.s s 3 3 3 3 3 3 3 3 3 3 3 3 3 3 3 3 3 3 3 3 : : i.8.1 % . $ . . . . . % 1 1 &.i.d.i.d.i.d.d.",
"d.i.i.i.i.d.d.>.< < > ; ; ; ; ; ; > > > r.i.s s > > > > 3 3 3 3 > 3 3 3 3 3 3 3 3 3 3 3 : : i.8.1 = . . . . . . . % 1 1 &.d.d.i.d.d.d.d.",
"d.i.d.d.i.{ , 7 T T T T T T T J b j > > r.i.: < T T T R T H F F F F F F F F F F F D 8 8 : : i.5.. = i i i i i = = $ . . . . | i.d.i.i.d.",
"d.i.d.i.i.{ : 7 R R T T R R T T G j ; > r.i.: : T R R R R H F F F F F F F F F F F D 9 8 : : i.5.. = i i i i i = = $ . . . . | i.d.d.i.i.",
"d.i.d.d.i.{ : 7 T T T J J J J J G j > > r.i.: < R R K K K H F F F F F F F F F F F D 8 8 : : i.5.. = i i i i w = = $ . . . . | d.d.d.d.i.",
"d.i.d.i.i.{ : 7 T T J G G G G G G j > > r.i.> > R R H F F F F F F F F F F F F F F D 8 8 : : i.5.. = i i - = = = = $ . . . . | i.d.i.i.i.",
"d.d.d.i.i.{ : 7 T T J G G G G G G j ; ; r.i.: > T R H F F F F F F F F F F F F F F D 8 8 : : i.5.. = i i = = = = = $ . . . . | i.i.i.i.d.",
"d.d.d.d.i.{ : 7 G G G G G G G G G j ; 3 r.i.: : G H F F F F F F F F F F F F F F F D 8 8 : : i.5.. & = = = = = = = $ . . . . | d.i.i.d.d.",
"d.i.d.i.i.{ : 4 G G G G G G G G G j > 3 r.i.: : F F F F F F F F F F F F F F F F F D 8 8 : : i.6.. $ = = = = = = = $ . . . . | d.d.d.d.i.",
"d.d.d.i.i.{ : 4 G G G G G G G G G j 3 > r.d.: : F F F F F F F F F F F F F F F F F D 8 8 : : i.5.. $ = = = = = = = $ . . . . | i.d.i.d.i.",
"d.d.d.d.i.{ : 4 G b G G G G G G b j 3 3 r.d.> : F F F F F F F F F F F F F F F F F D 8 8 : : i.5.. $ = = = = = = = $ . . . . | i.i.d.i.d.",
"d.i.d.d.i.{ : 4 G G G G b G G G b j > > r.i.: : F F F F F F F F F F F F F F F F F D 9 8 : : i.5.. $ = = = = = = = $ . . . . | i.d.i.i.d.",
"i.i.d.d.d.{ : 4 b G G G G G G G b j 3 > r.i.: : F F F F F F F F F F F F F F F F F D 8 8 : : i.5.. $ = = = = = = = $ . . . . | d.i.i.i.i.",
"i.i.d.d.i.{ : 4 b b b G b G G G b j > > r.i.: : F F F F F F F F F F F F F F F F F D 8 8 : : i.5.. $ = = = = = = = $ . . . . | d.d.d.i.i.",
"i.d.d.i.i.{ : 4 x v v j j j k j j 5 > ; r.i.: : D D D D D D D D D D D D D D D D D c 8 8 : : i.5.. $ & & $ & & $ $ $ . . . . | d.d.d.i.d.",
"d.i.d.d.i.{ : : 4 4 3 > > > ; ; > ; 3 ; r.i.: : 9 9 8 8 8 8 8 8 8 8 8 8 8 8 8 8 8 8 8 8 : : i.5.. . . . . . . . . . . . . . | i.d.d.d.i.",
"i.i.i.i.i.{ : : 4 4 3 > ; > ; ; ; ; ; > r.i.: : 8 8 8 8 8 8 8 8 8 8 8 8 8 8 8 8 8 8 8 8 : : i.5.. . . . . . . . . . . . . . | i.i.i.d.i.",
"i.i.d.d.d.i.i.i.i.i.i.i.i.i.i.i.i.i.i.i.d.d.i.i.i.i.i.i.i.i.i.i.i.i.i.i.i.i.i.i.i.i.i.i.i.i.d.d.i.i.y.u.u.u.i.i.u.u.u.u.u.u.i.i.d.d.d.i.",
"i.i.i.i.i.i.d.i.d.d.i.i.i.i.i.i.i.i.i.i.i.d.i.i.i.d.i.i.d.i.d.d.d.d.d.d.i.i.d.d.i.d.d.d.i.d.d.i.d.i.i.d.d.i.i.d.i.i.i.d.d.i.i.i.i.i.i.i.",
"d.i.d.i.i.i.i.3./ / ~ C C C C C C C C C C C C C C C C C C C I I :.d.d.<.~ ~ S Z Z Z Z Z Z Z Z Z Z Z Z Z Z Z Z Z Z Z S S -.i.i.i.i.i.i.i.",
"d.i.i.d.d.d.i.<.u u e . . . . . . . . . . . . . . . . . . o 1 1 &.d.d.&.e e = & & & & . o o & & & & $ $ $ & & & & & = * &.d.d.d.d.i.i.d.",
"d.i.d.d.i.2.&.| u u e 0 0 0 0 * o o o o o o o o o o o o o O * * &.u.&.` t t t t t t t t = = = = = = = = = = = = = = = = ( &.3.d.d.d.d.i.",
"d.i.d.d.i.] . o 0 0 e f f f f u 0 0 0 0 0 0 0 0 0 0 * * 0 * . . $.t.. q a a n W W W W W y y t y y y w w y t y y y y & & $ & | i.d.i.d.i.",
"d.i.d.d.i.] . o 0 0 e f f f f u 0 0 0 0 0 0 0 0 0 0 0 0 0 * . . $.y.. q p a n W W W W W y y y y w y y y w y y t y y & $ $ & | i.d.d.d.d.",
"d.d.d.i.i.] . * r u e e e e e e 0 0 0 * 0 0 0 0 0 0 0 0 0 * . . $.y.. e B B n g g g g g y y y y y w y y y y y y t t & & o & | i.i.i.i.i.",
"d.d.i.d.i.] . * f f r 0 0 0 0 0 * 0 0 * 0 * * 0 0 0 0 * 0 * . . $.y.. t A A n y y y y y y y y y y t y y t y y y y y & & & & | i.d.i.i.i.",
"d.d.d.i.i.] . * f f r 0 * 0 0 0 0 0 0 0 0 0 * * 0 0 0 0 0 * . . $.y.. e A A n y y y y y y y y y t t y y y y y y y t & & & & ..i.d.i.i.d.",
"d.d.d.i.i.] . O e e 0 * 0 0 0 0 * * * 0 0 0 * * 0 0 * 0 * * . . $.y.. q p p p y t t y y y y y y t y t y y t y y y t & & . & | i.d.i.i.i.",
"d.d.d.d.i.] . o 0 0 0 * * * 0 * * * 0 * 0 * * * 0 0 0 0 0 * . . $.y.. = y y y t t y y t y t t y t y t w y t y y y t & $ $ & | i.d.i.i.d.",
"d.d.d.d.i.] . o * * * * * * * * * 0 * 0 * * * 0 * 0 0 0 0 * . . $.y.. = t y y t y y y t t t t t y y y t t y t t y y & $ $ $ ..d.d.d.d.d.",
"d.d.d.d.i.] . o 0 * * 0 * * * * * * * * 0 0 * * * 0 0 * * * . . $.y.. = t y y y t t y t t t y y y y y w t t y t t t & $ $ $ | d.d.i.d.d.",
"i.i.i.d.i.] . o 0 0 0 0 * 0 0 0 0 0 0 * 0 0 0 0 0 0 0 0 0 * . . $.y.. = t y y y y y y y y y y y y y y t t y t y y t & & & $ ..i.i.i.d.d.",
"i.d.i.i.i.] . o * 0 * * * * * * 0 0 * * 0 * 0 * * * * 0 * * . . $.y.. = t t t t t y t t y t y t t t t t w t t t t t & . o $ | i.d.i.i.i.",
"d.i.i.i.i.] . o 0 0 0 * 0 0 0 0 0 0 0 0 0 0 0 0 0 0 0 0 0 * . . $.y.. = t y y y y y y y y y y y y y y y y y y y y y & & & & ..d.d.i.i.d.",
"d.i.d.d.i.] . o * * * * * * * * O O * O * * O * * * O O O O . . $.y.. = w w w q q q q q q q q q q q q q q q q q q q & & & & | i.d.d.i.i.",
"d.i.d.d.d.] . . * * * . . . . . . . . . . . . . . . . . . . . . $.y.. = w w q $ $ & $ $ & $ $ $ $ $ o o $ $ $ $ $ $ & $ $ $ ..i.d.i.d.i.",
"d.d.d.d.i.6.1.o.. o . . . . . . . . . . . . . . . . . . . u 1.1.e.i.1.X.& & & & $ $ & & $ $ $ & o & o & $ $ & & & & & $ [ 1.9.d.d.i.i.d.",
"d.i.d.d.i.i.i.*.. . . . . . . . . . . . . . . . . . . . . h d.d.d.d.d.$.. . o . $ $ o . . o o & & o o . . & o & & & . . %.d.d.d.d.i.i.d.",
"i.i.d.d.i.i.i.w.4.4.4.4.4.4.3.3.4.4.4.4.4.4.4.4.4.4.4.4.4.5.d.d.i.d.d.q.4.4.4.4.4.4.4.4.4.4.4.4.4.4.4.4.4.4.4.4.4.4.4.4.r.d.d.d.d.d.i.i.",
"i.i.i.i.i.i.d.i.i.d.d.i.i.i.d.i.i.d.d.d.d.d.d.d.i.i.d.d.i.d.d.d.d.d.d.d.i.d.d.d.i.d.d.d.i.d.i.i.d.d.d.i.d.d.d.d.i.d.i.d.d.i.i.d.d.i.i.i.",
"i.d.i.i.i.d.i.d.d.d.i.d.i.d.i.i.d.d.i.d.i.d.d.d.d.d.i.d.d.i.d.d.i.d.d.i.d.i.i.d.d.d.d.d.d.i.i.d.i.i.d.i.d.d.i.i.d.d.i.i.i.i.i.d.i.i.i.i.",
"d.d.d.d.i.i.d.d.d.d.d.d.d.d.i.i.d.d.i.d.i.d.d.i.d.d.d.d.d.d.d.d.d.d.d.d.d.d.i.d.d.d.d.d.d.d.d.d.d.d.d.d.d.d.d.d.d.d.d.i.i.d.i.i.d.d.d.d.",
"i.i.d.d.i.i.d.d.d.d.d.d.d.d.d.d.d.d.d.d.d.d.d.d.d.d.d.d.d.d.d.d.d.d.d.i.d.d.d.d.d.d.d.d.d.d.d.d.d.d.d.d.d.d.d.d.d.d.d.d.d.d.i.d.d.d.d.i."
};
