/* XPM */
static char *a75e7e979dfb4ababbd6d3725519bd23y6bTh6i2svYSJHwK[] = {
/* columns rows colors chars-per-pixel */
"68 68 26 1 ",
"  c #242125",
". c #2C292F",
"X c #343239",
"o c #3B3A42",
"O c #3C3A42",
"+ c #43424C",
"@ c #44424C",
"# c #4C4A56",
"$ c #53535F",
"% c #535360",
"& c #545360",
"* c #5C5B69",
"= c #5B5C69",
"- c #5C5C69",
"; c #636473",
": c #646473",
"> c #636474",
", c #646474",
"< c #6B6C7D",
"1 c #737587",
"2 c #7B7D91",
"3 c #83859B",
"4 c #8B8DA4",
"5 c #9396AE",
"6 c #9B9FB8",
"7 c #A3A7C2",
/* pixels */
"77777777777777777777777777777777777777777777777777777777777777777777",
"77777777777777777777777777777777777777777777777777777777777777777777",
"77777777777777777777777777777777777777777777777777777777777777777777",
"77777777777777777777777777777777777777777777777777777777777777777777",
"77777777777777777777777777777777777777777777777777777777777777777777",
"777777777777777777777777;.X6777777777775O.:7777777777777777777777777",
"777777777777777777777774 -#177777777777;-# 5777777777777777777777777",
"777777777777777777777774 214<;;;;;;;;;<52< 4777777777777777777777777",
"777777777777777777777777@ @.           XO -7777777777777777777777777",
"77777777777777777777777773X             +377777777777777777777777777",
"77777777777777777777777777@             %777777777777777777777777777",
"77777777777777777777777777@             %777777777777777777777777777",
"77777777777777777777777777@             %777777777777777777777777777",
"77777777777777777777777777@   @;;;;;@   %777777777777777777777777777",
"77777777777777777763377777@   ;77777;   %777774367777777777777777777",
"77777777777777777<.  X6777@   ;77777;   %7775O  X<777777777777777777",
"77777777777777771     -777#   ;77777;   -777&     377777777777777777",
"7777777777777777#  14X@777655567777765556777@X4<  %77777777777777777",
"7777777777777777@ X77#1777777777777777777777;#77X @77777777777777777",
"7777777777777777=  35173XXXXXXXXXXXXXXXXXXO37151  -77777777777777777",
"77777777777777774   #-@                     @&@  .577777777777777777",
"777777777777777772X                             .4777777777777777777",
"77777777777777777762=                         <267777777777777777777",
"777777777777777777773                         5777777777777777777777",
"777777777777777777773                         5777777777777777777777",
"777777777777777777773                         5777777777777777777777",
"777777777777777777773                         5777777777777777777777",
"777777777777777777773                         5777777777777777777777",
"777777777777777777773                         5777777777777777777777",
"777777777777777777773       XXXXXXXXXXX       5777777777777777777777",
"777777777777777777773       57777777775       5777777777777777777777",
"77777777776:#O#477773       57777777775       577773#O@1577777777777",
"7777777774.     :7773       57777777775       5777;     X57777777777",
"777777775.       3773       57777777775       5771       X6777777777",
"77777777&    oX  -773       57777777775       577#  Xo    :777777777",
"77777777X   <77@ -776.      57777777775      X677$ %77>   X777777777",
"77777777   .777< 17775333333777777777763333336777< 1777.  X777777777",
"77777777.  .675X&776333333333333333333333333333577&O575   O777777777",
"77777777#   *744773X                           X577356&   %777777777",
"777777773    X<1<@                               #<1:X    5777777777",
"777777777>                                               ,7777777777",
"7777777777>                                            .<77777777777",
"7777777777751;#                                     %;16777777777777",
"777777777777771                                     3777777777777777",
"777777777777771                                     3777777777777777",
"777777777777771                                     3777777777777777",
"777777777777771                                     3777777777777777",
"777777777777771                                     3777777777777777",
"777777777777771                                     3777777777777777",
"777777777777771                                     3777777777777777",
"777777777777771                                     3777777777777777",
"777777777777771                                     3777777777777777",
"777777777777771                                     3777777777777777",
"777777777777771          @;;;;;;;;;;;;;;;O          3777777777777777",
"777777777777771          ;777777777777777$          3777777777777777",
"777777777777771          ;777777777777777$          3777777777777777",
"777777777777771          ;777777777777777$          3777777777777777",
"777777777777771          ;777777777777777$          3777777777777777",
"777777777777771          ;777777777777777$          3777777777777777",
"777777777777771          ;777777777777777$          3777777777777777",
"777777777777771          ;777777777777777$          3777777777777777",
"777777777777773          ;777777777777777$          4777777777777777",
"777777777777777=         ;777777777777777$        .,7777777777777777",
"77777777777777777777777777777777777777777777777777777777777777777777",
"77777777777777777777777777777777777777777777777777777777777777777777",
"77777777777777777777777777777777777777777777777777777777777777777777",
"77777777777777777777777777777777777777777777777777777777777777777777",
"77777777777777777777777777777777777777777777777777777777777777777777"
};
